<?xml version="1.0" encoding="UTF-8" standalone="no"?>
<!-- Created with Inkscape (http://www.inkscape.org/) -->

<svg
   xmlns:dc="http://purl.org/dc/elements/1.1/"
   xmlns:cc="http://creativecommons.org/ns#"
   xmlns:rdf="http://www.w3.org/1999/02/22-rdf-syntax-ns#"
   xmlns:svg="http://www.w3.org/2000/svg"
   xmlns="http://www.w3.org/2000/svg"
   xmlns:xlink="http://www.w3.org/1999/xlink"
   xmlns:sodipodi="http://sodipodi.sourceforge.net/DTD/sodipodi-0.dtd"
   xmlns:inkscape="http://www.inkscape.org/namespaces/inkscape"
   width="2000"
   height="692.875"
   id="svg5858"
   version="1.1"
   inkscape:version="0.48.4 r9939"
   sodipodi:docname="snow-home.svg"
   inkscape:export-filename="C:\Users\Jake\Documents\FlashDevelop\HumphreyRemastered\lib\art\backgrounds\snow-home.png"
   inkscape:export-xdpi="90"
   inkscape:export-ydpi="90">
  <defs
     id="defs5860">
    <linearGradient
       inkscape:collect="always"
       id="linearGradient4001">
      <stop
         style="stop-color:#86aaaa;stop-opacity:1;"
         offset="0"
         id="stop4003" />
      <stop
         style="stop-color:#86aaaa;stop-opacity:0;"
         offset="1"
         id="stop4005" />
    </linearGradient>
    <linearGradient
       inkscape:collect="always"
       id="linearGradient3941">
      <stop
         style="stop-color:#86aaaa;stop-opacity:1;"
         offset="0"
         id="stop3943" />
      <stop
         style="stop-color:#86aaaa;stop-opacity:0;"
         offset="1"
         id="stop3945" />
    </linearGradient>
    <linearGradient
       gradientTransform="matrix(0.931491,0,0,0.931491,48.548744,-4.6787076)"
       gradientUnits="userSpaceOnUse"
       y2="-362.04474"
       x2="942.74353"
       y1="-362.04474"
       x1="849.66357"
       id="linearGradient4796"
       xlink:href="#linearGradient4788"
       inkscape:collect="always" />
    <linearGradient
       gradientTransform="matrix(0.931491,0,0,0.931491,49.488083,-19.52795)"
       gradientUnits="userSpaceOnUse"
       y2="-91.266716"
       x2="942.74353"
       y1="-91.266716"
       x1="849.66357"
       id="linearGradient4794"
       xlink:href="#linearGradient4804"
       inkscape:collect="always" />
    <linearGradient
       gradientTransform="translate(-35.355339,4.9497475)"
       gradientUnits="userSpaceOnUse"
       y2="780.65637"
       x2="393.85849"
       y1="733.10345"
       x1="351.4321"
       id="linearGradient4775"
       xlink:href="#linearGradient4769"
       inkscape:collect="always" />
    <linearGradient
       gradientTransform="matrix(1.0376493,0,0,1.0453451,-20.091021,-36.240043)"
       gradientUnits="userSpaceOnUse"
       y2="800.36218"
       x2="386"
       y1="421.36218"
       x1="371"
       id="linearGradient4764"
       xlink:href="#linearGradient4758"
       inkscape:collect="always" />
    <linearGradient
       gradientTransform="matrix(1.1966814,0,0,1.2657239,-1313.9993,-1563.2734)"
       gradientUnits="userSpaceOnUse"
       y2="513.95087"
       x2="514.1676"
       y1="619.00677"
       x1="633.36572"
       id="linearGradient5287"
       xlink:href="#linearGradient5281"
       inkscape:collect="always" />
    <linearGradient
       id="linearGradient5281"
       inkscape:collect="always">
      <stop
         id="stop5283"
         offset="0"
         style="stop-color:#000000;stop-opacity:1" />
      <stop
         id="stop5285"
         offset="1"
         style="stop-color:#1b1b1b;stop-opacity:0.80088496" />
    </linearGradient>
    <linearGradient
       id="linearGradient4758"
       inkscape:collect="always">
      <stop
         id="stop4760"
         offset="0"
         style="stop-color:#456161;stop-opacity:1" />
      <stop
         id="stop4762"
         offset="1"
         style="stop-color:#9cb9b9;stop-opacity:0.15957446" />
    </linearGradient>
    <linearGradient
       id="linearGradient4769"
       inkscape:collect="always">
      <stop
         id="stop4771"
         offset="0"
         style="stop-color:#cccccc;stop-opacity:1;" />
      <stop
         id="stop4773"
         offset="1"
         style="stop-color:#5b5b5b;stop-opacity:1" />
    </linearGradient>
    <linearGradient
       id="linearGradient4788"
       inkscape:collect="always">
      <stop
         id="stop4790"
         offset="0"
         style="stop-color:#341500;stop-opacity:1" />
      <stop
         id="stop4792"
         offset="1"
         style="stop-color:#552200;stop-opacity:1" />
    </linearGradient>
    <linearGradient
       inkscape:collect="always"
       id="linearGradient4804">
      <stop
         style="stop-color:#361600;stop-opacity:1"
         offset="0"
         id="stop4806" />
      <stop
         style="stop-color:#552200;stop-opacity:1"
         offset="1"
         id="stop4808" />
    </linearGradient>
    <linearGradient
       inkscape:collect="always"
       xlink:href="#linearGradient5281-7"
       id="linearGradient4623-0"
       gradientUnits="userSpaceOnUse"
       gradientTransform="matrix(1.1966814,0,0,1.2657239,-386.69182,-724.94052)"
       x1="633.36572"
       y1="619.00677"
       x2="514.1676"
       y2="513.95087" />
    <linearGradient
       id="linearGradient5281-7"
       inkscape:collect="always">
      <stop
         id="stop5283-1"
         offset="0"
         style="stop-color:#000000;stop-opacity:1" />
      <stop
         id="stop5285-7"
         offset="1"
         style="stop-color:#1b1b1b;stop-opacity:0.80088496" />
    </linearGradient>
    <linearGradient
       y2="513.95087"
       x2="514.1676"
       y1="619.00677"
       x1="633.36572"
       gradientTransform="matrix(1.1966814,0,0,1.2657239,-1170.9566,-1537.9347)"
       gradientUnits="userSpaceOnUse"
       id="linearGradient4652"
       xlink:href="#linearGradient5281-7"
       inkscape:collect="always" />
    <linearGradient
       inkscape:collect="always"
       xlink:href="#linearGradient5281-73"
       id="linearGradient4623-7"
       gradientUnits="userSpaceOnUse"
       gradientTransform="matrix(1.1966814,0,0,1.2657239,-386.69182,-724.94052)"
       x1="633.36572"
       y1="619.00677"
       x2="514.1676"
       y2="513.95087" />
    <linearGradient
       id="linearGradient5281-73"
       inkscape:collect="always">
      <stop
         id="stop5283-3"
         offset="0"
         style="stop-color:#000000;stop-opacity:1" />
      <stop
         id="stop5285-5"
         offset="1"
         style="stop-color:#1b1b1b;stop-opacity:0.80088496" />
    </linearGradient>
    <linearGradient
       y2="513.95087"
       x2="514.1676"
       y1="619.00677"
       x1="633.36572"
       gradientTransform="matrix(1.1966814,0,0,1.2657239,-1136.5825,-1561.6833)"
       gradientUnits="userSpaceOnUse"
       id="linearGradient4725"
       xlink:href="#linearGradient5281-73"
       inkscape:collect="always" />
    <linearGradient
       inkscape:collect="always"
       xlink:href="#linearGradient3941"
       id="linearGradient3947"
       x1="536.52942"
       y1="772.32343"
       x2="524.42657"
       y2="775.51654"
       gradientUnits="userSpaceOnUse"
       gradientTransform="matrix(1.0638673,0,0,1.0642644,185.12714,-66.084931)" />
    <linearGradient
       inkscape:collect="always"
       xlink:href="#linearGradient5281-73"
       id="linearGradient3970"
       gradientUnits="userSpaceOnUse"
       gradientTransform="matrix(-1.2731102,0,0,-1.3470649,1396.2999,1595.959)"
       x1="633.36572"
       y1="619.00677"
       x2="514.1676"
       y2="513.95087" />
    <linearGradient
       inkscape:collect="always"
       xlink:href="#linearGradient4001"
       id="linearGradient4007"
       x1="413.78436"
       y1="860.06073"
       x2="685.5011"
       y2="635.80688"
       gradientUnits="userSpaceOnUse"
       gradientTransform="translate(227.66104,0)" />
    <filter
       inkscape:collect="always"
       id="filter4096"
       x="-0.054624408"
       width="1.1092488"
       y="-0.10558611"
       height="1.2111722"
       color-interpolation-filters="sRGB">
      <feGaussianBlur
         inkscape:collect="always"
         stdDeviation="15.480838"
         id="feGaussianBlur4098" />
    </filter>
  </defs>
  <sodipodi:namedview
     id="base"
     pagecolor="#ffffff"
     bordercolor="#666666"
     borderopacity="1.0"
     inkscape:pageopacity="0.0"
     inkscape:pageshadow="2"
     inkscape:zoom="0.5"
     inkscape:cx="948.91838"
     inkscape:cy="232.14755"
     inkscape:document-units="px"
     inkscape:current-layer="layer1"
     showgrid="false"
     inkscape:window-width="1440"
     inkscape:window-height="838"
     inkscape:window-x="-8"
     inkscape:window-y="-8"
     inkscape:window-maximized="1"
     fit-margin-top="0"
     fit-margin-left="0"
     fit-margin-right="0"
     fit-margin-bottom="0" />
  <metadata
     id="metadata5863">
    <rdf:RDF>
      <cc:Work
         rdf:about="">
        <dc:format>image/svg+xml</dc:format>
        <dc:type
           rdf:resource="http://purl.org/dc/dcmitype/StillImage" />
        <dc:title></dc:title>
      </cc:Work>
    </rdf:RDF>
  </metadata>
  <g
     inkscape:label="Layer 1"
     inkscape:groupmode="layer"
     id="layer1"
     transform="translate(83.6875,-414.5)">
    <path
       sodipodi:nodetypes="ccccc"
       inkscape:connector-curvature="0"
       id="path3872"
       d="m -82.855836,1106.529 0,-710.98985 2024.568936,0 0,710.98985 z"
       style="fill:#ffffff;fill-opacity:1;stroke:#272727;stroke-width:1.68162549;stroke-miterlimit:4;stroke-opacity:1" />
    <path
       style="opacity:0.34070794;fill:#b0ffff;fill-opacity:1;stroke:#272727;stroke-width:1.68162549;stroke-miterlimit:4;stroke-opacity:1"
       d="m -82.855835,1106.5291 0,-712.40414 2034.318335,0 0,712.40414 z"
       id="rect4588"
       inkscape:connector-curvature="0"
       sodipodi:nodetypes="ccccc" />
    <path
       sodipodi:nodetypes="ccccc"
       inkscape:connector-curvature="0"
       id="path4803"
       d="m -104.16892,1106.9165 -6e-5,-339.04591 2072.55078,10e-5 -1e-4,339.04561 z"
       style="fill:#f3ffff;fill-opacity:1;stroke:none" />
    <path
       style="opacity:0.96460176;fill:#d9e7e7;fill-opacity:1"
       d="m 1107.4953,551.38004 47.125,44.78125 62.8979,56.16964 21.169,53.57143 -4.7169,117.23557 -14.1497,27.76515 -44.4771,15.53943 -226.372,18.66363 -390.46726,-12.34217 0.85714,-175.57143 55.43309,-44.37053 96.86607,-68.57143 47.14286,-27.58482 74.4254,-15.1486 c 72.3965,-9.39088 139.6283,-13.70507 206.6412,-4.25321 z"
       id="rect3909"
       inkscape:connector-curvature="0"
       sodipodi:nodetypes="cccccccccccccccc" />
    <path
       style="opacity:0.13716814;fill:#000000;fill-opacity:1;stroke:none;filter:url(#filter4096)"
       d="m 941.4735,531.08093 c -17.237,-4.49737 -8.1193,16.44629 -10.375,26.40146 -2.3928,6.91717 5.2162,23.67787 -4.5923,23.29683 -29.1463,0.46515 -58.2926,0.93031 -87.4389,1.39546 0,-14.16667 0,-28.33333 0,-42.5 -15.9458,-3.07407 -8.9478,13.79911 -10.4063,23.12105 2.9443,15.98847 -1.8005,24.37326 -19.6073,18.83369 -29.0554,-0.84966 -58.5907,-5.46225 -87.3398,-4.0891 -30.07771,12.62336 13.56712,9.86825 26.892,12.37207 11.108,0.27083 3.2226,18.9707 5.5864,27.72597 1.6523,14.66975 1.0477,27.15557 -18.02274,20.96965 -33.6098,0.25471 -67.96147,-2.66579 -101.10207,-0.89284 -10.77317,7.83231 -26.36702,13.6235 -17.60381,30.41425 6.86497,20.6684 2.40197,32.93292 -19.14244,27.95151 -12.15757,0 -24.31513,0 -36.4727,0 -3.70185,-0.66346 -1.25291,16.6966 -2.0207,22.90174 -0.25352,50.86608 -0.50703,101.73217 -0.76055,152.59826 13.77083,0.4375 27.54167,0.875 41.3125,1.3125 -16.31924,-4.78874 -45.80223,4.50759 -38.53125,-20.8094 0,-9.39687 0,-18.79373 0,-28.1906 30.6875,0 61.375,0 92.0625,0 0,16.89583 0,33.79167 0,50.6875 11.90557,2.74418 17.95148,-0.55925 14.84375,-13.30996 0,-12.45918 0,-24.91836 0,-37.37754 28.90522,3.32731 70.86961,-4.2869 92.03121,6.5929 0,15.8232 0,31.6464 0,47.4696 13.7087,4.57458 12.682,-6.05896 11.875,-16.46565 0,-11.86562 0,-23.73123 0,-35.59685 28.9053,3.32731 70.8696,-4.2869 92.0313,6.5929 0,16.25029 0,32.50057 0,48.75085 22.0579,6.94081 10.7584,-20.62504 13.4143,-33.75384 -8.1692,-33.94808 36.965,-13.05051 57.5818,-18.78132 17.7207,-0.0875 41.8188,-4.95929 34.3937,19.80389 -1.7846,10.2903 -0.4449,48.50833 8.619,27.00437 2.468,-20.71162 -10.2301,-56.21357 23.2724,-47.06216 20.4283,4.05532 59.004,-10.53301 69,3.75668 0,13.90663 0,27.81325 0,41.71988 14.0014,3.2543 10.1954,-9.87248 10.4688,-19.24662 0,-9.59488 0,-19.18975 0,-28.78463 28.9052,3.30344 70.8696,-8.65053 92.0312,2.5929 0,12.3232 0,24.6464 0,36.9696 12.9841,1.17363 10.6516,-10.72605 10.4063,-19.8094 2.3211,-6.97125 -5.6751,-24.25971 6.1239,-21.7531 14.5107,0 29.0215,0 43.5323,0 6.9065,-12.69641 -7.228,-9.90192 -15.5281,-9.8125 -22.7615,0 -45.5229,0 -68.2844,0 0,-16.34375 0,-32.6875 0,-49.03125 29.0312,0 58.0625,0 87.0937,0 5.0186,-13.94924 -8.9548,-9.65327 -17.9653,-10.125 -11.6574,0 -23.3147,0 -34.9721,0 0,-16.34375 0,-32.6875 0,-49.03125 18.4479,0 36.8958,0 55.3437,0 0.514,-12.77235 -11.3771,-9.81381 -20.2159,-9.8125 -23.0948,0 -46.1896,0 -69.2844,0 0,-16.34375 0,-32.6875 0,-49.03125 21.2604,0 42.5209,0 63.7813,0 -10.6276,-16.83796 -49.6444,6.98339 -47.198,-19.18216 4.5037,-13.40815 -9.3868,-45.25935 -7.5633,-14.36702 3.0249,19.02674 0.2521,31.12949 -21.7701,25.38348 -20.6714,-4.31444 -57.5224,8.24236 -69.9677,-4.77084 0.1039,-14.81282 0.2077,-29.62564 0.3116,-44.43846 22.6466,-2.20314 67.7214,2.70311 77.0136,-5.00681 -22.3505,-14.45496 -55.7599,0.17834 -82.0431,-4.07441 -21.6152,8.04955 -16.4263,-10.9825 -16.7518,-24.38302 -0.099,-10.17326 3.5542,-24.10479 -12,-21.03576 0,15.17708 0,30.35417 0,45.53125 -30.6875,0 -61.375,0 -92.0625,0 2e-4,-16.54157 -4e-4,-33.08393 3e-4,-49.625 z m 115.4375,58.5625 c -3.1137,20.50663 13.6044,61.30987 -22.5312,49.59375 -20.4614,-4.64888 -59.8675,9.37029 -69.7735,-6.655 0.091,-14.3025 0.1823,-28.605 0.2735,-42.9075 30.6771,-0.0104 61.3543,-0.0207 92.0312,-0.0312 z m -99.3125,0.0312 c -2.8075,21.11622 12.2396,60.35121 -23.0156,49.24218 -20.4364,-4.65516 -59.0284,8.81446 -69.0469,-6.24105 0,-14.06288 0,-28.12575 0,-42.18863 30.6875,-0.27083 61.375,-0.54167 92.0625,-0.8125 z m -193,0.625 c 30.6771,0.125 61.3542,0.25 92.0313,0.375 0,16.0625 0,32.125 0,48.1875 -28.8928,-3.34462 -70.8844,6.39608 -92.0313,-4.6866 0,-14.6253 0,-29.2506 0,-43.8759 z m -138.43746,54.75 c 31.45061,1.11043 67.05122,0.012 96.03125,3.53097 0,15.83343 0,31.66685 0,47.50028 -30.67708,0 -61.35417,0 -92.03125,0 -0.0591,-17.0982 -3.94099,-33.93362 -4,-51.03125 z m 403.93746,1.28125 c 3.6398,7.4531 0.6894,19.16161 1.7572,28.27549 10.2809,32.43798 -25.4548,21.08612 -45.5658,22.98583 -14.6643,-3.34023 -41.1833,7.04523 -49.0361,-4.69685 0.6376,-15.35001 0.5623,-30.75276 1.7197,-46.06447 30.3746,-0.18493 60.7521,-0.22606 91.125,-0.5 z m 12.75,0.0937 c 30.6771,0.20833 61.3542,0.41667 92.0313,0.625 0,16.34375 0,32.6875 0,49.03125 -29.4298,-2.76246 -68.9204,6.32936 -92.8027,-3.06445 0.4641,-15.43227 -0.729,-31.59586 0.7714,-46.5918 z m -122.1562,0.5 c 8.6955,5.95752 8.5646,40.46296 3.2192,50.662 -30.1251,-0.50192 -60.2503,-1.00383 -90.3755,-1.50575 0,-16.29167 0,-32.58333 0,-48.875 29.0521,-0.0993 58.1043,-0.15575 87.1563,-0.28125 z m -188.12501,0.125 c 30.68751,0.0625 61.37501,0.125 92.06251,0.1875 0,16.28125 0,32.5625 0,48.84375 -30.6875,0 -61.375,0 -92.06251,0 0,-16.34375 0,-32.6875 0,-49.03125 z m 236.56251,56.71875 c 3.1434,11.70757 8.825,45.65367 -1.905,53.58873 -29.8438,-0.96095 -59.8588,-0.71364 -89.595,-2.43248 1.8814,-22.09651 -11.4956,-60.64808 24.3305,-49.99991 22.3879,-0.48496 44.7831,-0.64139 67.1695,-1.15634 z m 11.5625,0.15625 c 27.3948,2.00146 59.7079,-1.70747 84.3633,3.49967 -0.1211,15.83345 -0.2422,31.66689 -0.3633,47.50033 -28.1387,-0.2586 -58.0567,3.68736 -85.1875,0.8125 0.1746,-16.9721 -1.4991,-34.29409 -0.1208,-51.04008 l 1.152,-0.74117 0.1563,-0.0312 0,-5e-5 z m 97.375,1.75 c 28.8928,3.38389 70.8843,-6.29978 92.0312,4.81165 0,14.81279 0,29.62557 0,44.43835 -30.6771,0 -61.3541,0 -92.0312,0 0.072,-16.386 -0.4384,-33.01526 0,-49.25 z m -215.9375,0.0312 c 1.7894,9.11287 10.0258,46.23935 -3.5614,49.39378 -28.6358,-0.0583 -57.2716,-0.11659 -85.9074,-0.17488 0,-16.34375 0,-32.6875 0,-49.03125 29.8225,-0.0954 59.6478,0.009 89.4688,-0.18765 z m -300.28126,0.1875 c 30.6875,0 61.375,0 92.0625,0 0,16.34375 0,32.6875 0,49.03125 -30.6875,0 -61.375,0 -92.0625,0 0,-16.34375 0,-32.6875 0,-49.03125 z m 106.90625,0 c 30.67708,0 61.35417,0 92.03121,0 0,16.34375 0,32.6875 0,49.03125 -30.67704,0 -61.35413,0 -92.03121,0 0,-16.34375 0,-32.6875 0,-49.03125 z m 256.12501,58.4689 c 2.2132,12.86296 6.7319,46.69729 -4.4785,52.43653 -26.4283,-5.1279 -70.8286,8.82374 -86.8653,-6.84165 0.1241,-14.87711 -0.2443,-29.78612 0.1772,-44.64395 30.3304,-0.81831 60.7902,-0.48442 91.1666,-0.95093 z m 16.4062,0.25 c 28.795,2.34207 66.2941,-3.71783 89.6914,3.95606 -3.5529,20.76047 11.9808,60.8309 -23.1912,49.85012 -21.0957,-4.01981 -57.1068,6.96098 -68.5117,-6.45611 2.9628,-12.37397 -7.2616,-40.32993 2.0115,-47.35007 z m -379.43746,0.4375 c 19.30208,0 38.60417,0 57.90625,0 0,16.34375 0,32.6875 0,49.03125 -19.30208,0 -38.60417,0 -57.90625,0 0,-16.34375 0,-32.6875 0,-49.03125 z m 68.3125,0 c 30.67708,0 61.35417,0 92.03125,0 0,16.34375 0,32.6875 0,49.03125 -30.67708,0 -61.35417,0 -92.03125,0 0,-16.34375 0,-32.6875 0,-49.03125 z m 102.40625,0 c 30.68751,0 61.37501,0 92.06251,0 0,17.01042 0,34.02083 0,51.03125 -28.9156,-3.32734 -70.8905,4.28701 -92.06251,-6.5929 0,-14.81279 0,-29.62557 0,-44.43835 z m 402.31251,0 c 0,17.01042 0,34.02083 0,51.03125 -30.8021,0.44792 -61.6042,0.89583 -92.4063,1.34375 3.1993,-15.86588 -5.9481,-44.17254 4.9679,-52.34531 29.1462,-0.01 58.2924,-0.0197 87.4384,-0.0297 z"
       id="rect3909-2"
       inkscape:connector-curvature="0" />
    <path
       style="fill:#e4f4f4;fill-opacity:1;stroke:#bbcfcf;stroke-width:5;stroke-miterlimit:4;stroke-opacity:1;stroke-dasharray:none"
       d="m 838.4858,533.94634 c 0,16.46875 0,32.9375 0,49.40625 30.6771,-0.48958 61.3541,-0.97917 92.0312,-1.46875 0,-19.01042 0,-38.02083 0,-57.03125 -30.9137,0.38799 -61.1191,8.70596 -92.0312,9.09375 z m 102.4062,47.9375 c 30.6875,0 61.375,0 92.0625,0 0,-16.34375 0,-32.6875 0,-49.03125 -29.0715,3.30709 -70.8298,-15.30163 -92.0625,-3.32899 0,17.45342 0,34.90683 0,52.36024 z m 104.0625,0 c 35.9783,0.0179 71.928,-1.86158 107.9063,-1.84375 -17.6,-12.58512 -35.7589,-26.26681 -54.5719,-36.0198 -17.7781,-3.72257 -35.5562,-7.44513 -53.3344,-11.1677 0,16.34375 0,32.6875 0,49.03125 z M 766.1327,551.67603 c -13.1804,6.6307 -40.60358,20.63174 -42.64411,26.26811 34.91671,0.77028 69.66501,4.95929 104.59091,5.5022 0,-16.46875 0,-32.9375 0,-49.40625 -20.3687,6.85271 -42.186,8.89725 -61.9468,17.63594 z m 198.1656,39.17656 c -0.1042,16.34375 -0.2084,32.6875 -0.3125,49.03125 29.7784,-1.07914 67.6868,4.782 92.7585,-2.74201 -3.8006,-17.46536 11.2732,-54.05893 -17.5418,-46.31468 -24.9681,0.008 -49.9363,0.0169 -74.9042,0.0254 z m -346.71877,47.03125 c 45.35228,0.0197 90.67897,1.98029 136.03127,2 0,-16.20833 0,-32.41667 0,-48.625 -25.02996,0.52292 -51.64535,-11.20842 -74.6856,3.40889 -23.1871,10.17932 -41.65752,27.80684 -61.34567,43.21611 z M 864.9545,591.66509 c 0,16.10417 0,32.20833 0,48.3125 29.4778,-2.64288 69.1578,5.49596 92.278,-3.8656 -3.6031,-17.32625 11.1389,-53.0646 -17.3419,-45.10825 -24.9787,0.22045 -49.9574,0.4409 -74.9361,0.66135 z m 301.4375,48.21875 c 15.2616,0.22029 64.7936,12.16081 36.8628,-11.17079 -9.6519,-12.15663 -28.3376,-39.42637 -38.4612,-36.01749 0.1771,15.73702 0.4691,31.48652 1.5984,47.18828 z m -402.375,0.0625 c 28.8647,-3.34006 71.0437,6.64785 92.0313,-4.57731 0,-14.5055 0,-29.01099 0,-43.51649 -30.6771,-0.125 -61.3542,-0.25 -92.0313,-0.375 0,16.15627 0,32.31253 0,48.4688 z m 174.375,8.0625 c -0.6522,16.6635 -2.2046,33.94203 -1.1209,50.33914 32.0956,1.49182 64.8147,-0.14087 97.1209,-0.12039 2.1451,-16.2217 0.2526,-33.38445 0.6875,-50 -31.8655,-1.51098 -64.548,0.1224 -96.6875,-0.21875 z m 103.25,0.21875 c 4.0459,18.8749 -13.6249,60.66213 20.7434,49.63618 23.2829,-4.9416 65.2423,8.65328 77.9129,-6.83295 0,-14.26774 0,-28.53549 0,-42.80323 -32.7985,0.18462 -66.265,-1.17217 -98.6563,0 z m -121.5312,-0.125 c -27.2482,3.4813 -67.7827,-6.3537 -87.1563,4.95226 0,14.73467 0,29.46933 0,44.20399 30.9339,0.0617 62.3561,1.94127 92.9883,0.88022 -2.2096,-14.05329 5.5884,-44.42929 -5.832,-50.03647 z m -358.84377,40.125 c -4.25836,14.0158 11.81154,7.70333 20.24106,9.03125 12.55506,0 25.11013,0 37.66519,0 -2.38364,-15.42212 0.25984,-43.47061 -8.1823,-49.66131 -20.78881,7.29819 -36.0217,24.15862 -49.72395,40.63006 z m 68.3125,9.03125 c 30.67708,0 61.35417,0 92.03125,0 0,-16.34375 0,-32.6875 0,-49.03125 -29.93481,4.00378 -76.56227,-10.38824 -95.85937,4.21484 0.78565,14.98085 3.76729,29.78819 3.82812,44.81641 z m 102.40625,0 c 30.68752,0 61.37502,0 92.06252,0 0,-16.28125 0,-32.5625 0,-48.84375 -30.6875,-0.0625 -61.375,-0.125 -92.06252,-0.1875 0,16.34375 0,32.6875 0,49.03125 z m 417.15622,0 c 31.3438,0 62.6875,0 94.0312,0 -9.3637,-15.08799 -12.7231,-41.05895 -26.6709,-49.03125 -22.4535,0 -44.9069,0 -67.3603,0 0,16.34375 0,32.6875 0,49.03125 z m -181.125,7.71875 c -30.1768,0.56007 -60.3579,0.87736 -90.5312,1.625 3.308,16.95751 -12.7948,56.05981 15.2789,50.29323 25.958,0.0966 52.4285,2.11644 78.0699,1.02475 -1.1256,-15.86818 5.5507,-41.15084 -2.8176,-52.94298 z m 11.9375,0.15625 c -3.9732,8.92961 -0.4794,20.96786 -1.3722,31.14824 0.5683,11.06263 -4.1338,29.28324 14.8926,21.69809 21.121,-4.97705 60.0158,7.24876 70.6835,-8.10541 0.1091,-14.26781 0.2183,-28.53561 0.3274,-42.80342 -28.0405,-1.39998 -56.3947,-1.21699 -84.5313,-1.9375 z m 93.3125,1.9375 c 4.3727,17.75927 -12.4525,56.81131 17.3458,49.03125 26.3014,0 52.6028,0 78.9042,0 0,-16.34375 0,-32.6875 0,-49.03125 -32.0533,0.0682 -64.3481,-0.43421 -96.25,0 z m -214.4375,-0.125 c -27.1136,3.41392 -67.5107,-6.47922 -86.75,4.79601 0,14.78675 0,29.57349 0,44.36024 30.6771,0.0625 61.3542,0.125 92.0313,0.1875 -3.1048,-12.81598 7.0544,-46.00489 -5.2813,-49.34375 z m -297.56247,49.15625 c 30.6875,0 61.375,0 92.0625,0 0,-16.34375 0,-32.6875 0,-49.03125 -30.6875,0 -61.375,0 -92.0625,0 0,16.34375 0,32.6875 0,49.03125 z m 106.90625,0 c 30.67708,0 61.35417,0 92.03122,0 0,-16.34375 0,-32.6875 0,-49.03125 -30.67705,0 -61.35414,0 -92.03122,0 0,16.34375 0,32.6875 0,49.03125 z m 515.12502,0 c 19.9583,0 39.9166,0 59.8749,0 0,-16.34375 0,-32.6875 0,-49.03125 -19.9583,0 -39.9166,0 -59.8749,0 0,16.34375 0,32.6875 0,49.03125 z m -260,5.46875 c -28.9624,2.66265 -66.1046,0.21625 -90.3438,7.83825 0,15.94975 0,31.8995 0,47.84925 29.8196,-1.26824 68.2022,4.34381 92.7276,-2.36713 -2.0098,-16.46016 5.492,-41.28274 -2.3838,-53.32037 z m 15.25,0.25 c 0.6219,16.91977 -5.5345,48.81702 6.0079,57.26853 27.3847,-2.43297 63.4547,5.29407 85.4569,-2.86326 -4.0144,-21.2292 14.2817,-64.42198 -22.0149,-53.86679 -23.1498,-0.17596 -46.2999,-0.48504 -69.4499,-0.53848 z m -377.28127,53.4375 c 19.30208,0 38.60417,0 57.90625,0 0,-16.34375 0,-32.6875 0,-49.03125 -19.30208,0 -38.60417,0 -57.90625,0 0,16.34375 0,32.6875 0,49.03125 z m 68.3125,0 c 30.67708,0 61.35417,0 92.03125,0 0,-16.34375 0,-32.6875 0,-49.03125 -30.67708,0 -61.35417,0 -92.03125,0 0,16.34375 0,32.6875 0,49.03125 z m 102.40625,0 c 28.88742,-3.35727 71.04972,8.76053 92.06252,-2.67101 0,-15.45342 0,-30.90683 0,-46.36024 -30.6875,0 -61.375,0 -92.06252,0 0,16.34375 0,32.6875 0,49.03125 z m 310.28122,-53 c 3.0379,17.058 -6.7475,47.21117 4.2955,56.27583 29.2453,-0.42528 58.4905,-0.85055 87.7358,-1.27583 0,-18.34375 0,-36.6875 0,-55.03125 -30.6771,0.0104 -61.3543,0.0207 -92.0313,0.0312 z m 106.875,53 c 30.6771,0 61.3542,0 92.0312,0 -2.0103,-21.63881 14.365,-59.33038 -21.3203,-49.65625 -20.9086,3.47419 -60.3481,-12.78115 -70.7109,2.85302 0,15.60107 0,31.20215 0,46.80323 z m -587.87497,54.84375 c 29.06951,-2.06158 70.8179,16.19907 92.0625,5.32899 0,-16.78675 0,-33.57349 0,-50.36024 -30.6875,0 -61.375,0 -92.0625,0 0,15.01042 0,30.02083 0,45.03125 z m 106.90625,10 c 28.91413,-3.34377 70.98459,10.94453 92.03122,-0.67101 0,-17.45342 0,-34.90683 0,-52.36024 -28.87703,3.35722 -71.02884,-8.76053 -92.03122,2.67101 0,16.78675 0,33.57349 0,50.36024 z m 103.90622,4 c 28.8771,-3.35722 71.0289,8.76053 92.0313,-2.67101 0,-17.45342 0,-34.90683 0,-52.36024 -28.8771,3.35722 -71.0289,-8.76053 -92.0313,2.67101 0,17.45342 0,34.90683 0,52.36024 z m 308.7813,-8 c 29.0172,-4.04784 70.856,-1.50109 92.0312,-12.67101 0,-12.78675 0,-25.57349 0,-38.36024 -28.877,3.38191 -71.0288,-4.39133 -92.0312,6.67101 0,14.78675 0,29.57349 0,44.36024 z m 102.4375,-8 c 14.2396,-4.71875 28.4791,-9.4375 42.7187,-14.15625 7.2479,-14.40354 24.4434,-34.82014 -1.9708,-28.875 -13.5826,0 -27.1653,0 -40.7479,0 0,14.34375 0,28.6875 0,43.03125 z m -305.8125,18 c 28.7293,-3.42686 73.0397,6.93458 91.8008,-6.46484 -2.7621,-21.08112 12.0211,-59.40673 -22.668,-49.71485 -20.9121,4.30534 -58.9276,-8.35081 -69.0781,5.73047 -0.019,16.81641 -0.034,33.63282 -0.055,50.44922 z m 100.9062,-55.4375 c 3.8282,21.62646 -13.8842,67.01839 22.7422,53.02344 20.4544,-7.19055 59.2258,1.81768 69.2578,-13.75146 0,-14.22607 0,-28.45215 0,-42.67823 -30.6405,1.80111 -61.3595,1.60514 -92,3.40625 z m 88,-190.78125 c 29.3797,-1.56703 68.7429,4.6028 92.1061,-3.34759 -3.5248,-20.96149 12.2317,-58.74286 -22.7389,-47.30083 -20.4328,5.29821 -59.1358,-7.25356 -69.0671,7.84508 -0.1,14.26775 -0.2,28.53576 -0.3001,42.80334 z"
       id="path4010"
       inkscape:connector-curvature="0" />
    <path
       sodipodi:nodetypes="cccccccc"
       inkscape:connector-curvature="0"
       id="path3162"
       d="m 617.4787,694.56192 -35.3356,22.85318 -38.26646,46.02323 -4.1986,151.6182 c 75.00708,3.62181 172.79614,16.23067 248.45166,0.82012 20.3964,-10.95711 40.1024,-22.19053 46.4492,-38.76964 0,0 14.8266,-122.46597 -26.83,-166.19639 -31.3177,-13.92139 -96.99232,-29.26999 -190.2702,-16.3487 z"
       style="fill:#e4f4f4;fill-opacity:1;stroke:url(#linearGradient4007);stroke-width:6.57698298;stroke-miterlimit:4;stroke-opacity:0.56382979;stroke-dasharray:none" />
    <path
       style="fill:url(#linearGradient3970);fill-opacity:1;stroke:none"
       d="m 745.6945,914.65585 c -27.91973,8.4001 -93.37102,7.90931 -150.72354,0 l 0,-164.03564 150.72354,0 z"
       id="rect5279-9"
       inkscape:connector-curvature="0"
       sodipodi:nodetypes="ccccc" />
    <path
       style="fill:#e4f4f4;fill-opacity:1;stroke:none"
       d="m 587.78646,720.27793 -32.24002,42.74851 -11.9021,150.79296 57.88108,0 0,-137.78897 c 58.01067,-15.35986 92.89671,-6.62472 127.33161,0 l 0,139.08604 27.28007,0 30.3152,-21.2132 0.2525,-129.57975 -11.4698,0 0,-46.19573 c -57.65419,-13.63354 -75.27806,-31.93591 -187.44854,2.15014 z"
       id="rect5273-9"
       inkscape:connector-curvature="0"
       sodipodi:nodetypes="ccccccccccccc" />
    <path
       sodipodi:nodetypes="cccccccccc"
       inkscape:connector-curvature="0"
       id="path3937"
       d="m 553.16614,764.81842 -11.902,148.70765 57.881,2.12853 0,-137.8322 c 58.01068,-15.35986 92.89672,-6.62472 127.33162,0 l -0.0306,142.05877 c 1.7864,-0.005 34.92684,3.36659 59.81204,-7.84663 5.7657,-15.76465 18.2585,-151.25309 -42.9568,-195.33999 -57.65421,-13.63352 -190.13526,48.12387 -190.13526,48.12387 z"
       style="opacity:0.66371681;fill:#e4f4f4;fill-opacity:1;stroke:url(#linearGradient3947);stroke-width:6.57698298;stroke-miterlimit:4;stroke-opacity:0.56382979;stroke-dasharray:none" />
    <path
       sodipodi:nodetypes="cccccc"
       inkscape:connector-curvature="0"
       id="path3974"
       d="m 595.41823,889.72304 17.35277,10.94553 18.79209,22.04283 2.06186,8.24678 c -37.13983,1.86062 -213.95531,17.7606 -131.64551,-33.40493 15.3797,-6.66767 47.6314,-14.01888 93.43879,-7.83021 z"
       style="fill:#e4f4f4;fill-opacity:1;stroke:#86aaaa;stroke-width:6.57698345;stroke-miterlimit:4;stroke-opacity:0.56382979;stroke-dasharray:none" />
    <path
       style="fill:#e4f4f4;fill-opacity:1;stroke:#86aaaa;stroke-width:6.57698345;stroke-miterlimit:4;stroke-opacity:0.56382979;stroke-dasharray:none"
       d="m 655.46517,898.6672 c -34.0047,18.19514 -45.43172,20.89876 -51.47068,35.09879 l -2.8785,11.8047 c 51.4238,2.4829 272.80551,8.59396 168.12821,-26.35117 -21.471,-9.54432 -49.82906,-29.41098 -113.77903,-20.55232 z"
       id="path3972"
       inkscape:connector-curvature="0"
       sodipodi:nodetypes="ccccc" />
    <rect
       style="fill:#550000;fill-opacity:1;stroke:#000000;stroke-width:0.79940063;stroke-miterlimit:4;stroke-opacity:1;stroke-dasharray:none"
       id="rect3945"
       width="18.245998"
       height="82.081062"
       x="178.02982"
       y="733.98749"
       inkscape:export-filename="C:\Users\Jake\Desktop\LD\Humphrey's Tiny Adventure\lib\Scene 1\thought_play.png"
       inkscape:export-xdpi="90.759377"
       inkscape:export-ydpi="90.759377" />
    <rect
       style="fill:#1a1a1a;fill-opacity:1;stroke:#000000;stroke-width:0.79940063;stroke-miterlimit:4;stroke-opacity:1;stroke-dasharray:none"
       id="rect3947"
       width="97.312012"
       height="7.5572438"
       x="137.3391"
       y="815.56464"
       inkscape:export-filename="C:\Users\Jake\Desktop\LD\Humphrey's Tiny Adventure\lib\Scene 1\thought_play.png"
       inkscape:export-xdpi="90.759377"
       inkscape:export-ydpi="90.759377" />
    <rect
       style="fill:#ffffff;fill-opacity:1;stroke:#000000;stroke-width:0.79940063;stroke-miterlimit:4;stroke-opacity:1;stroke-dasharray:none"
       id="rect3939"
       width="112.51701"
       height="63.21537"
       x="135.9626"
       y="678.388"
       inkscape:export-filename="C:\Users\Jake\Desktop\LD\Humphrey's Tiny Adventure\lib\Scene 1\thought_play.png"
       inkscape:export-xdpi="90.759377"
       inkscape:export-ydpi="90.759377" />
    <rect
       style="fill:#000000;fill-opacity:1;stroke:#000000;stroke-width:0.79940063;stroke-miterlimit:4;stroke-opacity:1;stroke-dasharray:none"
       id="rect3941"
       width="51.69701"
       height="3.0228975"
       x="184.11182"
       y="727.49658"
       inkscape:export-filename="C:\Users\Jake\Desktop\LD\Humphrey's Tiny Adventure\lib\Scene 1\thought_play.png"
       inkscape:export-xdpi="90.759377"
       inkscape:export-ydpi="90.759377" />
    <rect
       style="fill:#ededed;fill-opacity:1;stroke:#000000;stroke-width:0.79940063;stroke-miterlimit:4;stroke-opacity:1;stroke-dasharray:none"
       id="rect3943"
       width="36.491997"
       height="36.778584"
       x="193.23486"
       y="732.53473"
       inkscape:export-filename="C:\Users\Jake\Desktop\LD\Humphrey's Tiny Adventure\lib\Scene 1\thought_play.png"
       inkscape:export-xdpi="90.759377"
       inkscape:export-ydpi="90.759377" />
    <path
       style="fill:#b4cece;fill-opacity:1;stroke:none"
       d="m 290.09992,925.64856 -16.10849,6.25 -21.53112,-6.25 c 0,0 -12.42051,-14.84924 6.79898,-14.84924 19.21949,0 30.84063,14.84924 30.84063,14.84924 z"
       id="rect5741"
       inkscape:connector-curvature="0"
       sodipodi:nodetypes="cccsc" />
    <path
       sodipodi:nodetypes="cccsc"
       inkscape:connector-curvature="0"
       id="path5758"
       d="m 225.78563,907.33717 -15.36345,10.55146 -16.82611,-0.69331 c 0,0 -6.85058,-11.79218 9.586,-16.82594 16.4366,-5.03376 22.60356,6.96779 22.60356,6.96779 z"
       style="fill:#b4cece;fill-opacity:1;stroke:none" />
    <path
       style="fill:#b4cece;fill-opacity:1;stroke:none"
       d="m 241.80933,880.78591 -17.50721,3.7365 -13.06493,-3.7365 c 0,0 0.42102,-8.87746 16.03173,-8.87746 15.6107,0 14.54041,8.87746 14.54041,8.87746 z"
       id="path5760"
       inkscape:connector-curvature="0"
       sodipodi:nodetypes="cccsc" />
    <path
       sodipodi:nodetypes="cccsc"
       inkscape:connector-curvature="0"
       id="path5762"
       d="m 195.14387,868.87797 -13.46,2.87272 -10.04467,-2.87272 c 0,0 0.3237,-6.82522 12.32562,-6.82522 12.00192,0 11.17905,6.82522 11.17905,6.82522 z"
       style="fill:#b4cece;fill-opacity:1;stroke:none" />
    <path
       sodipodi:nodetypes="cccsc"
       inkscape:connector-curvature="0"
       id="path5764"
       d="m 298.29846,964.68527 -14.89796,8.752 -28.61863,-5.54533 c 0,0 -14.64073,-12.6656 4.33009,-15.74724 18.97083,-3.08165 39.1865,12.54057 39.1865,12.54057 z"
       style="fill:#b4cece;fill-opacity:1;stroke:none" />
    <path
       style="fill:#b4cece;fill-opacity:1;stroke:none"
       d="m 373.95889,966.09948 -14.89796,8.752 -28.61863,-5.54533 c 0,0 -14.64073,-12.6656 4.33009,-15.74724 18.97083,-3.08165 39.1865,12.54057 39.1865,12.54057 z"
       id="path5766"
       inkscape:connector-curvature="0"
       sodipodi:nodetypes="cccsc" />
    <path
       style="fill:#b4cece;fill-opacity:1;stroke:none"
       d="m 405.03558,1009.9465 -12.23755,12.1978 -29.0963,1.7839 c 0,0 -17.34176,-8.6042 0.25667,-16.3297 17.59843,-7.7255 41.07718,2.348 41.07718,2.348 z"
       id="path5768"
       inkscape:connector-curvature="0"
       sodipodi:nodetypes="cccsc" />
    <path
       sodipodi:nodetypes="cccsc"
       inkscape:connector-curvature="0"
       id="path5770"
       d="m 485.71905,987.55542 -12.23755,12.19791 -29.0963,1.78387 c 0,0 -17.34176,-8.60421 0.25667,-16.32974 17.59844,-7.72555 41.07718,2.34796 41.07718,2.34796 z"
       style="fill:#b4cece;fill-opacity:1;stroke:none" />
    <path
       sodipodi:nodetypes="cccsc"
       inkscape:connector-curvature="0"
       id="path5772"
       d="m 557.16192,1002.1281 -10.48655,13.7324 -28.59231,5.6795 c 0,0 -18.34109,-6.1947 -1.94107,-16.2161 16.40003,-10.02127 41.01993,-3.1958 41.01993,-3.1958 z"
       style="fill:#b4cece;fill-opacity:1;stroke:none" />
    <path
       style="fill:#b4cece;fill-opacity:1;stroke:none"
       d="m 1335.116,883.83812 15.3338,5.94943 20.4957,-5.94943 c 0,0 11.8231,-14.13513 -6.4721,-14.13513 -18.2952,0 -29.3574,14.13513 -29.3574,14.13513 z"
       id="rect5741-2"
       inkscape:connector-curvature="0"
       sodipodi:nodetypes="cccsc" />
    <path
       sodipodi:nodetypes="cccsc"
       inkscape:connector-curvature="0"
       id="path5758-7"
       d="m 1394.1877,890.41979 15.3634,10.55146 16.8261,-0.69331 c 0,0 6.8506,-11.79218 -9.586,-16.82594 -16.4366,-5.03376 -22.6035,6.96779 -22.6035,6.96779 z"
       style="fill:#b4cece;fill-opacity:1;stroke:none" />
    <path
       style="fill:#b4cece;fill-opacity:1;stroke:none"
       d="m 1401.4985,863.86853 17.5072,3.7365 13.0649,-3.7365 c 0,0 -0.421,-8.87746 -16.0317,-8.87746 -15.6107,0 -14.5404,8.87746 -14.5404,8.87746 z"
       id="path5760-7"
       inkscape:connector-curvature="0"
       sodipodi:nodetypes="cccsc" />
    <path
       sodipodi:nodetypes="cccsc"
       inkscape:connector-curvature="0"
       id="path5762-1"
       d="m 1463.0131,864.68851 13.46,2.87272 10.0447,-2.87272 c 0,0 -0.3237,-6.82522 -12.3256,-6.82522 -12.0019,0 -11.1791,6.82522 -11.1791,6.82522 z"
       style="fill:#b4cece;fill-opacity:1;stroke:none" />
    <path
       sodipodi:nodetypes="cccsc"
       inkscape:connector-curvature="0"
       id="path5764-2"
       d="m 1334.5032,921.96047 13.6796,8.0362 26.278,-5.09178 c 0,0 13.4434,-11.62972 -3.976,-14.45938 -17.4193,-2.82958 -35.9816,11.51496 -35.9816,11.51496 z"
       style="fill:#b4cece;fill-opacity:1;stroke:none" />
    <path
       style="fill:#b4cece;fill-opacity:1;stroke:none"
       d="m 1253.186,917.71781 13.6796,8.0362 26.278,-5.09178 c 0,0 13.4433,-11.62972 -3.9761,-14.45938 -17.4192,-2.82958 -35.9815,11.51496 -35.9815,11.51496 z"
       id="path5766-6"
       inkscape:connector-curvature="0"
       sodipodi:nodetypes="cccsc" />
    <path
       style="fill:#b4cece;fill-opacity:1;stroke:none"
       d="m 1222.1302,953.00832 12.2375,12.19785 29.0963,1.7839 c 0,0 17.3418,-8.60425 -0.2567,-16.32975 -17.5984,-7.7255 -41.0771,2.348 -41.0771,2.348 z"
       id="path5768-0"
       inkscape:connector-curvature="0"
       sodipodi:nodetypes="cccsc" />
    <path
       sodipodi:nodetypes="cccsc"
       inkscape:connector-curvature="0"
       id="path5770-4"
       d="m 1145.4486,939.34993 13.2332,11.10977 29.1424,-0.70422 c 0,0 16.5448,-10.05187 -1.6484,-16.24831 -18.1932,-6.19655 -40.7272,5.84276 -40.7272,5.84276 z"
       style="fill:#b4cece;fill-opacity:1;stroke:none" />
    <path
       sodipodi:nodetypes="cccsc"
       inkscape:connector-curvature="0"
       id="path5772-9"
       d="m 1084.5698,972.15889 11.6196,12.78803 28.9725,3.2202 c 0,0 17.746,-7.73633 0.5509,-16.32252 -17.1949,-8.58599 -41.143,0.31429 -41.143,0.31429 z"
       style="fill:#b4cece;fill-opacity:1;stroke:none" />
    <path
       style="opacity:0.82743363;fill:#e4ffff;fill-opacity:1;stroke:none"
       d="m 217.65625,261.875 0,67.21875 42.0625,0 0,69.96875 -40.6875,0 0,11.5625 101.3125,0 0,-11.5625 -38.375,0 0,-42.25 33.4375,0 0,-27.71875 18.75,0 0,-67.21875 z"
       id="rect5830"
       transform="translate(-83.6875,414.5)"
       inkscape:connector-curvature="0"
       sodipodi:nodetypes="ccccccccccccccc" />
    <path
       style="opacity:0.82743363;fill:#e4ffff;fill-opacity:1;stroke:none"
       d="m 1592.1556,806.14752 c 64.4214,2.53604 158.0371,-0.51958 192.333,12.37437 -45.5771,10.33875 -127.3501,12.66283 -193.1023,12.32487 -68.8471,-0.35387 -142.4936,-6.68068 -191.5638,-12.32487 52.1177,-6.52345 111.93,-15.53955 192.3331,-12.37437 z"
       id="rect5841"
       inkscape:connector-curvature="0"
       sodipodi:nodetypes="scscs" />
  </g>
</svg>
