<?xml version="1.0" encoding="UTF-8" standalone="no"?>
<!-- Created with Inkscape (http://www.inkscape.org/) -->

<svg
   xmlns:dc="http://purl.org/dc/elements/1.1/"
   xmlns:cc="http://creativecommons.org/ns#"
   xmlns:rdf="http://www.w3.org/1999/02/22-rdf-syntax-ns#"
   xmlns:svg="http://www.w3.org/2000/svg"
   xmlns="http://www.w3.org/2000/svg"
   xmlns:xlink="http://www.w3.org/1999/xlink"
   xmlns:sodipodi="http://sodipodi.sourceforge.net/DTD/sodipodi-0.dtd"
   xmlns:inkscape="http://www.inkscape.org/namespaces/inkscape"
   width="1600"
   height="600"
   id="svg5858"
   version="1.1"
   inkscape:version="0.48.4 r9939"
   sodipodi:docname="snow-home.svg"
   inkscape:export-filename="C:\Users\Jake\Documents\FlashDevelop\HumphreyRemastered\lib\art\backgrounds\snow-home.png"
   inkscape:export-xdpi="90"
   inkscape:export-ydpi="90">
  <defs
     id="defs5860">
    <linearGradient
       inkscape:collect="always"
       id="linearGradient4001">
      <stop
         style="stop-color:#86aaaa;stop-opacity:1;"
         offset="0"
         id="stop4003" />
      <stop
         style="stop-color:#86aaaa;stop-opacity:0;"
         offset="1"
         id="stop4005" />
    </linearGradient>
    <linearGradient
       inkscape:collect="always"
       id="linearGradient3941">
      <stop
         style="stop-color:#86aaaa;stop-opacity:1;"
         offset="0"
         id="stop3943" />
      <stop
         style="stop-color:#86aaaa;stop-opacity:0;"
         offset="1"
         id="stop3945" />
    </linearGradient>
    <filter
       id="filter4850"
       inkscape:collect="always">
      <feGaussianBlur
         id="feGaussianBlur4852"
         stdDeviation="6.5600595"
         inkscape:collect="always" />
    </filter>
    <filter
       height="1.454145"
       y="-0.2270725"
       width="1.5089766"
       x="-0.25448832"
       id="filter4839"
       inkscape:collect="always">
      <feGaussianBlur
         id="feGaussianBlur4841"
         stdDeviation="5.6018114"
         inkscape:collect="always" />
    </filter>
    <filter
       height="1.8126333"
       y="-0.40631665"
       width="1.2714468"
       x="-0.13572342"
       id="filter4828"
       inkscape:collect="always">
      <feGaussianBlur
         id="feGaussianBlur4830"
         stdDeviation="13.459239"
         inkscape:collect="always" />
    </filter>
    <filter
       height="1.2561265"
       y="-0.12806323"
       width="2.1269569"
       x="-0.56347846"
       id="filter4820"
       inkscape:collect="always">
      <feGaussianBlur
         id="feGaussianBlur4822"
         stdDeviation="4.6264538"
         inkscape:collect="always" />
    </filter>
    <filter
       height="1.3329644"
       y="-0.1664822"
       width="2.465044"
       x="-0.732522"
       id="filter4816"
       inkscape:collect="always">
      <feGaussianBlur
         id="feGaussianBlur4818"
         stdDeviation="6.01439"
         inkscape:collect="always" />
    </filter>
    <linearGradient
       gradientTransform="matrix(0.931491,0,0,0.931491,48.548744,-4.6787076)"
       gradientUnits="userSpaceOnUse"
       y2="-362.04474"
       x2="942.74355"
       y1="-362.04474"
       x1="849.66357"
       id="linearGradient4796"
       xlink:href="#linearGradient4788"
       inkscape:collect="always" />
    <linearGradient
       gradientTransform="matrix(0.931491,0,0,0.931491,49.488083,-19.52795)"
       gradientUnits="userSpaceOnUse"
       y2="-91.266717"
       x2="942.74355"
       y1="-91.266717"
       x1="849.66357"
       id="linearGradient4794"
       xlink:href="#linearGradient4804"
       inkscape:collect="always" />
    <linearGradient
       gradientTransform="translate(-35.355339,4.9497475)"
       gradientUnits="userSpaceOnUse"
       y2="780.65637"
       x2="393.85849"
       y1="733.10345"
       x1="351.4321"
       id="linearGradient4775"
       xlink:href="#linearGradient4769"
       inkscape:collect="always" />
    <linearGradient
       gradientTransform="matrix(1.0376493,0,0,1.0453451,-20.091021,-36.240043)"
       gradientUnits="userSpaceOnUse"
       y2="800.36218"
       x2="386"
       y1="421.36218"
       x1="371"
       id="linearGradient4764"
       xlink:href="#linearGradient4758"
       inkscape:collect="always" />
    <linearGradient
       gradientTransform="matrix(1.1966814,0,0,1.2657239,-1313.9993,-1563.2734)"
       gradientUnits="userSpaceOnUse"
       y2="513.95087"
       x2="514.1676"
       y1="619.00677"
       x1="633.36572"
       id="linearGradient5287"
       xlink:href="#linearGradient5281"
       inkscape:collect="always" />
    <linearGradient
       id="linearGradient5281"
       inkscape:collect="always">
      <stop
         id="stop5283"
         offset="0"
         style="stop-color:#000000;stop-opacity:1" />
      <stop
         id="stop5285"
         offset="1"
         style="stop-color:#1b1b1b;stop-opacity:0.80088496" />
    </linearGradient>
    <linearGradient
       id="linearGradient4758"
       inkscape:collect="always">
      <stop
         id="stop4760"
         offset="0"
         style="stop-color:#456161;stop-opacity:1" />
      <stop
         id="stop4762"
         offset="1"
         style="stop-color:#9cb9b9;stop-opacity:0.15957446" />
    </linearGradient>
    <linearGradient
       id="linearGradient4769"
       inkscape:collect="always">
      <stop
         id="stop4771"
         offset="0"
         style="stop-color:#cccccc;stop-opacity:1;" />
      <stop
         id="stop4773"
         offset="1"
         style="stop-color:#5b5b5b;stop-opacity:1" />
    </linearGradient>
    <linearGradient
       id="linearGradient4788"
       inkscape:collect="always">
      <stop
         id="stop4790"
         offset="0"
         style="stop-color:#341500;stop-opacity:1" />
      <stop
         id="stop4792"
         offset="1"
         style="stop-color:#552200;stop-opacity:1" />
    </linearGradient>
    <linearGradient
       inkscape:collect="always"
       id="linearGradient4804">
      <stop
         style="stop-color:#361600;stop-opacity:1"
         offset="0"
         id="stop4806" />
      <stop
         style="stop-color:#552200;stop-opacity:1"
         offset="1"
         id="stop4808" />
    </linearGradient>
    <linearGradient
       inkscape:collect="always"
       xlink:href="#linearGradient4769"
       id="linearGradient4602"
       gradientUnits="userSpaceOnUse"
       gradientTransform="translate(-962.66282,-833.38313)"
       x1="351.4321"
       y1="733.10345"
       x2="393.85849"
       y2="780.65637" />
    <linearGradient
       inkscape:collect="always"
       xlink:href="#linearGradient4804"
       id="linearGradient4613"
       gradientUnits="userSpaceOnUse"
       gradientTransform="matrix(0.931491,0,0,0.931491,-788.8448,907.77953)"
       x1="849.66357"
       y1="-91.266717"
       x2="942.74355"
       y2="-91.266717" />
    <linearGradient
       inkscape:collect="always"
       xlink:href="#linearGradient4788"
       id="linearGradient4616"
       gradientUnits="userSpaceOnUse"
       gradientTransform="matrix(0.931491,0,0,0.931491,-789.78414,922.62877)"
       x1="849.66357"
       y1="-362.04474"
       x2="942.74355"
       y2="-362.04474" />
    <linearGradient
       inkscape:collect="always"
       xlink:href="#linearGradient5281"
       id="linearGradient4623"
       gradientUnits="userSpaceOnUse"
       gradientTransform="matrix(1.1966814,0,0,1.2657239,-386.69182,-724.94052)"
       x1="633.36572"
       y1="619.00677"
       x2="514.1676"
       y2="513.95087" />
    <linearGradient
       inkscape:collect="always"
       xlink:href="#linearGradient4758"
       id="linearGradient4627"
       gradientUnits="userSpaceOnUse"
       gradientTransform="matrix(1.0376493,0,0,1.0453451,-947.3985,-874.57292)"
       x1="371"
       y1="421.36218"
       x2="386"
       y2="800.36218" />
    <linearGradient
       inkscape:collect="always"
       xlink:href="#linearGradient5281-7"
       id="linearGradient4623-0"
       gradientUnits="userSpaceOnUse"
       gradientTransform="matrix(1.1966814,0,0,1.2657239,-386.69182,-724.94052)"
       x1="633.36572"
       y1="619.00677"
       x2="514.1676"
       y2="513.95087" />
    <linearGradient
       id="linearGradient5281-7"
       inkscape:collect="always">
      <stop
         id="stop5283-1"
         offset="0"
         style="stop-color:#000000;stop-opacity:1" />
      <stop
         id="stop5285-7"
         offset="1"
         style="stop-color:#1b1b1b;stop-opacity:0.80088496" />
    </linearGradient>
    <linearGradient
       y2="513.95087"
       x2="514.1676"
       y1="619.00677"
       x1="633.36572"
       gradientTransform="matrix(1.1966814,0,0,1.2657239,-1170.9566,-1537.9347)"
       gradientUnits="userSpaceOnUse"
       id="linearGradient4652"
       xlink:href="#linearGradient5281-7"
       inkscape:collect="always" />
    <linearGradient
       inkscape:collect="always"
       xlink:href="#linearGradient5281-73"
       id="linearGradient4623-7"
       gradientUnits="userSpaceOnUse"
       gradientTransform="matrix(1.1966814,0,0,1.2657239,-386.69182,-724.94052)"
       x1="633.36572"
       y1="619.00677"
       x2="514.1676"
       y2="513.95087" />
    <linearGradient
       id="linearGradient5281-73"
       inkscape:collect="always">
      <stop
         id="stop5283-3"
         offset="0"
         style="stop-color:#000000;stop-opacity:1" />
      <stop
         id="stop5285-5"
         offset="1"
         style="stop-color:#1b1b1b;stop-opacity:0.80088496" />
    </linearGradient>
    <linearGradient
       y2="513.95087"
       x2="514.1676"
       y1="619.00677"
       x1="633.36572"
       gradientTransform="matrix(1.1966814,0,0,1.2657239,-1136.5825,-1561.6833)"
       gradientUnits="userSpaceOnUse"
       id="linearGradient4725"
       xlink:href="#linearGradient5281-73"
       inkscape:collect="always" />
    <linearGradient
       inkscape:collect="always"
       xlink:href="#linearGradient3941"
       id="linearGradient3947"
       x1="536.52942"
       y1="772.32343"
       x2="524.42657"
       y2="775.51654"
       gradientUnits="userSpaceOnUse"
       gradientTransform="matrix(1.0638673,0,0,1.0642644,-40.5339,-66.084931)" />
    <linearGradient
       inkscape:collect="always"
       xlink:href="#linearGradient5281-73"
       id="linearGradient3970"
       gradientUnits="userSpaceOnUse"
       gradientTransform="matrix(-1.2731102,0,0,-1.3470649,1168.6389,1595.959)"
       x1="633.36572"
       y1="619.00677"
       x2="514.1676"
       y2="513.95087" />
    <linearGradient
       inkscape:collect="always"
       xlink:href="#linearGradient4001"
       id="linearGradient4007"
       x1="413.78436"
       y1="860.06073"
       x2="685.5011"
       y2="635.80688"
       gradientUnits="userSpaceOnUse" />
    <filter
       inkscape:collect="always"
       id="filter4096"
       x="-0.054624407"
       width="1.1092488"
       y="-0.10558611"
       height="1.2111722">
      <feGaussianBlur
         inkscape:collect="always"
         stdDeviation="15.480838"
         id="feGaussianBlur4098" />
    </filter>
  </defs>
  <sodipodi:namedview
     id="base"
     pagecolor="#ffffff"
     bordercolor="#666666"
     borderopacity="1.0"
     inkscape:pageopacity="0.0"
     inkscape:pageshadow="2"
     inkscape:zoom="0.35355339"
     inkscape:cx="280.84719"
     inkscape:cy="0.40269147"
     inkscape:document-units="px"
     inkscape:current-layer="layer1"
     showgrid="false"
     inkscape:window-width="1440"
     inkscape:window-height="838"
     inkscape:window-x="-8"
     inkscape:window-y="-8"
     inkscape:window-maximized="1" />
  <metadata
     id="metadata5863">
    <rdf:RDF>
      <cc:Work
         rdf:about="">
        <dc:format>image/svg+xml</dc:format>
        <dc:type
           rdf:resource="http://purl.org/dc/dcmitype/StillImage" />
        <dc:title></dc:title>
      </cc:Work>
    </rdf:RDF>
  </metadata>
  <g
     inkscape:label="Layer 1"
     inkscape:groupmode="layer"
     id="layer1"
     transform="translate(0,-452.36218)">
    <path
       sodipodi:nodetypes="ccccc"
       inkscape:connector-curvature="0"
       id="path3872"
       d="m -1106.5291,-82.855836 691.19094,0 0,1728.568936 -691.19094,0 z"
       style="fill:#ffffff;fill-opacity:1;stroke:#272727;stroke-width:1.68162549000000010;stroke-miterlimit:4;stroke-opacity:1;opacity:1"
       transform="matrix(0,-1,1,0,0,0)" />
    <path
       transform="matrix(0,-1,1,0,0,0)"
       style="fill:#b0ffff;fill-opacity:1;stroke:#272727;stroke-width:1.68162549000000010;stroke-miterlimit:4;stroke-opacity:1;opacity:0.34070796"
       d="m -1106.5291,-82.855836 691.19094,0 0,1728.568936 -691.19094,0 z"
       id="rect4588"
       inkscape:connector-curvature="0"
       sodipodi:nodetypes="ccccc" />
    <path
       sodipodi:nodetypes="ccccc"
       inkscape:connector-curvature="0"
       id="path4803"
       d="m -104.16891,1106.9165 -7e-5,-339.04591 1760.55078,10e-5 -1e-4,339.04561 z"
       style="fill:#f0f9f9;fill-opacity:1;stroke:none" />
    <path
       style="opacity:0.96460176;fill:#d9e7e7;fill-opacity:1"
       d="m 879.83431,551.38004 47.125,44.78125 62.89785,56.16964 21.16904,53.57143 -4.7169,117.23557 -14.1497,27.76515 -44.47717,15.53943 -226.37201,18.66363 -390.46722,-12.34217 0.85714,-175.57143 55.43309,-44.37053 96.86607,-68.57143 47.14286,-27.58482 74.42539,-15.1486 c 72.39655,-9.39088 139.62833,-13.70507 206.64124,-4.25321 z"
       id="rect3909"
       inkscape:connector-curvature="0"
       sodipodi:nodetypes="cccccccccccccccc" />
    <path
       style="fill:#000000;fill-opacity:1;stroke:none;opacity:0.13716814;filter:url(#filter4096)"
       d="m 713.8125,531.08093 c -17.23703,-4.49737 -8.11931,16.44629 -10.375,26.40146 -2.39286,6.91717 5.21615,23.67787 -4.59232,23.29683 -29.14631,0.46515 -58.29262,0.93031 -87.43893,1.39546 0,-14.16667 0,-28.33333 0,-42.5 -15.94577,-3.07407 -8.94779,13.79911 -10.40625,23.12105 2.94422,15.98847 -1.80056,24.37326 -19.60737,18.83369 -29.05539,-0.84966 -58.59066,-5.46225 -87.33977,-4.0891 -30.07771,12.62336 13.56712,9.86825 26.89203,12.37207 11.10802,0.27083 3.22261,18.9707 5.58636,27.72597 1.65229,14.66975 1.04767,27.15557 -18.02273,20.96965 -33.6098,0.25471 -67.96147,-2.66579 -101.10207,-0.89284 -10.77317,7.83231 -26.36702,13.6235 -17.60381,30.41425 6.86497,20.6684 2.40197,32.93292 -19.14244,27.95151 -12.15757,0 -24.31513,0 -36.4727,0 -3.70185,-0.66346 -1.25291,16.6966 -2.0207,22.90174 -0.25352,50.86608 -0.50703,101.73217 -0.76055,152.59826 13.77083,0.4375 27.54167,0.875 41.3125,1.3125 -16.31924,-4.78874 -45.80223,4.50759 -38.53125,-20.8094 0,-9.39687 0,-18.79373 0,-28.1906 30.6875,0 61.375,0 92.0625,0 0,16.89583 0,33.79167 0,50.6875 11.90557,2.74418 17.95148,-0.55925 14.84375,-13.30996 0,-12.45918 0,-24.91836 0,-37.37754 28.90522,3.32731 70.86961,-4.2869 92.03125,6.5929 0,15.8232 0,31.6464 0,47.4696 13.7087,4.57458 12.68195,-6.05896 11.875,-16.46565 0,-11.86562 0,-23.73123 0,-35.59685 28.90522,3.32731 70.86961,-4.2869 92.03125,6.5929 0,16.25029 0,32.50057 0,48.75085 22.05792,6.94081 10.75841,-20.62504 13.41428,-33.75384 -8.16918,-33.94808 36.96499,-13.05051 57.58181,-18.78132 17.72073,-0.0875 41.81885,-4.95929 34.39369,19.80389 -1.78456,10.2903 -0.44491,48.50833 8.61906,27.00437 2.46801,-20.71162 -10.23011,-56.21357 23.27241,-47.06216 20.42826,4.05532 59.00396,-10.53301 69,3.75668 0,13.90663 0,27.81325 0,41.71988 14.00137,3.2543 10.19537,-9.87248 10.46875,-19.24662 0,-9.59488 0,-19.18975 0,-28.78463 28.90522,3.30344 70.86965,-8.65053 92.03125,2.5929 0,12.3232 0,24.6464 0,36.9696 12.9841,1.17363 10.6516,-10.72605 10.4063,-19.8094 2.3211,-6.97125 -5.6751,-24.25971 6.1239,-21.7531 14.5107,0 29.0215,0 43.5323,0 6.9065,-12.69641 -7.228,-9.90192 -15.5281,-9.8125 -22.7615,0 -45.5229,0 -68.2844,0 0,-16.34375 0,-32.6875 0,-49.03125 29.0312,0 58.0625,0 87.0937,0 5.0186,-13.94924 -8.9548,-9.65327 -17.9653,-10.125 -11.6574,0 -23.3147,0 -34.9721,0 0,-16.34375 0,-32.6875 0,-49.03125 18.4479,0 36.8958,0 55.3437,0 0.514,-12.77235 -11.3771,-9.81381 -20.2159,-9.8125 -23.0948,0 -46.1896,0 -69.2844,0 0,-16.34375 0,-32.6875 0,-49.03125 21.2604,0 42.5209,0 63.7813,0 -10.6276,-16.83796 -49.6444,6.98339 -47.198,-19.18216 4.5037,-13.40815 -9.3868,-45.25935 -7.5633,-14.36702 3.0249,19.02674 0.2521,31.12949 -21.7701,25.38348 -20.67144,-4.31444 -57.52239,8.24236 -69.9677,-4.77084 0.10385,-14.81282 0.2077,-29.62564 0.31155,-44.43846 22.64663,-2.20314 67.72145,2.70311 77.01365,-5.00681 -22.35053,-14.45496 -55.7599,0.17834 -82.04313,-4.07441 -21.61519,8.04955 -16.42635,-10.9825 -16.75177,-24.38302 -0.0992,-10.17326 3.55413,-24.10479 -12,-21.03576 0,15.17708 0,30.35417 0,45.53125 -30.6875,0 -61.375,0 -92.0625,0 2e-4,-16.54157 -4e-4,-33.08393 3e-4,-49.625 z m 115.4375,58.5625 c -3.11371,20.50663 13.60434,61.30987 -22.53125,49.59375 -20.46134,-4.64888 -59.86747,9.37029 -69.77347,-6.655 0.0912,-14.3025 0.18231,-28.605 0.27347,-42.9075 30.67707,-0.0104 61.35427,-0.0207 92.03125,-0.0312 z m -99.3125,0.0312 c -2.80754,21.11622 12.23954,60.35121 -23.01562,49.24218 -20.43645,-4.65516 -59.02844,8.81446 -69.04688,-6.24105 0,-14.06288 0,-28.12575 0,-42.18863 30.6875,-0.27083 61.375,-0.54167 92.0625,-0.8125 z m -193,0.625 c 30.67708,0.125 61.35417,0.25 92.03125,0.375 0,16.0625 0,32.125 0,48.1875 -28.89282,-3.34462 -70.88438,6.39608 -92.03125,-4.6866 0,-14.6253 0,-29.2506 0,-43.8759 z m -138.4375,54.75 c 31.45061,1.11043 67.05122,0.012 96.03125,3.53097 0,15.83343 0,31.66685 0,47.50028 -30.67708,0 -61.35417,0 -92.03125,0 -0.0591,-17.0982 -3.94099,-33.93362 -4,-51.03125 z m 403.9375,1.28125 c 3.63977,7.4531 0.68937,19.16161 1.75715,28.27549 10.28091,32.43798 -25.45478,21.08612 -45.56583,22.98583 -14.66428,-3.34023 -41.18328,7.04523 -49.03606,-4.69685 0.63763,-15.35001 0.56231,-30.75276 1.71969,-46.06447 30.37463,-0.18493 60.75214,-0.22606 91.12505,-0.5 z m 12.75,0.0937 c 30.6771,0.20833 61.3542,0.41667 92.0313,0.625 0,16.34375 0,32.6875 0,49.03125 -29.42986,-2.76246 -68.92045,6.32936 -92.80278,-3.06445 0.4641,-15.43227 -0.72894,-31.59586 0.77148,-46.5918 z m -122.15625,0.5 c 8.69554,5.95752 8.56461,40.46296 3.21924,50.662 -30.12516,-0.50192 -60.25033,-1.00383 -90.37549,-1.50575 0,-16.29167 0,-32.58333 0,-48.875 29.05207,-0.0993 58.10427,-0.15575 87.15625,-0.28125 z m -188.125,0.125 c 30.6875,0.0625 61.375,0.125 92.0625,0.1875 0,16.28125 0,32.5625 0,48.84375 -30.6875,0 -61.375,0 -92.0625,0 0,-16.34375 0,-32.6875 0,-49.03125 z m 236.5625,56.71875 c 3.14339,11.70757 8.82506,45.65367 -1.90494,53.58873 -29.84385,-0.96095 -59.85883,-0.71364 -89.59506,-2.43248 1.88138,-22.09651 -11.49561,-60.64808 24.33053,-49.99991 22.38788,-0.48496 44.78308,-0.64139 67.16947,-1.15634 z m 11.5625,0.15625 c 27.39477,2.00146 59.70788,-1.70747 84.36329,3.49967 -0.1211,15.83345 -0.24219,31.66689 -0.36329,47.50033 -28.13866,-0.2586 -58.05669,3.68736 -85.1875,0.8125 0.17465,-16.9721 -1.49913,-34.29409 -0.1208,-51.04008 l 1.15205,-0.74117 0.15625,-0.0312 0,-5e-5 z m 97.375,1.75 c 28.89282,3.38389 70.88435,-6.29978 92.03125,4.81165 0,14.81279 0,29.62557 0,44.43835 -30.6771,0 -61.35417,0 -92.03125,0 0.072,-16.386 -0.43834,-33.01526 0,-49.25 z m -215.9375,0.0312 c 1.7894,9.11287 10.02581,46.23935 -3.56141,49.39378 -28.63578,-0.0583 -57.27156,-0.11659 -85.90734,-0.17488 0,-16.34375 0,-32.6875 0,-49.03125 29.8225,-0.0954 59.64774,0.009 89.46875,-0.18765 z m -300.28125,0.1875 c 30.6875,0 61.375,0 92.0625,0 0,16.34375 0,32.6875 0,49.03125 -30.6875,0 -61.375,0 -92.0625,0 0,-16.34375 0,-32.6875 0,-49.03125 z m 106.90625,0 c 30.67708,0 61.35417,0 92.03125,0 0,16.34375 0,32.6875 0,49.03125 -30.67708,0 -61.35417,0 -92.03125,0 0,-16.34375 0,-32.6875 0,-49.03125 z m 256.125,58.4689 c 2.21324,12.86296 6.73191,46.69729 -4.47852,52.43653 -26.42827,-5.1279 -70.82853,8.82374 -86.86523,-6.84165 0.12406,-14.87711 -0.24435,-29.78612 0.17719,-44.64395 30.33035,-0.81831 60.79019,-0.48442 91.16656,-0.95093 z m 16.40625,0.25 c 28.79498,2.34207 66.29408,-3.71783 89.69141,3.95606 -3.55296,20.76047 11.9808,60.8309 -23.19124,49.85012 -21.0957,-4.01981 -57.10676,6.96098 -68.51167,-6.45611 2.9628,-12.37397 -7.26167,-40.32993 2.0115,-47.35007 z m -379.4375,0.4375 c 19.30208,0 38.60417,0 57.90625,0 0,16.34375 0,32.6875 0,49.03125 -19.30208,0 -38.60417,0 -57.90625,0 0,-16.34375 0,-32.6875 0,-49.03125 z m 68.3125,0 c 30.67708,0 61.35417,0 92.03125,0 0,16.34375 0,32.6875 0,49.03125 -30.67708,0 -61.35417,0 -92.03125,0 0,-16.34375 0,-32.6875 0,-49.03125 z m 102.40625,0 c 30.6875,0 61.375,0 92.0625,0 0,17.01042 0,34.02083 0,51.03125 -28.91559,-3.32734 -70.8905,4.28701 -92.0625,-6.5929 0,-14.81279 0,-29.62557 0,-44.43835 z m 402.31255,0 c 0,17.01042 0,34.02083 0,51.03125 -30.8021,0.44792 -61.6042,0.89583 -92.4063,1.34375 3.19929,-15.86588 -5.94809,-44.17254 4.9679,-52.34531 29.14612,-0.01 58.29237,-0.0197 87.4384,-0.0297 z"
       id="rect3909-2"
       inkscape:connector-curvature="0" />
    <path
       id="path4010"
       style="fill:#e4f4f4;fill-opacity:1;stroke:#bbcfcf;stroke-width:5;stroke-miterlimit:4;stroke-opacity:1;stroke-dasharray:none"
       d="m 610.82474,533.94634 c 0,16.46875 0,32.9375 0,49.40625 30.67708,-0.48958 61.35417,-0.97917 92.03125,-1.46875 0,-16.34375 0,-40.6875 0,-57.03125 -30.67708,0.36458 -61.35417,8.72917 -92.03125,9.09375 z m 102.40625,47.9375 c 30.6875,0 61.375,0 92.0625,0 0,-16.34375 0,-32.6875 0,-49.03125 -30.6875,0 -61.375,-8 -92.0625,-8 0,16.34375 0,40.6875 0,57.03125 z m 104.0625,0 c 33.96875,0.0521 73.9375,-1.89583 107.90625,-1.84375 -14.66667,-12.35417 -35.33333,-22.70833 -50,-35.0625 -19.30208,-4.04167 -38.60417,-8.08333 -57.90625,-12.125 0,16.34375 0,32.6875 0,49.03125 z M 538.47163,551.67603 c -16.90942,7.63893 -29.95939,16.81198 -45.95939,26.20781 35.30208,0.52083 72.60417,5.04167 107.90625,5.5625 0,-16.46875 0,-32.9375 0,-49.40625 -19.30208,6.55208 -43.37064,9.24404 -61.94686,17.63594 z m 198.16561,39.17656 c -0.10417,16.34375 -0.20833,32.6875 -0.3125,49.03125 1.05314,0.51487 2.488,0.13962 3.69101,0.30502 14.53081,0.27286 29.06617,0.34473 43.59934,0.32201 15.0178,-0.0632 30.0356,-0.12635 45.0534,-0.18953 0.89548,-0.74986 0.22053,-2.1426 0.41478,-3.17951 -0.14856,-15.43585 -0.21474,-30.90622 -0.41478,-46.32049 -30.67708,0.0104 -61.35417,0.0208 -92.03125,0.0312 z m -346.71875,47.03125 c 44.01042,0 92.02083,2 136.03125,2 0,-16.20833 0,-32.41667 0,-48.625 -17.34375,-0.13542 -36.6875,-4.27083 -54.03125,-4.40625 -40.54521,12.37845 -59.0224,33.63348 -82,51.03125 z m 247.375,-46.21875 c 0,16.10417 0,32.20833 0,48.3125 30.6875,0.0521 61.375,0.10417 92.0625,0.15625 0.38521,-1.20462 0.0528,-2.75812 0.21546,-4.02185 -0.11847,-15.0862 -0.18589,-30.17271 -0.21546,-45.2594 -30.6875,0.27083 -61.375,0.54167 -92.0625,0.8125 z m 301.4375,48.21875 c 0.83027,0.74034 2.20813,0.15446 3.26865,0.33714 14.20212,3.38762 23.90423,0.77524 45.10635,2.66286 -16.4858,-18.42102 -26.8517,-39.51398 -50,-53.9375 0.1102,20.03242 0.72954,39.64399 1.625,50.93755 z m -402.375,0.0625 c 30.67708,0.0312 61.35417,0.0625 92.03125,0.0937 0,-16.0625 0,-32.125 0,-48.1875 -30.67708,-0.125 -61.35417,-0.25 -92.03125,-0.375 0,16.15625 0,32.3125 0,48.46875 z m 174.375,8.0625 c -0.63941,2.16785 -0.27713,4.60609 -0.52779,6.88236 -0.42823,14.08088 -0.85647,28.16176 -1.28471,42.24264 0.43665,2.12849 3.07793,2.04019 4.77186,1.87398 16.90666,-0.075 33.81341,-0.16338 50.71983,-0.28028 12.77451,-0.0949 25.54767,-0.29671 38.32081,-0.49995 1.33236,-0.83018 0.91707,-2.67691 1,-4.03125 -0.0554,-4.99959 -0.0141,-10.00726 -0.0857,-15.01183 -0.0756,-10.31898 -0.15119,-20.63795 -0.22679,-30.95692 -0.73925,-1.20678 -2.26763,-0.49461 -3.42957,-0.67353 -29.75264,0.15159 -59.50529,0.30319 -89.25794,0.45478 z m 103.25,0.21875 c -0.0521,16.34375 -0.10417,32.6875 -0.15625,49.03125 0.78663,1.18746 2.4117,0.52847 3.6232,0.7416 29.72899,-0.24117 59.45965,-0.49274 89.1893,-0.7416 0,-16.34375 0,-32.6875 0,-49.03125 -30.67708,-0.20833 -61.35417,-0.41667 -92.03125,-0.625 -0.20833,0.20833 -0.41667,0.41667 -0.625,0.625 z m -121.53125,-0.125 c -29.05175,0.1255 -58.10422,0.18193 -87.15625,0.28125 0,16.29167 0,32.58333 0,48.875 30.63542,0.51042 61.27083,1.02083 91.90625,1.53125 1.93815,-0.46094 1.70783,-2.76914 1.54931,-4.29826 -0.35309,-15.42295 -0.80734,-30.8433 -1.23681,-46.26424 -1.68205,-0.13369 -3.37579,-0.17758 -5.0625,-0.125 z m -358.84375,40.125 c 0,3.01042 0,6.02083 0,9.03125 19.30208,0 38.60417,0 57.90625,0 0,-16.34375 -4,-34.6875 -4,-51.03125 -22.78103,6.73959 -37.76932,22.66768 -53.90625,42 z m 68.3125,9.03125 c 30.67708,0 61.35417,0 92.03125,0 0,-16.34375 0,-32.6875 0,-49.03125 -30.67708,0 -65.35417,-2 -96.03125,-2 0,16.34375 4,34.6875 4,51.03125 z m 102.40625,0 c 30.6875,0 61.375,0 92.0625,0 0,-16.28125 0,-32.5625 0,-48.84375 -30.6875,-0.0625 -61.375,-0.125 -92.0625,-0.1875 0,16.34375 0,32.6875 0,49.03125 z m 417.15625,0 c 30.67708,0 63.35417,0 94.03121,0 -6.6667,-16.34375 -15.3333,-32.6875 -21.99996,-49.03125 -24.01042,0 -48.02083,0 -72.03125,0 0,16.34375 0,32.6875 0,49.03125 z m -181.125,7.71875 c -25.38152,0.5258 -50.76935,0.69013 -76.14881,1.32573 -4.79415,0.0998 -9.58829,0.19951 -14.38244,0.29927 -0.94326,1.40432 -0.23103,3.23692 -0.47376,4.82027 -0.10128,14.89309 -0.1257,29.78697 0.0363,44.67973 1.38329,1.01277 3.23601,0.27631 4.82006,0.55152 29.27873,0.64949 58.55746,1.29899 87.83619,1.94848 2.02623,-0.46245 1.76899,-2.9567 1.69136,-4.55309 0.14479,-15.68748 0.32066,-31.39583 0.18364,-47.07191 -0.32235,-1.54353 -2.13256,-2.19679 -3.5625,-2 z m 11.9375,0.15625 c -1.98205,0.58468 -2.04182,2.99095 -1.80948,4.68278 0.25941,15.69949 0.51882,31.39898 0.77823,47.09847 0.59615,1.90701 2.94362,1.43527 4.45929,1.27377 26.91362,-0.52067 53.82006,-1.34399 80.72821,-2.08627 0.125,-16.34375 0.25,-32.6875 0.375,-49.03125 -0.82546,-0.78844 -2.22548,-0.22616 -3.29938,-0.43055 -27.02522,-0.51214 -54.05038,-1.02903 -81.07562,-1.5382 l -0.15625,0.0312 z m 97.3125,1.9375 c 0.0729,16.34375 0.14583,32.6875 0.21875,49.03125 30.67708,0 61.35417,0 92.03125,0 0,-16.34375 0,-32.6875 0,-49.03125 -30.67708,-0.0729 -61.35417,-0.14583 -92.03125,-0.21875 l -0.12926,0.12926 -0.0895,0.0895 z m -218.4375,-0.125 c -28.91616,0.0575 -57.83342,0.0699 -86.75,0.125 0,16.34375 0,32.6875 0,49.03125 30.67708,0.0625 61.35417,0.125 92.03125,0.1875 0.40147,-4.11542 0.11661,-8.26581 0.21567,-12.39675 -0.009,-12.274 -0.0188,-24.548 -0.0282,-36.822 -1.81501,-0.23538 -3.64463,-0.21013 -5.46875,-0.125 z m -297.5625,49.15625 c 30.6875,0 61.375,0 92.0625,0 0,-16.34375 0,-32.6875 0,-49.03125 -30.6875,0 -61.375,0 -92.0625,0 0,16.34375 0,32.6875 0,49.03125 z m 106.90625,0 c 30.67708,0 61.35417,0 92.03125,0 0,-16.34375 0,-32.6875 0,-49.03125 -30.67708,0 -61.35417,0 -92.03125,0 0,16.34375 0,32.6875 0,49.03125 z m 515.125,0 c 19.29167,0 40.58333,0 59.87496,0 0,-16.34375 0,-32.6875 0,-49.03125 -19.29163,0 -40.58329,0 -59.87496,0 0,16.34375 0,32.6875 0,49.03125 z m -260,9.46875 c -29.64571,0.23504 -59.29155,0.45379 -88.9375,0.65625 -1.01884,-0.56584 -1.78989,0.72666 -1.40625,1.625 0,15.80208 0,33.60417 0,49.40625 30.88542,0.95833 61.77083,-0.0833 92.65625,0.875 0.38122,-17.05173 0.74577,-34.10381 1.09375,-51.15625 -0.33287,-1.54153 -2.18218,-1.4885 -3.40625,-1.40625 z m 15.25,0.25 c -1.95758,0.94179 -1.06465,3.44618 -1.10954,5.14195 0.43255,16.06849 0.99111,32.13326 1.42204,48.2018 30.37582,-0.5157 60.75013,0.88146 91.125,0.3125 0.14583,-16.97917 0.29167,-35.95833 0.4375,-52.9375 -29.90019,-0.21528 -59.80001,-0.55365 -89.69994,-0.74214 -0.72502,0.008 -1.45004,0.0156 -2.17506,0.0234 z m -377.28125,49.4375 c 19.30208,0 38.60417,0 57.90625,0 0,-16.34375 0,-32.6875 0,-49.03125 -19.30208,0 -38.60417,0 -57.90625,0 0,16.34375 0,32.6875 0,49.03125 z m 68.3125,0 c 30.67708,0 61.35417,0 92.03125,0 0,-16.34375 0,-32.6875 0,-49.03125 -30.67708,0 -61.35417,0 -92.03125,0 0,16.34375 0,32.6875 0,49.03125 z m 102.40625,0 c 30.6875,0 61.375,2 92.0625,2 0,-16.34375 0,-34.6875 0,-51.03125 -30.6875,0 -61.375,0 -92.0625,0 0,16.34375 0,32.6875 0,49.03125 z m 310.28125,-49 c -0.18574,16.78075 -0.26832,35.56237 -0.375,52.34375 30.80208,-0.44792 61.60417,-0.89583 92.40625,-1.34375 0,-16.34375 0,-34.6875 0,-51.03125 -30.67708,0.0104 -61.35417,0.0208 -92.03125,0.0312 z m 106.875,49 c 30.67708,0 61.35417,0 92.03121,0 0,-16.34375 2,-32.6875 2,-49.03125 -30.67704,0 -63.35413,0 -94.03121,0 0,16.34375 0,32.6875 0,49.03125 z m -587.875,54.84375 c 30.6875,1.33333 61.375,8.66667 92.0625,10 0,-16.34375 0,-38.6875 0,-55.03125 -30.6875,0 -61.375,0 -92.0625,0 0,15.01042 0,30.02083 0,45.03125 z m 106.90625,10 c 30.67708,0 61.35417,4 92.03125,4 0,-16.34375 0,-40.6875 0,-57.03125 -30.67708,0 -61.35417,-2 -92.03125,-2 0,16.34375 0,38.6875 0,55.03125 z m 103.90625,4 c 30.67708,0 61.35417,2 92.03125,2 0,-16.34375 0,-40.6875 0,-57.03125 -30.67708,0 -61.35417,-2 -92.03125,-2 0,16.34375 0,40.6875 0,57.03125 z m 308.78125,-8 c 30.67708,-0.66667 61.35417,-7.33333 92.03125,-8 0,-14.34375 0,-28.6875 0,-43.03125 -30.67708,0 -61.35417,2 -92.03125,2 0,15.01042 0,34.02083 0,49.03125 z m 102.4375,-8 c 14.23958,-4.71875 28.47917,-9.4375 42.71875,-14.15625 5.05201,-9.625 10.10411,-19.25 15.15621,-28.875 -19.29163,0 -38.58329,0 -57.87496,0 0,14.34375 0,28.6875 0,43.03125 z m -305.8125,18 c 30.58333,0.53125 61.16667,-0.9375 91.75,-0.40625 0.13542,-15.01042 0.27083,-40.02083 0.40625,-55.03125 -30.69792,-1.82292 -61.39583,0.35417 -92.09375,-1.46875 -0.0208,16.30208 -0.0417,40.60417 -0.0625,56.90625 z m 100.90625,-55.4375 c -0.11458,15.01042 -0.22917,40.02083 -0.34375,55.03125 30.78125,-1.84375 61.5625,-7.6875 92.34375,-9.53125 0,-14.96875 0,-33.9375 0,-48.90625 -30.66667,1.80208 -61.33333,1.60417 -92,3.40625 z m 88,-190.78125 c 0.83027,0.74034 2.20813,0.15446 3.26865,0.33714 29.66691,-0.0671 59.33381,-0.13416 89.00072,-0.20124 -0.96479,-19.0453 -0.39437,-30.2609 0.10563,-51.0734 -30.67708,-0.0312 -61.35417,1.9375 -92.03125,1.9063 -0.11458,16.34375 -0.22917,32.6875 -0.34375,49.03125 z" />
    <path
       sodipodi:nodetypes="cccccccc"
       inkscape:connector-curvature="0"
       id="path3162"
       d="m 389.81766,694.56192 -35.3356,22.85318 -38.26646,46.02323 -4.1986,151.6182 c 75.00708,3.62181 172.79614,16.23067 248.45162,0.82012 20.39649,-10.95711 40.10247,-22.19053 46.44921,-38.76964 0,0 14.82667,-122.46597 -26.82994,-166.19639 -31.31777,-13.92139 -96.99235,-29.26999 -190.27023,-16.3487 z"
       style="fill:#e4f4f4;fill-opacity:1;stroke:url(#linearGradient4007);stroke-width:6.57698298000000040;stroke-miterlimit:4;stroke-opacity:0.56382979000000000;stroke-dasharray:none" />
    <path
       style="fill:#cef4f4;fill-opacity:1;stroke:none"
       d="m 182.54898,1214.3858 1655.12282,0 0,187.6215 -1655.12282,0 z"
       id="rect6954"
       inkscape:connector-curvature="0"
       inkscape:transform-center-x="-3.0271585"
       inkscape:transform-center-y="-921.60296" />
    <rect
       style="fill:#ffffff;fill-opacity:1;stroke:none"
       id="rect4778"
       width="978.6358"
       height="793.37378"
       x="-998.01819"
       y="-494.4917" />
    <rect
       style="opacity:0.47345132;fill:#698383;fill-opacity:1;stroke:none"
       id="rect3551"
       width="820"
       height="510"
       x="-931.3075"
       y="-404.9707" />
    <path
       id="rect4454"
       style="fill:#ffffff;fill-opacity:0.64705882;stroke:#606060;stroke-width:1.92936754;stroke-miterlimit:4;stroke-opacity:0.20744683"
       d="m -440.77822,-124.38201 110.00204,0 0,-58.7966 -110.00204,0 z m 63.87054,70.5522 -110.00203,0 0,-58.7965 110.00203,0 z m -63.87054,70.9325 110.00204,0 0,-58.7965 -110.00204,0 z m 63.87054,70.5523 -110.00203,0 0,-58.7966 110.00203,0 z m 123.7168,-58.7854 -110.00204,0 0,58.7965 110.00204,0 z m 127.74481,0 -110.00203,0 0,58.7965 110.00203,0 z m -69.19574,-70.5521 69.19484,0 0,58.7965 -69.19484,0 z m -122.41967,0 110.00203,0 0,58.7965 -110.00203,0 z m 63.8706,-70.9327 -110.00204,0 0,58.7966 110.00204,0 z m 127.74481,0 -110.00203,0 0,58.7966 110.00203,0 z m -69.19574,-70.5521 69.19484,0 0,58.7966 -69.19484,0 z m -122.41967,0 110.00203,0 0,58.7966 -110.00203,0 z m -503.71674,58.7853 110.00204,0 0,-58.7966 -110.00204,0 z m -127.74476,0 110.00204,0 0,-58.7966 -110.00204,0 z m 69.19567,70.5522 -69.19484,0 0,-58.7965 69.19484,0 z m 122.4197,0 -110.00204,0 0,-58.7965 110.00204,0 z m -63.87061,70.9325 110.00204,0 0,-58.7965 -110.00204,0 z m -127.74476,0 110.00204,0 0,-58.7965 -110.00204,0 z m 69.19567,70.5523 -69.19484,0 0,-58.7966 69.19484,0 z m 122.4197,0 -110.00204,0 0,-58.7966 110.00204,0 z m 123.71673,-58.7854 -110.00204,0 0,58.7965 110.00204,0 z m 64.68208,-0.019 0,0.031 -46.9375,0 0,58.7812 46.9375,0 63.0625,0 6.125,0 0,-58.8125 -69.1875,0 z m -6.125,-70.5313 0,58.7813 6.125,0 63.0625,0 46.9375,0 0,-58.7813 -46.9375,0 -63.0625,0 -6.125,0 z m -122.42762,0 110.00203,0 0,58.7965 -110.00203,0 z m 63.87054,-70.9327 -110.00204,0 0,58.7966 110.00204,0 z m 17.74458,0 0,58.8125 110,0 0,-0.031 6.125,0 0,-58.7812 -6.125,0 -63.0625,0 -46.9375,0 z m 40.8125,-70.5625 0,58.8125 6.125,0 63.0625,0 46.9375,0 0,-58.8125 -46.9375,0 -63.0625,0 -6.125,0 z m -122.42762,0.013 110.00203,0 0,58.7966 -110.00203,0 z"
       inkscape:connector-curvature="0" />
    <rect
       inkscape:export-ydpi="90.759377"
       inkscape:export-xdpi="90.759377"
       inkscape:export-filename="C:\Users\Jake\Desktop\LD\scene1.png"
       style="fill:#000000;fill-opacity:1;stroke:none;filter:url(#filter4839)"
       id="rect4833"
       width="52.828938"
       height="59.207291"
       x="-616.60486"
       y="-105.83709" />
    <path
       inkscape:connector-curvature="0"
       d="m -470.9793,-404.88201 119.49101,0 0,-58.7966 -119.49101,0 z m 69.38013,70.5522 -119.491,0 0,-58.7965 119.491,0 z m -69.38013,70.9325 119.49101,0 0,-58.7965 -119.49101,0 z m 69.38013,70.5523 -119.491,0 0,-58.7966 119.491,0 z m 134.38882,-58.7854 -119.49101,0 0,58.7965 119.49101,0 z m 138.76429,0 -119.49099,0 0,58.7965 119.49099,0 z m -75.16468,-70.5521 75.1637,0 0,58.7965 -75.1637,0 z m -132.9798,0 119.49099,0 0,58.7965 -119.49099,0 z m 69.38019,-70.9327 -119.49101,0 0,58.7966 119.49101,0 z m 138.76429,0 -119.49099,0 0,58.7966 119.49099,0 z m -75.16468,-70.5521 75.1637,0 0,58.7966 -75.1637,0 z m -132.9798,0 119.49099,0 0,58.7966 -119.49099,0 z m -547.1682,58.7853 119.491,0 0,-58.7966 -119.491,0 z m 69.3802,70.5522 -119.49101,0 0,-58.7965 119.49101,0 z m -69.3802,70.9325 119.491,0 0,-58.7965 -119.491,0 z m 69.3802,70.5523 -119.49101,0 0,-58.7966 119.49101,0 z m 134.38874,-58.7854 -119.491,0 0,58.7965 119.491,0 z m 70.26167,-0.019 0,0.031 -50.98641,0 0,58.7812 50.98641,0 68.50238,0 6.65335,0 0,-58.8125 -75.15573,0 z m -6.65335,-70.5313 0,58.7813 6.65335,0 68.50238,0 50.9864,0 0,-58.7813 -50.9864,0 -68.50238,0 z m -132.98844,0 119.49099,0 0,58.7965 -119.49099,0 z m 69.38012,-70.9327 -119.491,0 0,58.7966 119.491,0 z m 19.27526,0 0,58.8125 119.48879,0 0,-0.031 6.65335,0 0,-58.7812 -6.65335,0 -68.50238,0 -50.98641,0 z m 44.33306,-70.5625 0,58.8125 6.65335,0 68.50238,0 50.9864,0 0,-58.8125 -50.9864,0 -68.50238,0 z m -132.98844,0.013 119.49099,0 0,58.7966 -119.49099,0 z"
       style="fill:#ffffff;fill-opacity:0.64705882;stroke:#606060;stroke-width:1.92936754;stroke-miterlimit:4;stroke-opacity:0.20744683"
       id="path4767"
       sodipodi:nodetypes="cccccccccccccccccccccccccccccccccccccccccccccccccccccccccccccccccccccccccccccccccccccccccccccccccccccccccccccccccccccccccccccccccccccccccc" />
    <rect
       style="opacity:0.7522124;fill:#cef4f4;fill-opacity:1;stroke:none"
       id="rect4371"
       width="825.82831"
       height="467.91415"
       x="-944.88989"
       y="-381.59338"
       inkscape:export-filename="C:\Users\Jake\Desktop\LD\scene1.png"
       inkscape:export-xdpi="90.759377"
       inkscape:export-ydpi="90.759377" />
    <rect
       y="-396.45056"
       x="-944.88989"
       height="484.11517"
       width="826.82831"
       id="rect5265"
       style="fill:url(#linearGradient4627);fill-opacity:1;stroke:none"
       inkscape:export-filename="C:\Users\Jake\Desktop\LD\scene1.png"
       inkscape:export-xdpi="90.759377"
       inkscape:export-ydpi="90.759377" />
    <rect
       style="fill:#800000;fill-opacity:1;stroke:none"
       id="rect5269"
       width="801.6684"
       height="129.58206"
       x="-927.3075"
       y="84.447212"
       inkscape:export-filename="C:\Users\Jake\Desktop\LD\scene1.png"
       inkscape:export-xdpi="90.759377"
       inkscape:export-ydpi="90.759377" />
    <rect
       style="fill:url(#linearGradient4623);fill-opacity:1;stroke:none"
       id="rect5279"
       width="141.67514"
       height="154.13052"
       x="224.85582"
       y="-84.777046"
       transform="scale(-1,-1)"
       inkscape:export-filename="C:\Users\Jake\Desktop\LD\scene1.png"
       inkscape:export-xdpi="90.759377"
       inkscape:export-ydpi="90.759377" />
    <path
       sodipodi:nodetypes="ccccccccccccc"
       inkscape:connector-curvature="0"
       id="path4848"
       d="m 521.71875,736.44895 0,42.1875 -11.1875,0 0,141.6875 54.40625,0 0,-129.46875 c 54.52811,-14.43237 87.31983,-6.22469 119.6875,0 l 0,130.6875 54.375,0 0,-141.6875 -10.78125,0 0,-43.40625 c -54.19302,-12.81028 -101.06346,-32.02781 -206.5,0 z"
       style="opacity:0.12831858;fill:#000000;fill-opacity:1;stroke:none;filter:url(#filter4850)"
       transform="matrix(1.0461616,0,0,1.0461616,-954.14758,-876.19601)"
       inkscape:export-xdpi="90"
       inkscape:export-ydpi="90" />
    <path
       style="fill:#cef4f4;fill-opacity:1;stroke:#86aaaa;stroke-width:6.57698298;stroke-miterlimit:4;stroke-opacity:0.56382979;stroke-dasharray:none"
       d="m -403.58873,-99.88393 0,42.1875 -11.1875,0 0,141.6875 54.40625,0 0,-129.46875 c 54.52811,-14.43237 87.31983,-6.22469 119.6875,0 l 0,130.6875 54.375,0 0,-141.6875 -10.78125,0 0,-43.40625 c -54.19302,-12.81028 -101.06346,-32.02781 -206.5,0 z"
       id="rect5273"
       inkscape:connector-curvature="0"
       sodipodi:nodetypes="ccccccccccccc" />
    <rect
       y="-84.184624"
       x="-753.13025"
       height="75.551926"
       width="100.33295"
       id="rect5315"
       style="fill:#000000;fill-opacity:1;stroke:none"
       inkscape:export-filename="C:\Users\Jake\Desktop\LD\scene1.png"
       inkscape:export-xdpi="90.759377"
       inkscape:export-ydpi="90.759377" />
    <path
       style="opacity:0.64159324;fill:#000000;fill-opacity:1;stroke:none;filter:url(#filter4828)"
       d="m -838.30748,12.0293 274,0 0,78 -274,0 z"
       id="rect4826"
       inkscape:connector-curvature="0"
       sodipodi:nodetypes="ccccc" />
    <rect
       inkscape:export-ydpi="90.759377"
       inkscape:export-xdpi="90.759377"
       inkscape:export-filename="C:\Users\Jake\Desktop\LD\scene1.png"
       y="575.53473"
       x="1.6699276"
       height="19.705259"
       width="86.703178"
       id="rect4786"
       style="fill:url(#linearGradient4616);fill-opacity:1;stroke:none"
       transform="matrix(0,1,-1,0,0,0)" />
    <rect
       inkscape:export-ydpi="90.759377"
       inkscape:export-xdpi="90.759377"
       inkscape:export-filename="C:\Users\Jake\Desktop\LD\scene1.png"
       transform="matrix(0,1,-1,0,0,0)"
       style="fill:url(#linearGradient4613);fill-opacity:1;stroke:none"
       id="rect4784"
       width="86.703178"
       height="19.705259"
       x="2.6093197"
       y="812.91278" />
    <path
       style="fill:#401800;fill-opacity:1;stroke:none"
       d="m -860.21743,8.61075 321.54901,0 -20.5061,-11.37237 -279.1226,0 z"
       id="rect4780"
       inkscape:connector-curvature="0"
       sodipodi:nodetypes="ccccc" />
    <rect
       style="fill:#000000;fill-opacity:1;stroke:none"
       id="rect5317"
       width="20.550121"
       height="66.485687"
       x="-730.16254"
       y="-64.238884"
       inkscape:export-filename="C:\Users\Jake\Desktop\LD\scene1.png"
       inkscape:export-xdpi="90.759377"
       inkscape:export-ydpi="90.759377" />
    <rect
       y="638.89581"
       x="-4.4017277"
       height="66.485687"
       width="6.6485682"
       id="rect5319"
       style="fill:#000000;fill-opacity:1;stroke:none"
       transform="matrix(0,1,-1,0,0,0)"
       inkscape:export-filename="C:\Users\Jake\Desktop\LD\scene1.png"
       inkscape:export-xdpi="90.759377"
       inkscape:export-ydpi="90.759377" />
    <rect
       style="fill:#808080;fill-opacity:1;stroke:none"
       id="rect5378"
       width="93.079971"
       height="71.92543"
       x="-749.50378"
       y="-82.371391"
       inkscape:export-filename="C:\Users\Jake\Desktop\LD\scene1.png"
       inkscape:export-xdpi="90.759377"
       inkscape:export-ydpi="90.759377" />
    <rect
       y="-74.964287"
       x="-713.23004"
       height="38.064434"
       width="49.259853"
       id="rect5380"
       style="fill:#1a1a1a;fill-opacity:1;stroke:none"
       inkscape:export-filename="C:\Users\Jake\Desktop\LD\scene1.png"
       inkscape:export-xdpi="90.759377"
       inkscape:export-ydpi="90.759377" />
    <rect
       style="fill:#333333;fill-opacity:1;stroke:none"
       id="rect5406"
       width="49.259853"
       height="38.064434"
       x="-740.36902"
       y="-57.655144"
       inkscape:export-filename="C:\Users\Jake\Desktop\LD\scene1.png"
       inkscape:export-xdpi="90.759377"
       inkscape:export-ydpi="90.759377" />
    <rect
       y="-82.443474"
       x="-749.77155"
       height="2.3776841"
       width="93.28064"
       id="rect5408"
       style="fill:#333333;fill-opacity:1;stroke:none"
       inkscape:export-filename="C:\Users\Jake\Desktop\LD\scene1.png"
       inkscape:export-xdpi="90.759377"
       inkscape:export-ydpi="90.759377" />
    <path
       style="fill:none;stroke:#000000;stroke-width:1px;stroke-linecap:butt;stroke-linejoin:miter;stroke-opacity:1"
       d="m -599.09605,-104.83647 9.34593,-16.18761 10.42868,18.06301"
       id="path3848"
       inkscape:connector-curvature="0" />
    <rect
       y="-103.83709"
       x="-614.82031"
       height="55.207291"
       width="49.259853"
       id="rect5412"
       style="fill:url(#linearGradient4602);fill-opacity:1;stroke:#4c2e00;stroke-width:3;stroke-miterlimit:4;stroke-opacity:1;stroke-dasharray:none"
       inkscape:export-filename="C:\Users\Jake\Desktop\LD\scene1.png"
       inkscape:export-xdpi="90.759377"
       inkscape:export-ydpi="90.759377" />
    <rect
       style="fill:#ffd9a3;fill-opacity:1;stroke:none"
       id="rect5414"
       width="11.7262"
       height="12.284591"
       x="-605.25305"
       y="-88.749931"
       inkscape:export-filename="C:\Users\Jake\Desktop\LD\scene1.png"
       inkscape:export-xdpi="90.759377"
       inkscape:export-ydpi="90.759377" />
    <rect
       style="fill:#000080;fill-opacity:1;stroke:none"
       id="rect5416"
       width="12.005395"
       height="18.426886"
       x="-604.97388"
       y="-73.952629"
       inkscape:export-filename="C:\Users\Jake\Desktop\LD\scene1.png"
       inkscape:export-xdpi="90.759377"
       inkscape:export-ydpi="90.759377" />
    <rect
       style="fill:#000000;fill-opacity:1;stroke:none"
       id="rect5418"
       width="7.8175335"
       height="9.4926291"
       x="-582.63824"
       y="-63.064018"
       inkscape:export-filename="C:\Users\Jake\Desktop\LD\scene1.png"
       inkscape:export-xdpi="90.759377"
       inkscape:export-ydpi="90.759377" />
    <rect
       style="fill:#ffffff;fill-opacity:1;stroke:#000000;stroke-width:0.2;stroke-miterlimit:4;stroke-opacity:1;stroke-dasharray:none"
       id="rect4063"
       width="59.346462"
       height="1.767767"
       x="-825.57086"
       y="-57.020134" />
    <rect
       y="-55.065422"
       x="-826.26941"
       height="1.767767"
       width="59.346462"
       id="rect4573"
       style="fill:#ffffff;fill-opacity:1;stroke:#000000;stroke-width:0.2;stroke-miterlimit:4;stroke-opacity:1;stroke-dasharray:none" />
    <rect
       style="fill:#ffffff;fill-opacity:1;stroke:#000000;stroke-width:0.2;stroke-miterlimit:4;stroke-opacity:1;stroke-dasharray:none"
       id="rect4575"
       width="59.346462"
       height="1.767767"
       x="-826.16577"
       y="-53.109367" />
    <rect
       y="-51.142021"
       x="-825.92719"
       height="1.767767"
       width="59.346462"
       id="rect4577"
       style="fill:#ffffff;fill-opacity:1;stroke:#000000;stroke-width:0.2;stroke-miterlimit:4;stroke-opacity:1;stroke-dasharray:none" />
    <rect
       style="fill:#ffffff;fill-opacity:1;stroke:#000000;stroke-width:0.2;stroke-miterlimit:4;stroke-opacity:1;stroke-dasharray:none"
       id="rect4579"
       width="59.346462"
       height="1.767767"
       x="-825.9892"
       y="-48.691582" />
    <rect
       y="-49.187187"
       x="-825.87421"
       height="1.767767"
       width="59.346462"
       id="rect4581"
       style="fill:#ffffff;fill-opacity:1;stroke:#000000;stroke-width:0.2;stroke-miterlimit:4;stroke-opacity:1;stroke-dasharray:none" />
    <rect
       style="fill:#ffffff;fill-opacity:1;stroke:#000000;stroke-width:0.2;stroke-miterlimit:4;stroke-opacity:1;stroke-dasharray:none"
       id="rect4583"
       width="59.346462"
       height="1.767767"
       x="-826.66077"
       y="-47.138481" />
    <rect
       y="-45.115593"
       x="-826.8653"
       height="1.767767"
       width="59.346462"
       id="rect4585"
       style="fill:#ffffff;fill-opacity:1;stroke:#000000;stroke-width:0.2;stroke-miterlimit:4;stroke-opacity:1;stroke-dasharray:none" />
    <rect
       style="fill:#ffffff;fill-opacity:1;stroke:#000000;stroke-width:0.2;stroke-miterlimit:4;stroke-opacity:1;stroke-dasharray:none"
       id="rect4587"
       width="59.346462"
       height="1.767767"
       x="-827.0285"
       y="-43.05938" />
    <rect
       y="-40.691582"
       x="-825.9892"
       height="1.767767"
       width="59.346462"
       id="rect4589"
       style="fill:#ffffff;fill-opacity:1;stroke:#000000;stroke-width:0.2;stroke-miterlimit:4;stroke-opacity:1;stroke-dasharray:none" />
    <rect
       style="fill:#ffffff;fill-opacity:1;stroke:#000000;stroke-width:0.2;stroke-miterlimit:4;stroke-opacity:1;stroke-dasharray:none"
       id="rect4591"
       width="59.346462"
       height="1.767767"
       x="-826.46002"
       y="-41.005669" />
    <rect
       y="-38.840385"
       x="-827.11627"
       height="1.767767"
       width="59.346462"
       id="rect4593"
       style="fill:#ffffff;fill-opacity:1;stroke:#000000;stroke-width:0.2;stroke-miterlimit:4;stroke-opacity:1;stroke-dasharray:none" />
    <rect
       style="fill:#ffffff;fill-opacity:1;stroke:#000000;stroke-width:0.2;stroke-miterlimit:4;stroke-opacity:1;stroke-dasharray:none"
       id="rect4595"
       width="59.346462"
       height="1.767767"
       x="-827.41779"
       y="-36.858086" />
    <rect
       y="-34.777092"
       x="-828.7616"
       height="1.767767"
       width="59.346462"
       id="rect4597"
       style="fill:#ffffff;fill-opacity:1;stroke:#000000;stroke-width:0.2;stroke-miterlimit:4;stroke-opacity:1;stroke-dasharray:none" />
    <rect
       style="fill:#ffffff;fill-opacity:1;stroke:#000000;stroke-width:0.2;stroke-miterlimit:4;stroke-opacity:1;stroke-dasharray:none"
       id="rect4599"
       width="59.346462"
       height="1.767767"
       x="-827.42639"
       y="-32.728081" />
    <rect
       y="-30.911127"
       x="-827.8468"
       height="1.767767"
       width="59.346462"
       id="rect4601"
       style="fill:#ffffff;fill-opacity:1;stroke:#000000;stroke-width:0.2;stroke-miterlimit:4;stroke-opacity:1;stroke-dasharray:none" />
    <rect
       style="fill:#ffffff;fill-opacity:1;stroke:#000000;stroke-width:0.2;stroke-miterlimit:4;stroke-opacity:1;stroke-dasharray:none"
       id="rect4603"
       width="59.346462"
       height="1.767767"
       x="-827.28235"
       y="-28.628778" />
    <rect
       y="-26.645258"
       x="-827.86963"
       height="1.767767"
       width="59.346462"
       id="rect4605"
       style="fill:#ffffff;fill-opacity:1;stroke:#000000;stroke-width:0.2;stroke-miterlimit:4;stroke-opacity:1;stroke-dasharray:none" />
    <rect
       style="fill:#ffffff;fill-opacity:1;stroke:#000000;stroke-width:0.2;stroke-miterlimit:4;stroke-opacity:1;stroke-dasharray:none"
       id="rect4607"
       width="59.346462"
       height="1.767767"
       x="-826.95587"
       y="-24.580805" />
    <rect
       y="-22.574945"
       x="-826.67133"
       height="1.767767"
       width="59.346462"
       id="rect4609"
       style="fill:#ffffff;fill-opacity:1;stroke:#000000;stroke-width:0.2;stroke-miterlimit:4;stroke-opacity:1;stroke-dasharray:none" />
    <rect
       style="fill:#ffffff;fill-opacity:1;stroke:#000000;stroke-width:0.2;stroke-miterlimit:4;stroke-opacity:1;stroke-dasharray:none"
       id="rect4611"
       width="59.346462"
       height="1.767767"
       x="-826.77588"
       y="-20.629267" />
    <rect
       y="-18.587946"
       x="-826.4389"
       height="1.767767"
       width="59.346462"
       id="rect4613"
       style="fill:#ffffff;fill-opacity:1;stroke:#000000;stroke-width:0.2;stroke-miterlimit:4;stroke-opacity:1;stroke-dasharray:none" />
    <rect
       style="fill:#ffffff;fill-opacity:1;stroke:#000000;stroke-width:0.2;stroke-miterlimit:4;stroke-opacity:1;stroke-dasharray:none"
       id="rect4615"
       width="59.346462"
       height="1.767767"
       x="-826.3064"
       y="-16.596491" />
    <rect
       y="-14.616693"
       x="-827.08301"
       height="1.767767"
       width="59.346462"
       id="rect4617"
       style="fill:#ffffff;fill-opacity:1;stroke:#000000;stroke-width:0.2;stroke-miterlimit:4;stroke-opacity:1;stroke-dasharray:none" />
    <rect
       style="fill:#ffffff;fill-opacity:1;stroke:#000000;stroke-width:0.2;stroke-miterlimit:4;stroke-opacity:1;stroke-dasharray:none"
       id="rect4619"
       width="59.346462"
       height="1.767767"
       x="-826.11292"
       y="-12.605158" />
    <rect
       y="-10.607721"
       x="-826.03925"
       height="1.767767"
       width="59.346462"
       id="rect4621"
       style="fill:#ffffff;fill-opacity:1;stroke:#000000;stroke-width:0.2;stroke-miterlimit:4;stroke-opacity:1;stroke-dasharray:none" />
    <rect
       style="fill:#ffffff;fill-opacity:1;stroke:#000000;stroke-width:0.2;stroke-miterlimit:4;stroke-opacity:1;stroke-dasharray:none"
       id="rect4623"
       width="59.346462"
       height="1.767767"
       x="-825.52094"
       y="-8.589777" />
    <rect
       y="-6.6133366"
       x="-825.95404"
       height="1.767767"
       width="59.346462"
       id="rect4625"
       style="fill:#ffffff;fill-opacity:1;stroke:#000000;stroke-width:0.2;stroke-miterlimit:4;stroke-opacity:1;stroke-dasharray:none" />
    <rect
       style="fill:#ffffff;fill-opacity:1;stroke:#000000;stroke-width:0.2;stroke-miterlimit:4;stroke-opacity:1;stroke-dasharray:none"
       id="rect4627"
       width="59.346462"
       height="1.767767"
       x="-825.52832"
       y="-4.5697575" />
    <rect
       y="-2.6251163"
       x="-825.97205"
       height="1.767767"
       width="59.346462"
       id="rect4629"
       style="fill:#ffffff;fill-opacity:1;stroke:#000000;stroke-width:0.2;stroke-miterlimit:4;stroke-opacity:1;stroke-dasharray:none" />
    <rect
       style="fill:#ffffff;fill-opacity:1;stroke:#000000;stroke-width:0.2;stroke-miterlimit:4;stroke-opacity:1;stroke-dasharray:none"
       id="rect4631"
       width="59.346462"
       height="1.767767"
       x="-825.9892"
       y="-0.69158363" />
    <rect
       y="-0.63341713"
       x="-826.3269"
       height="1.767767"
       width="59.346462"
       id="rect4633"
       style="fill:#ffffff;fill-opacity:1;stroke:#000000;stroke-width:0.2;stroke-miterlimit:4;stroke-opacity:1;stroke-dasharray:none" />
    <rect
       y="-28.735895"
       x="572.38538"
       height="1.767767"
       width="59.346462"
       id="rect4635"
       style="fill:#ffffff;fill-opacity:1;stroke:#000000;stroke-width:0.2;stroke-miterlimit:4;stroke-opacity:1;stroke-dasharray:none"
       transform="scale(-1,1)" />
    <rect
       style="fill:#ffffff;fill-opacity:1;stroke:#000000;stroke-width:0.2;stroke-miterlimit:4;stroke-opacity:1;stroke-dasharray:none"
       id="rect4637"
       width="59.346462"
       height="1.767767"
       x="571.68683"
       y="-26.781183"
       transform="scale(-1,1)" />
    <rect
       y="-24.825129"
       x="571.79053"
       height="1.767767"
       width="59.346462"
       id="rect4639"
       style="fill:#ffffff;fill-opacity:1;stroke:#000000;stroke-width:0.2;stroke-miterlimit:4;stroke-opacity:1;stroke-dasharray:none"
       transform="scale(-1,1)" />
    <rect
       style="fill:#ffffff;fill-opacity:1;stroke:#000000;stroke-width:0.2;stroke-miterlimit:4;stroke-opacity:1;stroke-dasharray:none"
       id="rect4641"
       width="59.346462"
       height="1.767767"
       x="572.02911"
       y="-22.857782"
       transform="scale(-1,1)" />
    <rect
       y="-20.407343"
       x="571.9671"
       height="1.767767"
       width="59.346462"
       id="rect4643"
       style="fill:#ffffff;fill-opacity:1;stroke:#000000;stroke-width:0.2;stroke-miterlimit:4;stroke-opacity:1;stroke-dasharray:none"
       transform="scale(-1,1)" />
    <rect
       style="fill:#ffffff;fill-opacity:1;stroke:#000000;stroke-width:0.2;stroke-miterlimit:4;stroke-opacity:1;stroke-dasharray:none"
       id="rect4645"
       width="59.346462"
       height="1.767767"
       x="572.08203"
       y="-20.902948"
       transform="scale(-1,1)" />
    <rect
       y="-18.854242"
       x="571.29553"
       height="1.767767"
       width="59.346462"
       id="rect4647"
       style="fill:#ffffff;fill-opacity:1;stroke:#000000;stroke-width:0.2;stroke-miterlimit:4;stroke-opacity:1;stroke-dasharray:none"
       transform="scale(-1,1)" />
    <rect
       style="fill:#ffffff;fill-opacity:1;stroke:#000000;stroke-width:0.2;stroke-miterlimit:4;stroke-opacity:1;stroke-dasharray:none"
       id="rect4649"
       width="59.346462"
       height="1.767767"
       x="571.09094"
       y="-16.831354"
       transform="scale(-1,1)" />
    <rect
       y="-14.775141"
       x="570.92773"
       height="1.767767"
       width="59.346462"
       id="rect4651"
       style="fill:#ffffff;fill-opacity:1;stroke:#000000;stroke-width:0.2;stroke-miterlimit:4;stroke-opacity:1;stroke-dasharray:none"
       transform="scale(-1,1)" />
    <rect
       style="fill:#ffffff;fill-opacity:1;stroke:#000000;stroke-width:0.2;stroke-miterlimit:4;stroke-opacity:1;stroke-dasharray:none"
       id="rect4653"
       width="59.346462"
       height="1.767767"
       x="571.9671"
       y="-12.407343"
       transform="scale(-1,1)" />
    <rect
       y="-12.72143"
       x="571.49628"
       height="1.767767"
       width="59.346462"
       id="rect4655"
       style="fill:#ffffff;fill-opacity:1;stroke:#000000;stroke-width:0.2;stroke-miterlimit:4;stroke-opacity:1;stroke-dasharray:none"
       transform="scale(-1,1)" />
    <rect
       style="fill:#ffffff;fill-opacity:1;stroke:#000000;stroke-width:0.2;stroke-miterlimit:4;stroke-opacity:1;stroke-dasharray:none"
       id="rect4657"
       width="59.346462"
       height="1.767767"
       x="570.83997"
       y="-10.556147"
       transform="scale(-1,1)" />
    <rect
       y="-8.5738468"
       x="570.53851"
       height="1.767767"
       width="59.346462"
       id="rect4659"
       style="fill:#ffffff;fill-opacity:1;stroke:#000000;stroke-width:0.2;stroke-miterlimit:4;stroke-opacity:1;stroke-dasharray:none"
       transform="scale(-1,1)" />
    <rect
       style="fill:#ffffff;fill-opacity:1;stroke:#000000;stroke-width:0.2;stroke-miterlimit:4;stroke-opacity:1;stroke-dasharray:none"
       id="rect4661"
       width="59.346462"
       height="1.767767"
       x="569.1947"
       y="-6.4928532"
       transform="scale(-1,1)" />
    <rect
       y="-4.4438419"
       x="570.52991"
       height="1.767767"
       width="59.346462"
       id="rect4663"
       style="fill:#ffffff;fill-opacity:1;stroke:#000000;stroke-width:0.2;stroke-miterlimit:4;stroke-opacity:1;stroke-dasharray:none"
       transform="scale(-1,1)" />
    <rect
       style="fill:#ffffff;fill-opacity:1;stroke:#000000;stroke-width:0.2;stroke-miterlimit:4;stroke-opacity:1;stroke-dasharray:none"
       id="rect4665"
       width="59.346462"
       height="1.767767"
       x="570.10944"
       y="-2.6268864"
       transform="scale(-1,1)" />
    <rect
       transform="matrix(0,1,-1,0,-927.30748,-838.33288)"
       style="opacity:0.2035398;fill:#000000;fill-opacity:1;stroke:none;filter:url(#filter4816)"
       id="rect4812"
       width="86.703178"
       height="19.705259"
       x="840.00281"
       y="-351.77277"
       inkscape:export-filename="C:\Users\Jake\Desktop\LD\scene1.png"
       inkscape:export-xdpi="90.759377"
       inkscape:export-ydpi="90.759377" />
    <rect
       y="-0.34453771"
       x="570.67395"
       height="1.767767"
       width="59.346462"
       id="rect4667"
       style="fill:#ffffff;fill-opacity:1;stroke:#000000;stroke-width:0.2;stroke-miterlimit:4;stroke-opacity:1;stroke-dasharray:none"
       transform="scale(-1,1)" />
    <rect
       style="fill:#ffffff;fill-opacity:1;stroke:#000000;stroke-width:0.2;stroke-miterlimit:4;stroke-opacity:1;stroke-dasharray:none"
       id="rect4669"
       width="59.346462"
       height="1.767767"
       x="570.08667"
       y="-56.949821"
       transform="scale(-1,1)" />
    <rect
       y="-54.885368"
       x="571.00043"
       height="1.767767"
       width="59.346462"
       id="rect4671"
       style="fill:#ffffff;fill-opacity:1;stroke:#000000;stroke-width:0.2;stroke-miterlimit:4;stroke-opacity:1;stroke-dasharray:none"
       transform="scale(-1,1)" />
    <rect
       style="fill:#ffffff;fill-opacity:1;stroke:#000000;stroke-width:0.2;stroke-miterlimit:4;stroke-opacity:1;stroke-dasharray:none"
       id="rect4673"
       width="59.346462"
       height="1.767767"
       x="571.28491"
       y="-52.879509"
       transform="scale(-1,1)" />
    <rect
       y="-50.93383"
       x="571.18042"
       height="1.767767"
       width="59.346462"
       id="rect4675"
       style="fill:#ffffff;fill-opacity:1;stroke:#000000;stroke-width:0.2;stroke-miterlimit:4;stroke-opacity:1;stroke-dasharray:none"
       transform="scale(-1,1)" />
    <rect
       style="fill:#ffffff;fill-opacity:1;stroke:#000000;stroke-width:0.2;stroke-miterlimit:4;stroke-opacity:1;stroke-dasharray:none"
       id="rect4677"
       width="59.346462"
       height="1.767767"
       x="571.5174"
       y="-48.892509"
       transform="scale(-1,1)" />
    <rect
       y="-46.901054"
       x="571.6499"
       height="1.767767"
       width="59.346462"
       id="rect4679"
       style="fill:#ffffff;fill-opacity:1;stroke:#000000;stroke-width:0.2;stroke-miterlimit:4;stroke-opacity:1;stroke-dasharray:none"
       transform="scale(-1,1)" />
    <rect
       style="fill:#ffffff;fill-opacity:1;stroke:#000000;stroke-width:0.2;stroke-miterlimit:4;stroke-opacity:1;stroke-dasharray:none"
       id="rect4681"
       width="59.346462"
       height="1.767767"
       x="570.87329"
       y="-44.921257"
       transform="scale(-1,1)" />
    <rect
       y="-42.909721"
       x="571.84332"
       height="1.767767"
       width="59.346462"
       id="rect4683"
       style="fill:#ffffff;fill-opacity:1;stroke:#000000;stroke-width:0.2;stroke-miterlimit:4;stroke-opacity:1;stroke-dasharray:none"
       transform="scale(-1,1)" />
    <rect
       style="fill:#ffffff;fill-opacity:1;stroke:#000000;stroke-width:0.2;stroke-miterlimit:4;stroke-opacity:1;stroke-dasharray:none"
       id="rect4685"
       width="59.346462"
       height="1.767767"
       x="571.91699"
       y="-40.912285"
       transform="scale(-1,1)" />
    <rect
       y="-38.894341"
       x="572.43536"
       height="1.767767"
       width="59.346462"
       id="rect4687"
       style="fill:#ffffff;fill-opacity:1;stroke:#000000;stroke-width:0.2;stroke-miterlimit:4;stroke-opacity:1;stroke-dasharray:none"
       transform="scale(-1,1)" />
    <rect
       style="fill:#ffffff;fill-opacity:1;stroke:#000000;stroke-width:0.2;stroke-miterlimit:4;stroke-opacity:1;stroke-dasharray:none"
       id="rect4689"
       width="59.346462"
       height="1.767767"
       x="572.0022"
       y="-36.9179"
       transform="scale(-1,1)" />
    <rect
       y="-34.874321"
       x="572.42798"
       height="1.767767"
       width="59.346462"
       id="rect4691"
       style="fill:#ffffff;fill-opacity:1;stroke:#000000;stroke-width:0.2;stroke-miterlimit:4;stroke-opacity:1;stroke-dasharray:none"
       transform="scale(-1,1)" />
    <rect
       style="fill:#ffffff;fill-opacity:1;stroke:#000000;stroke-width:0.2;stroke-miterlimit:4;stroke-opacity:1;stroke-dasharray:none"
       id="rect4693"
       width="59.346462"
       height="1.767767"
       x="571.98425"
       y="-32.92968"
       transform="scale(-1,1)" />
    <rect
       y="-30.996149"
       x="571.9671"
       height="1.767767"
       width="59.346462"
       id="rect4695"
       style="fill:#ffffff;fill-opacity:1;stroke:#000000;stroke-width:0.2;stroke-miterlimit:4;stroke-opacity:1;stroke-dasharray:none"
       transform="scale(-1,1)" />
    <rect
       style="fill:#ffffff;fill-opacity:1;stroke:#000000;stroke-width:0.2;stroke-miterlimit:4;stroke-opacity:1;stroke-dasharray:none"
       id="rect4697"
       width="59.346462"
       height="1.767767"
       x="571.62933"
       y="-30.937983"
       transform="scale(-1,1)" />
    <path
       style="fill:#670000;fill-opacity:1;stroke:none"
       d="m -841.24241,121.44721 657.2525,0 75,92.58211 -807.2525,0 z"
       id="rect3072"
       inkscape:connector-curvature="0"
       sodipodi:nodetypes="ccccc" />
    <path
       style="fill:#333333;fill-opacity:1;stroke:none"
       d="m -583.43313,-129.3969 c 7.41844,1.21605 5.63826,5.10474 6.03615,8.36059 l -11.69759,4.94575 c -1.59106,-0.65353 -1.92602,-1.7781 -1.48276,-3.1945 z"
       id="rect4753"
       inkscape:connector-curvature="0"
       sodipodi:nodetypes="ccccc" />
    <path
       sodipodi:nodetypes="ccc"
       inkscape:connector-curvature="0"
       id="path4756"
       d="m -583.43313,-129.3969 c 7.41844,1.21605 5.63826,5.10474 6.03615,8.36059 -3.98489,-0.91269 -6.21006,-3.49707 -6.03615,-8.36059 z"
       style="fill:#030505;fill-opacity:1;stroke:none" />
    <rect
       y="-114.39471"
       x="840.9422"
       height="19.705259"
       width="86.703178"
       id="rect4814"
       style="opacity:0.2035398;fill:#000000;fill-opacity:1;stroke:none;filter:url(#filter4820)"
       transform="matrix(0,1,-1,0,-927.30748,-838.33288)"
       inkscape:export-filename="C:\Users\Jake\Desktop\LD\scene1.png"
       inkscape:export-xdpi="90.759377"
       inkscape:export-ydpi="90.759377" />
    <rect
       style="fill:#4c1e00;fill-opacity:1;stroke:none"
       id="rect5309"
       width="321.54901"
       height="21.154539"
       x="-860.21741"
       y="7.9036922"
       inkscape:export-filename="C:\Users\Jake\Desktop\LD\scene1.png"
       inkscape:export-xdpi="90.759377"
       inkscape:export-ydpi="90.759377" />
    <path
       style="fill:#4c1e00;fill-opacity:1;stroke:none"
       d="m -825.46349,11.33069 0,93.07998 -13.57727,2.04432 -7.57727,-2.04432 0,-93.07998 z"
       id="rect5311"
       inkscape:connector-curvature="0"
       sodipodi:nodetypes="cccccc" />
    <path
       style="fill:#4c1e00;fill-opacity:1;stroke:none"
       d="m -554.68547,11.33069 0,93.07998 -7.57727,2.04432 -13.57727,-2.04432 0,-93.07998 z"
       id="rect5313"
       inkscape:connector-curvature="0"
       sodipodi:nodetypes="cccccc" />
    <path
       style="fill:url(#linearGradient3970);fill-opacity:1;stroke:none"
       d="m 518.03347,914.65585 c -27.91974,8.4001 -93.37103,7.90931 -150.72355,0 l 0,-164.03564 150.72355,0 z"
       id="rect5279-9"
       inkscape:connector-curvature="0"
       sodipodi:nodetypes="ccccc" />
    <path
       style="fill:#e4f4f4;fill-opacity:1;stroke:none"
       d="m 360.12542,720.27793 -32.24002,42.74851 -11.9021,150.79296 57.88108,0 0,-137.78897 c 58.01067,-15.35986 92.89671,-6.62472 127.33161,0 l 0,139.08604 27.28008,0 30.31516,-21.2132 0.25254,-129.57975 -11.46982,0 0,-46.19573 c -57.65418,-13.63354 -75.27805,-31.93591 -187.44853,2.15014 z"
       id="rect5273-9"
       inkscape:connector-curvature="0"
       sodipodi:nodetypes="ccccccccccccc" />
    <path
       sodipodi:nodetypes="cccccccccc"
       inkscape:connector-curvature="0"
       id="path3937"
       d="m 327.5051,764.81842 -11.902,148.70765 57.881,2.12853 0,-137.8322 c 58.01068,-15.35986 92.89672,-6.62472 127.33162,0 l -0.0306,142.05877 c 1.7864,-0.005 34.92686,3.36659 59.81207,-7.84663 5.76566,-15.76465 18.25847,-151.25309 -42.95686,-195.33999 -57.65418,-13.63352 -190.13523,48.12387 -190.13523,48.12387 z"
       style="opacity:0.66371681;fill:#e4f4f4;fill-opacity:1;stroke:url(#linearGradient3947);stroke-width:6.57698298;stroke-miterlimit:4;stroke-opacity:0.56382979;stroke-dasharray:none" />
    <path
       sodipodi:nodetypes="cccccc"
       inkscape:connector-curvature="0"
       id="path3974"
       d="m 367.75719,889.72304 17.35277,10.94553 18.79209,22.04283 2.06186,8.24678 c -37.13983,1.86062 -213.95531,17.7606 -131.64551,-33.40493 15.3797,-6.66767 47.6314,-14.01888 93.43879,-7.83021 z"
       style="fill:#e4f4f4;fill-opacity:1;stroke:#86aaaa;stroke-width:6.57698345;stroke-miterlimit:4;stroke-opacity:0.56382979;stroke-dasharray:none" />
    <path
       style="fill:#e4f4f4;fill-opacity:1;stroke:#86aaaa;stroke-width:6.57698345;stroke-miterlimit:4;stroke-opacity:0.56382979;stroke-dasharray:none"
       d="m 427.80413,898.6672 c -34.0047,18.19514 -45.43172,20.89876 -51.47068,35.09879 l -2.8785,11.8047 c 51.4238,2.4829 272.80547,8.59396 168.12819,-26.35117 C 520.11212,909.6752 491.7541,889.80854 427.80413,898.6672 z"
       id="path3972"
       inkscape:connector-curvature="0"
       sodipodi:nodetypes="ccccc" />
  </g>
</svg>
