<?xml version="1.0" encoding="UTF-8" standalone="no"?>
<!-- Created with Inkscape (http://www.inkscape.org/) -->

<svg
   xmlns:dc="http://purl.org/dc/elements/1.1/"
   xmlns:cc="http://creativecommons.org/ns#"
   xmlns:rdf="http://www.w3.org/1999/02/22-rdf-syntax-ns#"
   xmlns:svg="http://www.w3.org/2000/svg"
   xmlns="http://www.w3.org/2000/svg"
   xmlns:sodipodi="http://sodipodi.sourceforge.net/DTD/sodipodi-0.dtd"
   xmlns:inkscape="http://www.inkscape.org/namespaces/inkscape"
   width="800"
   height="600"
   id="svg4354"
   version="1.1"
   inkscape:version="0.48.4 r9939"
   sodipodi:docname="snow-basketball.svg"
   inkscape:export-filename="C:\Users\Jake\Documents\FlashDevelop\HumphreyRemastered\lib\art\backgrounds\snow-basketball.png"
   inkscape:export-xdpi="90"
   inkscape:export-ydpi="90">
  <defs
     id="defs4356" />
  <sodipodi:namedview
     id="base"
     pagecolor="#ffffff"
     bordercolor="#666666"
     borderopacity="1.0"
     inkscape:pageopacity="0.0"
     inkscape:pageshadow="2"
     inkscape:zoom="0.35"
     inkscape:cx="873.03029"
     inkscape:cy="672.06121"
     inkscape:document-units="px"
     inkscape:current-layer="layer1"
     showgrid="false"
     inkscape:window-width="1440"
     inkscape:window-height="838"
     inkscape:window-x="-8"
     inkscape:window-y="-8"
     inkscape:window-maximized="1" />
  <metadata
     id="metadata4359">
    <rdf:RDF>
      <cc:Work
         rdf:about="">
        <dc:format>image/svg+xml</dc:format>
        <dc:type
           rdf:resource="http://purl.org/dc/dcmitype/StillImage" />
        <dc:title></dc:title>
      </cc:Work>
    </rdf:RDF>
  </metadata>
  <g
     inkscape:label="Layer 1"
     inkscape:groupmode="layer"
     id="layer1"
     transform="translate(0,-452.36218)">
    <path
       sodipodi:nodetypes="ccccc"
       inkscape:connector-curvature="0"
       id="path3872"
       d="m -69.427304,1079.2856 0,-668.13261 953.140314,0 0,668.13261 z"
       style="fill:#ffffff;fill-opacity:1;stroke:#272727;stroke-width:1.68162549;stroke-miterlimit:4;stroke-opacity:1" />
    <path
       style="opacity:0.34070794;fill:#b0ffff;fill-opacity:1;stroke:#272727;stroke-width:1.68162549;stroke-miterlimit:4;stroke-opacity:1"
       d="m -32.105107,994.27853 0,-566.68983 885.746917,0 0,566.68983 z"
       id="rect4588"
       inkscape:connector-curvature="0"
       sodipodi:nodetypes="ccccc" />
    <path
       sodipodi:nodetypes="ccccc"
       inkscape:connector-curvature="0"
       id="path4803"
       d="m -53.418197,1057.5231 -6e-5,-401.90306 923.979367,1.2e-4 -10e-5,401.90264 z"
       style="fill:#f3ffff;fill-opacity:1;stroke:none" />
    <path
       style="fill:#e4f4f4;fill-opacity:1;stroke:#86aaaa;stroke-width:3;stroke-miterlimit:4;stroke-opacity:0.56382979;stroke-dasharray:none"
       d="m -100.36259,802.20539 c -77.86122,44.661 -104.02585,51.29699 -117.85347,86.15166 l -6.59091,28.97527 c 117.74615,6.09432 534.53293,60.04452 400.82734,-58.18849 C 146.05944,767.1036 -15.425579,733.40884 -100.36259,802.20539 z"
       id="path4228"
       inkscape:connector-curvature="0"
       sodipodi:nodetypes="ccccc" />
    <path
       sodipodi:nodetypes="ccccc"
       inkscape:connector-curvature="0"
       id="path4222"
       d="m 475.19124,831.29074 c 61.39009,34.94019 82.01972,40.13179 92.92217,67.40009 l 5.19665,22.66856 c -92.83754,4.76785 -545.02896,46.97535 -439.60811,-45.52332 23.62283,-72.00695 203.3083,-142.14585 341.48929,-44.54533 z"
       style="fill:#e4f4f4;fill-opacity:1;stroke:#86aaaa;stroke-width:3;stroke-miterlimit:4;stroke-opacity:0.56382979;stroke-dasharray:none" />
    <path
       sodipodi:nodetypes="cccccc"
       inkscape:connector-curvature="0"
       id="path4206"
       d="m 31.046392,946.43793 c 61.023232,-3.18398 64.168252,-14.7632 209.770788,0 l 0,-21.5358 -94.66945,-11.32476 -115.101338,11.32476 z"
       style="fill:#101010;fill-opacity:1;stroke:none" />
    <path
       style="fill:#550000;fill-opacity:1;stroke:#000000;stroke-width:0.79940069;stroke-miterlimit:4;stroke-opacity:1"
       d="m 113.33501,694.08107 51.83493,0 0,233.90574 -51.83493,0 z"
       id="rect3945"
       inkscape:connector-curvature="0" />
    <path
       style="fill:#1a1a1a;fill-opacity:1;stroke:#000000;stroke-width:0.79940069;stroke-miterlimit:4;stroke-opacity:1"
       d="m 31.985598,926.55082 c 61.023236,3.18399 62.289876,14.7632 207.892422,0 l 0,21.5358 -81.05123,5.20115 -126.841192,-5.20115 z"
       id="rect3947"
       inkscape:connector-curvature="0"
       sodipodi:nodetypes="cccccc" />
    <path
       inkscape:connector-curvature="0"
       id="path3435"
       d="m 140.41577,694.08107 23.42598,0 0,232.41868 -23.42598,0 z"
       style="fill:#480000;fill-opacity:1;stroke:none"
       sodipodi:nodetypes="ccccc" />
    <path
       style="fill:#ffffff;fill-opacity:1;stroke:#000000;stroke-width:0.79940069;stroke-miterlimit:4;stroke-opacity:1"
       d="m 16.332269,592.63348 51.503285,-54.07869 176.869856,0 51.50329,54.07869 0,123.1505 -279.876431,0 z"
       id="rect3939"
       inkscape:connector-curvature="0"
       sodipodi:nodetypes="ccccccc" />
    <path
       sodipodi:nodetypes="cccccccccccccccccccccccccccccc"
       inkscape:connector-curvature="0"
       id="path3430"
       style="fill:none;stroke:#808080;stroke-width:1pt;stroke-linecap:butt;stroke-linejoin:miter;stroke-opacity:1"
       d="m 140.89356,676.68495 0,98.185 m 14.20447,-98.185 0,105.05019 m 14.20447,-105.05019 0,107.54829 m 14.20447,-107.54829 0,109.71331 m 14.20448,-109.71331 0,110.58301 m 14.20447,-110.58301 0,112.78505 m 14.20447,-112.78505 0,109.91687 m 14.20447,-109.91687 0,104.05095 m -99.4313,-89.80249 c 39.6332,4.76619 75.587,6.71003 100.25914,0 m -100.25914,14.24846 c 35.69473,7.41672 68.03184,3.88738 100.25914,0 m -100.25914,14.24846 c 46.09314,6.81036 78.95672,6.51152 100.25914,0 m -100.25914,14.24846 c 37.94034,4.1858 73.72402,6.37468 100.25914,0 m -100.25914,14.24846 c 37.1887,2.9082 74.31226,5.76612 100.25914,0 M 140.89356,761.343 c 36.20313,6.99865 75.74552,7.21873 100.25914,0.83271 m -100.25914,8.54908 c 15.50245,7.73437 75.15907,11.47696 100.25914,5.69938" />
    <path
       style="fill:#000000;fill-opacity:1;stroke:#000000;stroke-width:0.79940069;stroke-miterlimit:4;stroke-opacity:1"
       d="m 125.55605,675.58397 130.89956,0 0,8.61434 -130.89956,0 z"
       id="rect3941"
       inkscape:connector-curvature="0"
       sodipodi:nodetypes="ccccc" />
    <g
       id="g4244"
       transform="matrix(1.9458055,2.0763187,-2.0699088,1.9518311,1476.0031,-1179.1075)">
      <path
         transform="translate(-83.6875,412.5)"
         d="m 342.00148,390.71033 c 0,6.29911 -5.10645,11.40556 -11.40556,11.40556 -6.29912,0 -11.40556,-5.10645 -11.40556,-11.40556 0,-6.29912 5.10644,-11.40556 11.40556,-11.40556 6.29911,0 11.40556,5.10644 11.40556,11.40556 z"
         sodipodi:ry="11.40556"
         sodipodi:rx="11.40556"
         sodipodi:cy="390.71033"
         sodipodi:cx="330.59592"
         id="path4230"
         style="fill:#ff802b;fill-opacity:1;stroke:#4d2204;stroke-width:0.35145804;stroke-opacity:1"
         sodipodi:type="arc" />
      <path
         sodipodi:nodetypes="cc"
         inkscape:connector-curvature="0"
         id="path4236"
         d="m 248.26111,791.60176 c -2.45971,6.91402 -3.96787,14.64018 -2.86365,22.55847"
         style="fill:none;stroke:#4d2204;stroke-width:0.35145804px;stroke-linecap:butt;stroke-linejoin:miter;stroke-opacity:1" />
      <path
         style="fill:none;stroke:#4d2204;stroke-width:0.35145804px;stroke-linecap:butt;stroke-linejoin:miter;stroke-opacity:1"
         d="m 238.48622,810.47488 c 0.3733,-0.85685 5.99948,-12.40482 14.8415,1.83427"
         id="path4242"
         inkscape:connector-curvature="0"
         sodipodi:nodetypes="cc" />
      <path
         sodipodi:nodetypes="cc"
         inkscape:connector-curvature="0"
         id="path4232"
         d="m 240.66013,793.50673 c 0.13881,0.92427 2.58445,13.53492 14.81053,2.06949"
         style="fill:none;stroke:#4d2204;stroke-width:0.35145804px;stroke-linecap:butt;stroke-linejoin:miter;stroke-opacity:1" />
    </g>
    <path
       style="fill:#e4f4f4;fill-opacity:1;stroke:#86aaaa;stroke-width:3;stroke-miterlimit:4;stroke-opacity:0.56382979;stroke-dasharray:none"
       d="m 201.67407,905.41687 c -22.7021,15.37324 -31.29422,29.56071 -34.52891,40.06425 l -1.17585,8.57564 c 151.87232,10.69045 354.28278,19.25277 134.66095,-50.75937 -15.8627,-5.19892 -54.41949,-8.81971 -98.95619,2.11948 z"
       id="path4226"
       inkscape:connector-curvature="0"
       sodipodi:nodetypes="ccccc" />
    <path
       style="fill:#e4f4f4;fill-opacity:1;stroke:#afcaca;stroke-width:1;stroke-linejoin:miter;stroke-miterlimit:4;stroke-opacity:1;stroke-dashoffset:0"
       d="m 320.39036,880.55907 -11.55869,-3.58939 c -2.02791,0.0806 -4.11793,1.97056 -6.21755,2.85308 -2.01596,0.84739 -5.79264,4.24778 -5.85872,6.99429 0.37613,-13.59471 -11.34466,-16.77198 -25.132,-12.5401 11.21221,-11.15261 36.9083,-13.3605 48.76693,6.2822 z"
       id="rect4250"
       inkscape:connector-curvature="0"
       sodipodi:nodetypes="ccscccc" />
    <path
       style="fill:#e4f4f4;fill-opacity:1;stroke:#c5dcdc;stroke-width:3;stroke-miterlimit:4;stroke-opacity:1"
       d="m 134.35028,675.57529 c 23.87287,-1.83045 31.82687,-0.76655 41.41625,0 l -18.68782,19.69797 -9.25307,-8.66745 -4.47334,-0.58307 -5.97156,55.71754 z"
       id="rect4401"
       inkscape:connector-curvature="0"
       sodipodi:nodetypes="ccccccc" />
    <path
       sodipodi:nodetypes="ccccc"
       inkscape:connector-curvature="0"
       id="path4912"
       d="m 226.13196,675.57529 c 6.15092,-0.74087 10.27261,-3.00366 21.41625,0 l -4.68782,27.69797 -3.25307,-16.66745 z"
       style="fill:#e4f4f4;fill-opacity:1;stroke:#c5dcdc;stroke-width:3;stroke-miterlimit:4;stroke-opacity:1" />
  </g>
</svg>
