<?xml version="1.0" encoding="UTF-8" standalone="no"?>
<!-- Created with Inkscape (http://www.inkscape.org/) -->

<svg
   xmlns:dc="http://purl.org/dc/elements/1.1/"
   xmlns:cc="http://creativecommons.org/ns#"
   xmlns:rdf="http://www.w3.org/1999/02/22-rdf-syntax-ns#"
   xmlns:svg="http://www.w3.org/2000/svg"
   xmlns="http://www.w3.org/2000/svg"
   xmlns:sodipodi="http://sodipodi.sourceforge.net/DTD/sodipodi-0.dtd"
   xmlns:inkscape="http://www.inkscape.org/namespaces/inkscape"
   width="73.550774"
   height="108.25443"
   id="svg3031"
   version="1.1"
   inkscape:version="0.48.0 r9654"
   sodipodi:docname="spinky.svg"
   inkscape:export-filename="C:\Users\Jake\Documents\FlashDevelop\HumphreyRemastered\lib\ogmo\spinky.png"
   inkscape:export-xdpi="90"
   inkscape:export-ydpi="90">
  <defs
     id="defs3033" />
  <sodipodi:namedview
     id="base"
     pagecolor="#ffffff"
     bordercolor="#666666"
     borderopacity="1.0"
     inkscape:pageopacity="0.0"
     inkscape:pageshadow="2"
     inkscape:zoom="0.35"
     inkscape:cx="36.77539"
     inkscape:cy="54.127217"
     inkscape:document-units="px"
     inkscape:current-layer="layer1"
     showgrid="false"
     fit-margin-top="5"
     fit-margin-left="5"
     fit-margin-right="5"
     fit-margin-bottom="5"
     inkscape:window-width="469"
     inkscape:window-height="433"
     inkscape:window-x="75"
     inkscape:window-y="75"
     inkscape:window-maximized="0" />
  <metadata
     id="metadata3036">
    <rdf:RDF>
      <cc:Work
         rdf:about="">
        <dc:format>image/svg+xml</dc:format>
        <dc:type
           rdf:resource="http://purl.org/dc/dcmitype/StillImage" />
        <dc:title></dc:title>
      </cc:Work>
    </rdf:RDF>
  </metadata>
  <g
     inkscape:label="Layer 1"
     inkscape:groupmode="layer"
     id="layer1"
     transform="translate(-338.22461,-478.23497)">
    <path
       style="fill:#ffff00;fill-opacity:1;stroke:none"
       d="m 370.3093,577.57932 12.78199,-9.13136 3.5005,11.3169 -11.90615,1.72454 z"
       id="path3474"
       inkscape:connector-curvature="0"
       sodipodi:nodetypes="ccccc" />
    <path
       style="fill:#000000;fill-opacity:1;stroke:#1a1a1a;stroke-width:0.5;stroke-miterlimit:4;stroke-opacity:1;stroke-dasharray:none"
       d="m 348.73752,527.50067 -5.26291,16.01895 15.25072,-4.07957 z"
       id="path3476"
       inkscape:connector-curvature="0"
       sodipodi:nodetypes="cccc" />
    <path
       sodipodi:nodetypes="ccccc"
       inkscape:connector-curvature="0"
       id="path3478"
       d="m 349.10784,574.73251 12.78201,-9.13135 3.5005,11.3169 -11.90616,1.72451 z"
       style="fill:#ffff00;fill-opacity:1;stroke:none" />
    <path
       sodipodi:nodetypes="sccsss"
       inkscape:connector-curvature="0"
       id="path3480"
       d="m 365.57243,487.21233 c -8.44404,3.89026 -14.69811,10.71202 -15.2396,20.29093 l -3.51235,62.93007 c 21.23672,7.46949 35.01715,7.1759 52.52512,-0.94545 2.48621,-1.15327 0.73482,-61.52946 0.73482,-61.52946 -0.99529,-23.42287 -15.93127,-29.30474 -34.50799,-20.74609 z"
       style="fill:#000000;fill-opacity:1;stroke:#1a1a1a;stroke-width:0.5;stroke-miterlimit:4;stroke-opacity:1;stroke-dasharray:none" />
    <path
       style="fill:#ffff00;fill-opacity:1;stroke:none"
       d="m 364.51215,524.77172 -1.18771,-9.47219 c 7.33545,-3.13644 11.3285,1.01198 11.98658,2.56625 -1.32404,2.02539 -2.24744,4.00211 -10.79887,6.90594 z"
       id="path3482"
       inkscape:connector-curvature="0"
       sodipodi:nodetypes="cccc" />
    <path
       sodipodi:nodetypes="ccccc"
       inkscape:connector-curvature="0"
       id="path3484"
       d="m 375.98608,511.09947 c 3.24451,1.41926 4.87371,2.2524 6.52686,2.22715 l 1.66876,-4.89538 c -3.17264,-3.48915 -6.08725,-1.80346 -9.01491,-0.37973 z"
       style="fill:#ffffff;fill-opacity:1;stroke:none" />
    <path
       style="fill:#ffffff;fill-opacity:1;stroke:#1a1a1a;stroke-width:0.49999997;stroke-miterlimit:4;stroke-opacity:1;stroke-dasharray:none"
       d="m 349.96207,551.837 c 1.26863,-22.53274 36.18754,-24.86518 37.71037,0.31853 l 1.20064,19.85522 c -17.59369,4.44631 -22.70652,2.85743 -39.93873,-1.92021 z"
       id="path3490"
       inkscape:connector-curvature="0"
       sodipodi:nodetypes="ssccs" />
    <path
       style="fill:#000000;fill-opacity:1;stroke:#1a1a1a;stroke-width:0.5;stroke-miterlimit:4;stroke-opacity:1;stroke-dasharray:none"
       d="m 390.50906,541.59498 16.01632,6.15174 -5.4173,-18.62943 z"
       id="path3492"
       inkscape:connector-curvature="0"
       sodipodi:nodetypes="cccc" />
    <path
       style="fill:#ffffff;fill-opacity:1;stroke:none"
       d="m 364.46157,511.50102 c -3.12377,1.66955 -5.08446,2.2254 -6.73451,2.32994 l -2.01439,-4.28091 c 2.34435,-2.10768 5.27427,-3.71473 9.35911,-1.08604 z"
       id="path3494"
       inkscape:connector-curvature="0"
       sodipodi:nodetypes="ccccc" />
  </g>
</svg>
