<?xml version="1.0" encoding="UTF-8" standalone="no"?>
<!-- Created with Inkscape (http://www.inkscape.org/) -->

<svg
   xmlns:dc="http://purl.org/dc/elements/1.1/"
   xmlns:cc="http://creativecommons.org/ns#"
   xmlns:rdf="http://www.w3.org/1999/02/22-rdf-syntax-ns#"
   xmlns:svg="http://www.w3.org/2000/svg"
   xmlns="http://www.w3.org/2000/svg"
   xmlns:sodipodi="http://sodipodi.sourceforge.net/DTD/sodipodi-0.dtd"
   xmlns:inkscape="http://www.inkscape.org/namespaces/inkscape"
   width="959.62036"
   height="436.99277"
   id="svg2987"
   version="1.1"
   inkscape:version="0.48.0 r9654"
   sodipodi:docname="balloon-cost-abe.svg"
   inkscape:export-filename="C:\Users\Jake\Documents\FlashDevelop\HumphreyRemastered\lib\art\thoughts\balloon-cost-abe.png"
   inkscape:export-xdpi="90"
   inkscape:export-ydpi="90">
  <defs
     id="defs2989">
    <filter
       color-interpolation-filters="sRGB"
       inkscape:collect="always"
       id="filter4031"
       x="-0.067885756"
       width="1.1357715"
       y="-0.16518869"
       height="1.3303775">
      <feGaussianBlur
         inkscape:collect="always"
         stdDeviation="4.4246968"
         id="feGaussianBlur4033" />
    </filter>
  </defs>
  <sodipodi:namedview
     id="base"
     pagecolor="#ffffff"
     bordercolor="#666666"
     borderopacity="1.0"
     inkscape:pageopacity="0.0"
     inkscape:pageshadow="2"
     inkscape:zoom="0.98994949"
     inkscape:cx="947.66853"
     inkscape:cy="103.84971"
     inkscape:document-units="px"
     inkscape:current-layer="layer1"
     showgrid="false"
     inkscape:window-width="1440"
     inkscape:window-height="838"
     inkscape:window-x="-8"
     inkscape:window-y="-8"
     inkscape:window-maximized="1"
     fit-margin-top="0"
     fit-margin-left="0"
     fit-margin-right="0"
     fit-margin-bottom="0" />
  <metadata
     id="metadata2992">
    <rdf:RDF>
      <cc:Work
         rdf:about="">
        <dc:format>image/svg+xml</dc:format>
        <dc:type
           rdf:resource="http://purl.org/dc/dcmitype/StillImage" />
        <dc:title></dc:title>
      </cc:Work>
    </rdf:RDF>
  </metadata>
  <g
     inkscape:label="Layer 1"
     inkscape:groupmode="layer"
     id="layer1"
     transform="translate(4.375,-649.95593)">
    <path
       style="color:#000000;fill:#ffffff;fill-opacity:1;fill-rule:nonzero;stroke:#686868;stroke-width:5.00000048;stroke-linecap:butt;stroke-linejoin:miter;stroke-miterlimit:4;stroke-opacity:1;stroke-dasharray:none;stroke-dashoffset:0;marker:none;visibility:visible;display:inline;overflow:visible;enable-background:accumulate"
       d="m 794.54194,837.13162 c -19.78497,-0.35795 -43.43086,9.45008 -49.92405,33.712 -0.93804,7.74394 0.68033,14.47705 -8.01681,10.74476 -20.93655,-1.1285 -46.26786,8.9387 -53.97437,34.07415 -6.23514,11.98466 6.54938,26.86969 5.5514,33.73824 -48.91772,35.9003 -38.59487,113.13423 29.42131,91.47223 4.17523,26.9515 28.78896,40.7644 49.83863,43.1422 19.33174,2.1456 40.91853,-3.3255 54.33271,-20.9547 27.39812,12.1675 62.80277,4.1944 80.74712,-24.3538 7.39104,-11.9935 13.25581,-23.9058 5.42665,-35.8815 16.88827,-1.9406 30.82852,-7.43076 42.23645,-22.99933 7.65157,-15.15213 -3.33192,-31.33036 -11.02752,-42.99365 -6.16246,-14.2729 -28.14001,-10.27667 -25.76199,-27.84338 -6.16531,-26.75868 -31.40751,-39.75651 -53.20507,-40.37704 -9.24297,-1.17253 -19.70077,7.45772 -21.65618,-7.63689 -9.66716,-16.57735 -27.58197,-23.44827 -43.98828,-23.84329 z"
       id="path3953"
       inkscape:connector-curvature="0"
       sodipodi:nodetypes="cccccccccccccccc" />
    <path
       sodipodi:type="arc"
       style="color:#000000;fill:#ffffff;fill-opacity:1;fill-rule:nonzero;stroke:#686868;stroke-width:8.35480881;stroke-linecap:butt;stroke-linejoin:miter;stroke-miterlimit:4;stroke-opacity:1;stroke-dasharray:none;stroke-dashoffset:0;marker:none;visibility:visible;display:inline;overflow:visible;enable-background:accumulate"
       id="path3986"
       sodipodi:cx="490.71429"
       sodipodi:cy="493.57144"
       sodipodi:rx="26.428572"
       sodipodi:ry="23.571428"
       d="m 517.14287,493.57144 c 0,13.01814 -11.83248,23.57143 -26.42858,23.57143 -14.59609,0 -26.42857,-10.55329 -26.42857,-23.57143 0,-13.01814 11.83248,-23.57143 26.42857,-23.57143 14.5961,0 26.42858,10.55329 26.42858,23.57143 z"
       transform="matrix(-0.33458361,0.43785386,-0.51642285,-0.39462168,1104.6416,927.51521)" />
    <path
       transform="matrix(-0.38422745,0.16675003,-0.19602158,-0.45167529,930.39761,1092.1621)"
       d="m 517.14287,493.57144 c 0,13.01814 -11.83248,23.57143 -26.42858,23.57143 -14.59609,0 -26.42857,-10.55329 -26.42857,-23.57143 0,-13.01814 11.83248,-23.57143 26.42857,-23.57143 14.5961,0 26.42858,10.55329 26.42858,23.57143 z"
       sodipodi:ry="23.571428"
       sodipodi:rx="26.428572"
       sodipodi:cy="493.57144"
       sodipodi:cx="490.71429"
       id="path3988"
       style="color:#000000;fill:#ffffff;fill-opacity:1;fill-rule:nonzero;stroke:#686868;stroke-width:11.01010132;stroke-linecap:butt;stroke-linejoin:miter;stroke-miterlimit:4;stroke-opacity:1;stroke-dasharray:none;stroke-dashoffset:0;marker:none;visibility:visible;display:inline;overflow:visible;enable-background:accumulate"
       sodipodi:type="arc" />
    <path
       sodipodi:type="arc"
       style="color:#000000;fill:#ffffff;fill-opacity:1;fill-rule:nonzero;stroke:#686868;stroke-width:16.13961411;stroke-linecap:butt;stroke-linejoin:miter;stroke-miterlimit:4;stroke-opacity:1;stroke-dasharray:none;stroke-dashoffset:0;marker:none;visibility:visible;display:inline;overflow:visible;enable-background:accumulate"
       id="path3990"
       sodipodi:cx="490.71429"
       sodipodi:cy="493.57144"
       sodipodi:rx="26.428572"
       sodipodi:ry="23.571428"
       d="m 517.14287,493.57144 c 0,13.01814 -11.83248,23.57143 -26.42858,23.57143 -14.59609,0 -26.42857,-10.55329 -26.42857,-23.57143 0,-13.01814 11.83248,-23.57143 26.42857,-23.57143 14.5961,0 26.42858,10.55329 26.42858,23.57143 z"
       transform="matrix(-0.26295157,0.11411778,-0.13329466,-0.30713917,807.15477,1028.484)" />
    <g
       id="g3011"
       transform="matrix(0.60113881,0,0,0.60113881,409.2268,468.93591)">
      <path
         transform="matrix(0.76755448,0,0,0.76755448,476.37993,759.3189)"
         d="m 233.57143,162.85715 c 0,17.75201 -35.01772,32.14285 -78.21428,32.14285 -43.19656,0 -78.21429,-14.39084 -78.21429,-32.14285 0,-17.75201 35.01773,-32.14286 78.21429,-32.14286 43.19656,0 78.21428,14.39085 78.21428,32.14286 z"
         sodipodi:ry="32.142857"
         sodipodi:rx="78.214287"
         sodipodi:cy="162.85715"
         sodipodi:cx="155.35715"
         id="path4029"
         style="opacity:0.80769228;color:#000000;fill:#000000;fill-opacity:1;fill-rule:nonzero;stroke:none;stroke-width:5;marker:none;visibility:visible;display:inline;overflow:visible;filter:url(#filter4031);enable-background:accumulate"
         sodipodi:type="arc" />
      <g
         transform="matrix(0.76755448,0,0,0.76755448,476.1972,420.13591)"
         id="g4022">
        <path
           style="color:#000000;fill:#28170b;fill-opacity:1;fill-rule:nonzero;stroke:#000000;stroke-width:0.26056787;stroke-linecap:butt;stroke-linejoin:miter;stroke-miterlimit:4;stroke-opacity:1;stroke-dashoffset:0;marker:none;visibility:visible;display:inline;overflow:visible;enable-background:accumulate"
           d="m 108.98487,630.90358 c 36.08242,16.18316 86.54572,5.80275 112.71291,-20.25438 10.34329,-10.29989 13.07219,-23.13448 13.10718,-34.37132 0.0533,-17.19065 -160.183465,-6.50813 -161.312256,3.36653 -0.538433,4.70807 -0.454318,10.32251 0.949182,15.20959 4.173733,14.53084 16.870647,28.12271 34.542984,36.04958 z"
           id="path2987"
           inkscape:connector-curvature="0"
           sodipodi:nodetypes="ssssss" />
        <path
           sodipodi:type="arc"
           style="color:#000000;fill:#371f0f;fill-opacity:1;fill-rule:nonzero;stroke:#000000;stroke-width:0.11612806;stroke-linecap:butt;stroke-linejoin:miter;stroke-miterlimit:4;stroke-opacity:1;stroke-dasharray:none;stroke-dashoffset:0;marker:none;visibility:visible;display:inline;overflow:visible;enable-background:accumulate"
           id="path2985"
           sodipodi:cx="16.667517"
           sodipodi:cy="23.088821"
           sodipodi:rx="29.7995"
           sodipodi:ry="29.7995"
           d="m 46.467016,23.088821 c 0,16.45781 -13.34169,29.7995 -29.799499,29.7995 -16.45780942,0 -29.7995,-13.34169 -29.7995,-29.7995 0,-16.4578087 13.34169058,-29.7994991 29.7995,-29.7994991 16.457809,0 29.799499,13.3416904 29.799499,29.7994991 z"
           transform="matrix(-1.5899531,1.5832618,2.1924215,0.98333107,129.97481,527.03705)" />
        <g
           id="g4316"
           transform="matrix(0.71706686,-1.9637294,-2.9742279,-0.66680274,3160.7353,1318.5672)"
           style="fill:#947560;fill-opacity:1"
           inkscape:export-xdpi="30.537924"
           inkscape:export-ydpi="30.537924">
          <path
             style="font-size:62.24206543px;font-style:normal;font-variant:normal;font-weight:normal;font-stretch:normal;line-height:125%;letter-spacing:0px;word-spacing:0px;fill:#947560;fill-opacity:1;stroke:none;font-family:Calibri;-inkscape-font-specification:Calibri"
             d="m 23.65625,11.46875 c 0.250035,0.2037 0.590018,0.52095 1,0.90625 0.446576,0.419745 1.006585,0.939772 1.59375,1.53125 -0.558229,0.497593 -1.06361,1.010437 -1.5,1.5625 -0.994564,1.258269 -1.615371,2.637498 -1.8125,4.125 -0.197106,1.487546 0.06666,3.065585 0.78125,4.78125 0.714611,1.715698 1.989639,3.544106 3.8125,5.4375 1.603583,1.665639 3.257501,2.985008 4.96875,3.96875 1.711253,0.983757 3.452389,1.615356 5.21875,1.9375 1.766355,0.322155 3.564942,0.30379 5.375,-0.0625 1.021322,-0.206674 2.021475,-0.540278 3.03125,-0.96875 0.871365,0.890944 1.648459,1.696484 2.25,2.25 0.384117,0.3534 1.5,-0.625 1.5,-0.625 0.290119,-0.1738 0.233142,-0.51425 -0.125,-0.84375 -0.45708,-0.42059 -1.077076,-1.021813 -1.75,-1.6875 0.154865,-0.08734 0.31416,-0.157363 0.46875,-0.25 0.859437,-0.515013 1.631243,-1.077219 2.3125,-1.6875 0.681225,-0.610262 1.262983,-1.226395 1.75,-1.84375 0.486981,-0.617333 0.861202,-1.220382 1.15625,-1.8125 0.29501,-0.592092 0.473975,-1.060061 0.53125,-1.375 0.05724,-0.314911 0.08757,-0.525348 0.0625,-0.65625 -0.02511,-0.130872 -0.08549,-0.289083 -0.15625,-0.4375 -0.0708,-0.148386 -0.159483,-0.311075 -0.3125,-0.5 -0.153055,-0.188894 -0.36077,-0.414219 -0.59375,-0.65625 -0.274134,-0.284706 -0.523855,-0.497496 -0.75,-0.6875 -0.226181,-0.18997 -0.430811,-0.340592 -0.625,-0.4375 -0.194224,-0.09687 -0.385013,-0.154077 -0.53125,-0.15625 -0.146271,-0.0021 -0.278263,0.04831 -0.40625,0.125 -0.219451,0.131512 -0.409214,0.42154 -0.5625,0.90625 -0.153318,0.484743 -0.343674,1.067515 -0.625,1.71875 -0.281356,0.651265 -0.710411,1.335074 -1.25,2.0625 -0.539616,0.727452 -1.332698,1.406662 -2.375,2.03125 C 45.728022,30.344161 45.371038,30.518787 45,30.6875 42.926548,28.521448 32.990844,17.980982 30.71875,15.625 c 0.236554,-0.173852 0.477993,-0.336998 0.75,-0.5 1.060603,-0.635531 2.090441,-1.081659 3.09375,-1.3125 1.003309,-0.230786 1.927296,-0.362209 2.75,-0.40625 0.822699,-0.04399 1.511019,-0.05244 2.09375,-0.03125 0.582721,0.02125 1.038201,-0.05435 1.3125,-0.21875 0.237714,-0.142424 0.329107,-0.36819 0.28125,-0.6875 -0.04787,-0.319252 -0.34048,-0.757261 -0.875,-1.3125 -0.246709,-0.25622 -0.473499,-0.465094 -0.65625,-0.625 C 39.28599,10.371405 39.091309,10.227401 38.90625,10.125 38.721182,10.022661 38.553225,9.9566237 38.375,9.90625 38.196768,9.8559388 37.915151,9.7893705 37.53125,9.75 37.147343,9.7106924 36.592581,9.7329119 35.875,9.78125 35.157416,9.829651 34.393657,9.9375329 33.59375,10.125 c -0.799905,0.187529 -1.618509,0.451375 -2.46875,0.78125 -0.850234,0.329935 -1.651188,0.74759 -2.4375,1.21875 -0.288835,0.173088 -0.574849,0.34925 -0.84375,0.53125 -0.665847,-0.673298 -1.299692,-1.267999 -1.8125,-1.75 -0.429875,-0.404 -0.611604,-0.5578 -0.924107,-0.8125 -0.312503,-0.2547 -1.567522,1.279939 -1.450893,1.375 z m 5.625,5.5625 c 2.256754,2.34057 11.687566,12.328419 13.625,14.34375 -0.05266,0.01034 -0.103491,0.02188 -0.15625,0.03125 -1.144991,0.203474 -2.311792,0.181998 -3.5,-0.09375 -1.188217,-0.275728 -2.3943,-0.810827 -3.59375,-1.5625 -1.199452,-0.75165 -2.401345,-1.730192 -3.59375,-2.96875 -2.384803,-2.477072 -3.625839,-4.720298 -3.71875,-6.71875 -0.05206,-1.119845 0.277079,-2.129455 0.9375,-3.03125 z"
             transform="translate(-5.0464296,996.63433)"
             id="text4331"
             inkscape:connector-curvature="0"
             sodipodi:nodetypes="cccccssssscccccsscccccccccccccsscccccccccccccccccccsccccccssc" />
        </g>
        <path
           transform="matrix(-1.476554,1.4638649,2.036053,0.90917606,131.10373,529.73214)"
           d="m 46.467016,23.088821 c 0,16.45781 -13.34169,29.7995 -29.799499,29.7995 -16.45780942,0 -29.7995,-13.34169 -29.7995,-29.7995 0,-16.4578087 13.34169058,-29.7994991 29.7995,-29.7994991 16.457809,0 29.799499,13.3416904 29.799499,29.7994991 z"
           sodipodi:ry="29.7995"
           sodipodi:rx="29.7995"
           sodipodi:cy="23.088821"
           sodipodi:cx="16.667517"
           id="path4321"
           style="color:#000000;fill:none;stroke:#947560;stroke-width:0.43863007;stroke-linecap:butt;stroke-linejoin:miter;stroke-miterlimit:4;stroke-opacity:1;stroke-dasharray:none;stroke-dashoffset:0;marker:none;visibility:visible;display:inline;overflow:visible;enable-background:accumulate"
           sodipodi:type="arc" />
      </g>
    </g>
    <g
       transform="matrix(0.60113881,0,0,0.60113881,421.95211,399.5842)"
       id="g3020">
      <path
         sodipodi:type="arc"
         style="opacity:0.80769228;color:#000000;fill:#000000;fill-opacity:1;fill-rule:nonzero;stroke:none;stroke-width:5;marker:none;visibility:visible;display:inline;overflow:visible;filter:url(#filter4031);enable-background:accumulate"
         id="path3022"
         sodipodi:cx="155.35715"
         sodipodi:cy="162.85715"
         sodipodi:rx="78.214287"
         sodipodi:ry="32.142857"
         d="m 233.57143,162.85715 c 0,17.75201 -35.01772,32.14285 -78.21428,32.14285 -43.19656,0 -78.21429,-14.39084 -78.21429,-32.14285 0,-17.75201 35.01773,-32.14286 78.21429,-32.14286 43.19656,0 78.21428,14.39085 78.21428,32.14286 z"
         transform="matrix(0.76755448,0,0,0.76755448,476.37993,759.3189)" />
      <g
         id="g3024"
         transform="matrix(0.76755448,0,0,0.76755448,476.1972,420.13591)">
        <path
           sodipodi:nodetypes="ssssss"
           inkscape:connector-curvature="0"
           id="path3026"
           d="m 108.98487,630.90358 c 36.08242,16.18316 86.54572,5.80275 112.71291,-20.25438 10.34329,-10.29989 13.07219,-23.13448 13.10718,-34.37132 0.0533,-17.19065 -160.183465,-6.50813 -161.312256,3.36653 -0.538433,4.70807 -0.454318,10.32251 0.949182,15.20959 4.173733,14.53084 16.870647,28.12271 34.542984,36.04958 z"
           style="color:#000000;fill:#28170b;fill-opacity:1;fill-rule:nonzero;stroke:#000000;stroke-width:0.26056787;stroke-linecap:butt;stroke-linejoin:miter;stroke-miterlimit:4;stroke-opacity:1;stroke-dashoffset:0;marker:none;visibility:visible;display:inline;overflow:visible;enable-background:accumulate" />
        <path
           transform="matrix(-1.5899531,1.5832618,2.1924215,0.98333107,129.97481,527.03705)"
           d="m 46.467016,23.088821 c 0,16.45781 -13.34169,29.7995 -29.799499,29.7995 -16.45780942,0 -29.7995,-13.34169 -29.7995,-29.7995 0,-16.4578087 13.34169058,-29.7994991 29.7995,-29.7994991 16.457809,0 29.799499,13.3416904 29.799499,29.7994991 z"
           sodipodi:ry="29.7995"
           sodipodi:rx="29.7995"
           sodipodi:cy="23.088821"
           sodipodi:cx="16.667517"
           id="path3028"
           style="color:#000000;fill:#371f0f;fill-opacity:1;fill-rule:nonzero;stroke:#000000;stroke-width:0.11612806;stroke-linecap:butt;stroke-linejoin:miter;stroke-miterlimit:4;stroke-opacity:1;stroke-dasharray:none;stroke-dashoffset:0;marker:none;visibility:visible;display:inline;overflow:visible;enable-background:accumulate"
           sodipodi:type="arc" />
        <g
           inkscape:export-ydpi="30.537924"
           inkscape:export-xdpi="30.537924"
           style="fill:#947560;fill-opacity:1"
           transform="matrix(0.71706686,-1.9637294,-2.9742279,-0.66680274,3160.7353,1318.5672)"
           id="g3030">
          <path
             sodipodi:nodetypes="cccccssssscccccsscccccccccccccsscccccccccccccccccccsccccccssc"
             inkscape:connector-curvature="0"
             id="path3032"
             transform="translate(-5.0464296,996.63433)"
             d="m 23.65625,11.46875 c 0.250035,0.2037 0.590018,0.52095 1,0.90625 0.446576,0.419745 1.006585,0.939772 1.59375,1.53125 -0.558229,0.497593 -1.06361,1.010437 -1.5,1.5625 -0.994564,1.258269 -1.615371,2.637498 -1.8125,4.125 -0.197106,1.487546 0.06666,3.065585 0.78125,4.78125 0.714611,1.715698 1.989639,3.544106 3.8125,5.4375 1.603583,1.665639 3.257501,2.985008 4.96875,3.96875 1.711253,0.983757 3.452389,1.615356 5.21875,1.9375 1.766355,0.322155 3.564942,0.30379 5.375,-0.0625 1.021322,-0.206674 2.021475,-0.540278 3.03125,-0.96875 0.871365,0.890944 1.648459,1.696484 2.25,2.25 0.384117,0.3534 1.5,-0.625 1.5,-0.625 0.290119,-0.1738 0.233142,-0.51425 -0.125,-0.84375 -0.45708,-0.42059 -1.077076,-1.021813 -1.75,-1.6875 0.154865,-0.08734 0.31416,-0.157363 0.46875,-0.25 0.859437,-0.515013 1.631243,-1.077219 2.3125,-1.6875 0.681225,-0.610262 1.262983,-1.226395 1.75,-1.84375 0.486981,-0.617333 0.861202,-1.220382 1.15625,-1.8125 0.29501,-0.592092 0.473975,-1.060061 0.53125,-1.375 0.05724,-0.314911 0.08757,-0.525348 0.0625,-0.65625 -0.02511,-0.130872 -0.08549,-0.289083 -0.15625,-0.4375 -0.0708,-0.148386 -0.159483,-0.311075 -0.3125,-0.5 -0.153055,-0.188894 -0.36077,-0.414219 -0.59375,-0.65625 -0.274134,-0.284706 -0.523855,-0.497496 -0.75,-0.6875 -0.226181,-0.18997 -0.430811,-0.340592 -0.625,-0.4375 -0.194224,-0.09687 -0.385013,-0.154077 -0.53125,-0.15625 -0.146271,-0.0021 -0.278263,0.04831 -0.40625,0.125 -0.219451,0.131512 -0.409214,0.42154 -0.5625,0.90625 -0.153318,0.484743 -0.343674,1.067515 -0.625,1.71875 -0.281356,0.651265 -0.710411,1.335074 -1.25,2.0625 -0.539616,0.727452 -1.332698,1.406662 -2.375,2.03125 C 45.728022,30.344161 45.371038,30.518787 45,30.6875 42.926548,28.521448 32.990844,17.980982 30.71875,15.625 c 0.236554,-0.173852 0.477993,-0.336998 0.75,-0.5 1.060603,-0.635531 2.090441,-1.081659 3.09375,-1.3125 1.003309,-0.230786 1.927296,-0.362209 2.75,-0.40625 0.822699,-0.04399 1.511019,-0.05244 2.09375,-0.03125 0.582721,0.02125 1.038201,-0.05435 1.3125,-0.21875 0.237714,-0.142424 0.329107,-0.36819 0.28125,-0.6875 -0.04787,-0.319252 -0.34048,-0.757261 -0.875,-1.3125 -0.246709,-0.25622 -0.473499,-0.465094 -0.65625,-0.625 C 39.28599,10.371405 39.091309,10.227401 38.90625,10.125 38.721182,10.022661 38.553225,9.9566237 38.375,9.90625 38.196768,9.8559388 37.915151,9.7893705 37.53125,9.75 37.147343,9.7106924 36.592581,9.7329119 35.875,9.78125 35.157416,9.829651 34.393657,9.9375329 33.59375,10.125 c -0.799905,0.187529 -1.618509,0.451375 -2.46875,0.78125 -0.850234,0.329935 -1.651188,0.74759 -2.4375,1.21875 -0.288835,0.173088 -0.574849,0.34925 -0.84375,0.53125 -0.665847,-0.673298 -1.299692,-1.267999 -1.8125,-1.75 -0.429875,-0.404 -0.611604,-0.5578 -0.924107,-0.8125 -0.312503,-0.2547 -1.567522,1.279939 -1.450893,1.375 z m 5.625,5.5625 c 2.256754,2.34057 11.687566,12.328419 13.625,14.34375 -0.05266,0.01034 -0.103491,0.02188 -0.15625,0.03125 -1.144991,0.203474 -2.311792,0.181998 -3.5,-0.09375 -1.188217,-0.275728 -2.3943,-0.810827 -3.59375,-1.5625 -1.199452,-0.75165 -2.401345,-1.730192 -3.59375,-2.96875 -2.384803,-2.477072 -3.625839,-4.720298 -3.71875,-6.71875 -0.05206,-1.119845 0.277079,-2.129455 0.9375,-3.03125 z"
             style="font-size:62.24206543px;font-style:normal;font-variant:normal;font-weight:normal;font-stretch:normal;line-height:125%;letter-spacing:0px;word-spacing:0px;fill:#947560;fill-opacity:1;stroke:none;font-family:Calibri;-inkscape-font-specification:Calibri" />
        </g>
        <path
           sodipodi:type="arc"
           style="color:#000000;fill:none;stroke:#947560;stroke-width:0.43863007;stroke-linecap:butt;stroke-linejoin:miter;stroke-miterlimit:4;stroke-opacity:1;stroke-dasharray:none;stroke-dashoffset:0;marker:none;visibility:visible;display:inline;overflow:visible;enable-background:accumulate"
           id="path3034"
           sodipodi:cx="16.667517"
           sodipodi:cy="23.088821"
           sodipodi:rx="29.7995"
           sodipodi:ry="29.7995"
           d="m 46.467016,23.088821 c 0,16.45781 -13.34169,29.7995 -29.799499,29.7995 -16.45780942,0 -29.7995,-13.34169 -29.7995,-29.7995 0,-16.4578087 13.34169058,-29.7994991 29.7995,-29.7994991 16.457809,0 29.799499,13.3416904 29.799499,29.7994991 z"
           transform="matrix(-1.476554,1.4638649,2.036053,0.90917606,131.10373,529.73214)" />
      </g>
    </g>
    <g
       id="g3036"
       transform="matrix(0.60113881,0,0,0.60113881,497.2628,439.87305)">
      <path
         transform="matrix(0.76755448,0,0,0.76755448,476.37993,759.3189)"
         d="m 233.57143,162.85715 c 0,17.75201 -35.01772,32.14285 -78.21428,32.14285 -43.19656,0 -78.21429,-14.39084 -78.21429,-32.14285 0,-17.75201 35.01773,-32.14286 78.21429,-32.14286 43.19656,0 78.21428,14.39085 78.21428,32.14286 z"
         sodipodi:ry="32.142857"
         sodipodi:rx="78.214287"
         sodipodi:cy="162.85715"
         sodipodi:cx="155.35715"
         id="path3038"
         style="opacity:0.80769228;color:#000000;fill:#000000;fill-opacity:1;fill-rule:nonzero;stroke:none;stroke-width:5;marker:none;visibility:visible;display:inline;overflow:visible;filter:url(#filter4031);enable-background:accumulate"
         sodipodi:type="arc" />
      <g
         transform="matrix(0.76755448,0,0,0.76755448,476.1972,420.13591)"
         id="g3040">
        <path
           style="color:#000000;fill:#28170b;fill-opacity:1;fill-rule:nonzero;stroke:#000000;stroke-width:0.26056787;stroke-linecap:butt;stroke-linejoin:miter;stroke-miterlimit:4;stroke-opacity:1;stroke-dashoffset:0;marker:none;visibility:visible;display:inline;overflow:visible;enable-background:accumulate"
           d="m 108.98487,630.90358 c 36.08242,16.18316 86.54572,5.80275 112.71291,-20.25438 10.34329,-10.29989 13.07219,-23.13448 13.10718,-34.37132 0.0533,-17.19065 -160.183465,-6.50813 -161.312256,3.36653 -0.538433,4.70807 -0.454318,10.32251 0.949182,15.20959 4.173733,14.53084 16.870647,28.12271 34.542984,36.04958 z"
           id="path3042"
           inkscape:connector-curvature="0"
           sodipodi:nodetypes="ssssss" />
        <path
           sodipodi:type="arc"
           style="color:#000000;fill:#371f0f;fill-opacity:1;fill-rule:nonzero;stroke:#000000;stroke-width:0.11612806;stroke-linecap:butt;stroke-linejoin:miter;stroke-miterlimit:4;stroke-opacity:1;stroke-dasharray:none;stroke-dashoffset:0;marker:none;visibility:visible;display:inline;overflow:visible;enable-background:accumulate"
           id="path3044"
           sodipodi:cx="16.667517"
           sodipodi:cy="23.088821"
           sodipodi:rx="29.7995"
           sodipodi:ry="29.7995"
           d="m 46.467016,23.088821 c 0,16.45781 -13.34169,29.7995 -29.799499,29.7995 -16.45780942,0 -29.7995,-13.34169 -29.7995,-29.7995 0,-16.4578087 13.34169058,-29.7994991 29.7995,-29.7994991 16.457809,0 29.799499,13.3416904 29.799499,29.7994991 z"
           transform="matrix(-1.5899531,1.5832618,2.1924215,0.98333107,129.97481,527.03705)" />
        <g
           id="g3046"
           transform="matrix(0.71706686,-1.9637294,-2.9742279,-0.66680274,3160.7353,1318.5672)"
           style="fill:#947560;fill-opacity:1"
           inkscape:export-xdpi="30.537924"
           inkscape:export-ydpi="30.537924">
          <path
             style="font-size:62.24206543px;font-style:normal;font-variant:normal;font-weight:normal;font-stretch:normal;line-height:125%;letter-spacing:0px;word-spacing:0px;fill:#947560;fill-opacity:1;stroke:none;font-family:Calibri;-inkscape-font-specification:Calibri"
             d="m 23.65625,11.46875 c 0.250035,0.2037 0.590018,0.52095 1,0.90625 0.446576,0.419745 1.006585,0.939772 1.59375,1.53125 -0.558229,0.497593 -1.06361,1.010437 -1.5,1.5625 -0.994564,1.258269 -1.615371,2.637498 -1.8125,4.125 -0.197106,1.487546 0.06666,3.065585 0.78125,4.78125 0.714611,1.715698 1.989639,3.544106 3.8125,5.4375 1.603583,1.665639 3.257501,2.985008 4.96875,3.96875 1.711253,0.983757 3.452389,1.615356 5.21875,1.9375 1.766355,0.322155 3.564942,0.30379 5.375,-0.0625 1.021322,-0.206674 2.021475,-0.540278 3.03125,-0.96875 0.871365,0.890944 1.648459,1.696484 2.25,2.25 0.384117,0.3534 1.5,-0.625 1.5,-0.625 0.290119,-0.1738 0.233142,-0.51425 -0.125,-0.84375 -0.45708,-0.42059 -1.077076,-1.021813 -1.75,-1.6875 0.154865,-0.08734 0.31416,-0.157363 0.46875,-0.25 0.859437,-0.515013 1.631243,-1.077219 2.3125,-1.6875 0.681225,-0.610262 1.262983,-1.226395 1.75,-1.84375 0.486981,-0.617333 0.861202,-1.220382 1.15625,-1.8125 0.29501,-0.592092 0.473975,-1.060061 0.53125,-1.375 0.05724,-0.314911 0.08757,-0.525348 0.0625,-0.65625 -0.02511,-0.130872 -0.08549,-0.289083 -0.15625,-0.4375 -0.0708,-0.148386 -0.159483,-0.311075 -0.3125,-0.5 -0.153055,-0.188894 -0.36077,-0.414219 -0.59375,-0.65625 -0.274134,-0.284706 -0.523855,-0.497496 -0.75,-0.6875 -0.226181,-0.18997 -0.430811,-0.340592 -0.625,-0.4375 -0.194224,-0.09687 -0.385013,-0.154077 -0.53125,-0.15625 -0.146271,-0.0021 -0.278263,0.04831 -0.40625,0.125 -0.219451,0.131512 -0.409214,0.42154 -0.5625,0.90625 -0.153318,0.484743 -0.343674,1.067515 -0.625,1.71875 -0.281356,0.651265 -0.710411,1.335074 -1.25,2.0625 -0.539616,0.727452 -1.332698,1.406662 -2.375,2.03125 C 45.728022,30.344161 45.371038,30.518787 45,30.6875 42.926548,28.521448 32.990844,17.980982 30.71875,15.625 c 0.236554,-0.173852 0.477993,-0.336998 0.75,-0.5 1.060603,-0.635531 2.090441,-1.081659 3.09375,-1.3125 1.003309,-0.230786 1.927296,-0.362209 2.75,-0.40625 0.822699,-0.04399 1.511019,-0.05244 2.09375,-0.03125 0.582721,0.02125 1.038201,-0.05435 1.3125,-0.21875 0.237714,-0.142424 0.329107,-0.36819 0.28125,-0.6875 -0.04787,-0.319252 -0.34048,-0.757261 -0.875,-1.3125 -0.246709,-0.25622 -0.473499,-0.465094 -0.65625,-0.625 C 39.28599,10.371405 39.091309,10.227401 38.90625,10.125 38.721182,10.022661 38.553225,9.9566237 38.375,9.90625 38.196768,9.8559388 37.915151,9.7893705 37.53125,9.75 37.147343,9.7106924 36.592581,9.7329119 35.875,9.78125 35.157416,9.829651 34.393657,9.9375329 33.59375,10.125 c -0.799905,0.187529 -1.618509,0.451375 -2.46875,0.78125 -0.850234,0.329935 -1.651188,0.74759 -2.4375,1.21875 -0.288835,0.173088 -0.574849,0.34925 -0.84375,0.53125 -0.665847,-0.673298 -1.299692,-1.267999 -1.8125,-1.75 -0.429875,-0.404 -0.611604,-0.5578 -0.924107,-0.8125 -0.312503,-0.2547 -1.567522,1.279939 -1.450893,1.375 z m 5.625,5.5625 c 2.256754,2.34057 11.687566,12.328419 13.625,14.34375 -0.05266,0.01034 -0.103491,0.02188 -0.15625,0.03125 -1.144991,0.203474 -2.311792,0.181998 -3.5,-0.09375 -1.188217,-0.275728 -2.3943,-0.810827 -3.59375,-1.5625 -1.199452,-0.75165 -2.401345,-1.730192 -3.59375,-2.96875 -2.384803,-2.477072 -3.625839,-4.720298 -3.71875,-6.71875 -0.05206,-1.119845 0.277079,-2.129455 0.9375,-3.03125 z"
             transform="translate(-5.0464296,996.63433)"
             id="path3048"
             inkscape:connector-curvature="0"
             sodipodi:nodetypes="cccccssssscccccsscccccccccccccsscccccccccccccccccccsccccccssc" />
        </g>
        <path
           transform="matrix(-1.476554,1.4638649,2.036053,0.90917606,131.10373,529.73214)"
           d="m 46.467016,23.088821 c 0,16.45781 -13.34169,29.7995 -29.799499,29.7995 -16.45780942,0 -29.7995,-13.34169 -29.7995,-29.7995 0,-16.4578087 13.34169058,-29.7994991 29.7995,-29.7994991 16.457809,0 29.799499,13.3416904 29.799499,29.7994991 z"
           sodipodi:ry="29.7995"
           sodipodi:rx="29.7995"
           sodipodi:cy="23.088821"
           sodipodi:cx="16.667517"
           id="path3050"
           style="color:#000000;fill:none;stroke:#947560;stroke-width:0.43863007;stroke-linecap:butt;stroke-linejoin:miter;stroke-miterlimit:4;stroke-opacity:1;stroke-dasharray:none;stroke-dashoffset:0;marker:none;visibility:visible;display:inline;overflow:visible;enable-background:accumulate"
           sodipodi:type="arc" />
      </g>
    </g>
  </g>
</svg>
