<?xml version="1.0" encoding="UTF-8" standalone="no"?>
<!-- Created with Inkscape (http://www.inkscape.org/) -->

<svg
   xmlns:dc="http://purl.org/dc/elements/1.1/"
   xmlns:cc="http://creativecommons.org/ns#"
   xmlns:rdf="http://www.w3.org/1999/02/22-rdf-syntax-ns#"
   xmlns:svg="http://www.w3.org/2000/svg"
   xmlns="http://www.w3.org/2000/svg"
   xmlns:xlink="http://www.w3.org/1999/xlink"
   xmlns:sodipodi="http://sodipodi.sourceforge.net/DTD/sodipodi-0.dtd"
   xmlns:inkscape="http://www.inkscape.org/namespaces/inkscape"
   width="600"
   height="600"
   id="svg2987"
   version="1.1"
   inkscape:version="0.48.0 r9654"
   sodipodi:docname="city.svg"
   inkscape:export-filename="C:\Users\Jake\Documents\FlashDevelop\HumphreyRemastered\lib\art\thoughts\city.png"
   inkscape:export-xdpi="90"
   inkscape:export-ydpi="90">
  <defs
     id="defs2989">
    <linearGradient
       inkscape:collect="always"
       id="linearGradient4334">
      <stop
         style="stop-color:#ffffff;stop-opacity:0"
         offset="0"
         id="stop4336" />
      <stop
         style="stop-color:#ffffff;stop-opacity:1"
         offset="1"
         id="stop4338" />
    </linearGradient>
    <linearGradient
       id="linearGradient4966"
       inkscape:collect="always">
      <stop
         id="stop4968"
         offset="0"
         style="stop-color:#aa0000;stop-opacity:1" />
      <stop
         id="stop4970"
         offset="1"
         style="stop-color:#2b0000;stop-opacity:1" />
    </linearGradient>
    <linearGradient
       inkscape:collect="always"
       id="linearGradient4665">
      <stop
         style="stop-color:#552200;stop-opacity:1;"
         offset="0"
         id="stop4667" />
      <stop
         style="stop-color:#311400;stop-opacity:1"
         offset="1"
         id="stop4669" />
    </linearGradient>
    <radialGradient
       inkscape:collect="always"
       xlink:href="#linearGradient4665"
       id="radialGradient3494"
       gradientUnits="userSpaceOnUse"
       gradientTransform="matrix(2.1843627,0.73505324,-1.2384588,3.6944266,1597.2961,-3029.5153)"
       cx="30.974825"
       cy="985.17175"
       fx="30.974825"
       fy="985.17175"
       r="30.678307" />
    <radialGradient
       inkscape:collect="always"
       xlink:href="#linearGradient4966"
       id="radialGradient3496"
       gradientUnits="userSpaceOnUse"
       gradientTransform="matrix(2.459147,2.3789983,-5.5583302,5.7639998,5874.2777,-5157.0259)"
       cx="31.495646"
       cy="994.84924"
       fx="31.495646"
       fy="994.84924"
       r="30.678307" />
    <radialGradient
       inkscape:collect="always"
       xlink:href="#linearGradient4966"
       id="radialGradient3518"
       gradientUnits="userSpaceOnUse"
       gradientTransform="matrix(3.9081128,3.7807393,-8.8333806,9.1602338,9185.9832,-8570.7651)"
       cx="31.495646"
       cy="994.84924"
       fx="31.495646"
       fy="994.84924"
       r="30.678307" />
    <radialGradient
       inkscape:collect="always"
       xlink:href="#linearGradient4665"
       id="radialGradient3523"
       gradientUnits="userSpaceOnUse"
       gradientTransform="matrix(3.4714215,1.1681575,-1.9681771,5.8712374,2388.9408,-5642.056)"
       cx="30.974825"
       cy="985.17175"
       fx="30.974825"
       fy="985.17175"
       r="30.678307" />
    <radialGradient
       inkscape:collect="always"
       xlink:href="#linearGradient4966"
       id="radialGradient3553"
       gradientUnits="userSpaceOnUse"
       gradientTransform="matrix(3.9081128,3.7807393,-8.8333806,9.1602338,9185.9832,-9023.1273)"
       cx="31.495646"
       cy="994.84924"
       fx="31.495646"
       fy="994.84924"
       r="30.678307" />
    <radialGradient
       inkscape:collect="always"
       xlink:href="#linearGradient4334"
       id="radialGradient4340"
       cx="118.79797"
       cy="553.29579"
       fx="118.79797"
       fy="553.29579"
       r="115.71429"
       gradientTransform="matrix(1,0,0,0.84191267,0,87.469055)"
       gradientUnits="userSpaceOnUse" />
    <filter
       inkscape:collect="always"
       id="filter4650"
       color-interpolation-filters="sRGB">
      <feGaussianBlur
         inkscape:collect="always"
         stdDeviation="0.76859433"
         id="feGaussianBlur4652" />
    </filter>
    <filter
       inkscape:collect="always"
       id="filter4642"
       x="-0.25565216"
       width="1.5113043"
       y="-0.25565216"
       height="1.5113043"
       color-interpolation-filters="sRGB">
      <feGaussianBlur
         inkscape:collect="always"
         stdDeviation="9.2538754"
         id="feGaussianBlur4644" />
    </filter>
    <linearGradient
       gradientTransform="translate(-540.74909,-384.85339)"
       inkscape:collect="always"
       xlink:href="#linearGradient3041"
       id="linearGradient3047"
       x1="420"
       y1="666.36218"
       x2="436"
       y2="408.36218"
       gradientUnits="userSpaceOnUse" />
    <linearGradient
       inkscape:collect="always"
       id="linearGradient3041">
      <stop
         style="stop-color:#000000;stop-opacity:1;"
         offset="0"
         id="stop3043" />
      <stop
         style="stop-color:#000000;stop-opacity:0;"
         offset="1"
         id="stop3045" />
    </linearGradient>
    <linearGradient
       inkscape:collect="always"
       xlink:href="#linearGradient3041"
       id="linearGradient3938"
       gradientUnits="userSpaceOnUse"
       gradientTransform="matrix(0.47506547,0,0,0.47478099,-331.06206,-191.76617)"
       x1="420"
       y1="666.36218"
       x2="436"
       y2="408.36218" />
  </defs>
  <sodipodi:namedview
     id="base"
     pagecolor="#ffffff"
     bordercolor="#666666"
     borderopacity="1.0"
     inkscape:pageopacity="0.0"
     inkscape:pageshadow="2"
     inkscape:zoom="1.4"
     inkscape:cx="178.93259"
     inkscape:cy="416.56347"
     inkscape:document-units="px"
     inkscape:current-layer="layer1"
     showgrid="false"
     inkscape:window-width="1440"
     inkscape:window-height="838"
     inkscape:window-x="-8"
     inkscape:window-y="-8"
     inkscape:window-maximized="1" />
  <metadata
     id="metadata2992">
    <rdf:RDF>
      <cc:Work
         rdf:about="">
        <dc:format>image/svg+xml</dc:format>
        <dc:type
           rdf:resource="http://purl.org/dc/dcmitype/StillImage" />
        <dc:title></dc:title>
      </cc:Work>
    </rdf:RDF>
  </metadata>
  <g
     inkscape:label="Layer 1"
     inkscape:groupmode="layer"
     id="layer1"
     transform="translate(0,-452.36218)">
    <path
       style="color:#000000;fill:#000927;fill-opacity:1;fill-rule:nonzero;stroke:none;stroke-width:0.5;marker:none;visibility:visible;display:inline;overflow:visible;enable-background:accumulate"
       d="M 111.25 6.1875 C 96.063953 5.91276 77.890131 13.44015 72.90625 32.0625 C 72.186251 38.00639 73.425528 43.17724 66.75 40.3125 C 50.680058 39.44632 31.258918 47.17593 25.34375 66.46875 C 20.557941 75.66764 30.359757 87.10301 29.59375 92.375 C -7.9532688 119.93044 -0.01862448 179.1894 52.1875 162.5625 C 55.392219 183.24934 74.280734 193.86241 90.4375 195.6875 C 105.27567 197.33435 121.82889 193.12511 132.125 179.59375 C 153.15455 188.93301 180.35174 182.81862 194.125 160.90625 C 199.79803 151.70063 204.29056 142.56695 198.28125 133.375 C 211.24393 131.88544 221.93129 127.66848 230.6875 115.71875 C 236.5605 104.08867 228.12554 91.67096 222.21875 82.71875 C 217.48873 71.76353 200.64349 74.82715 202.46875 61.34375 C 197.73655 40.805 178.35582 30.82004 161.625 30.34375 C 154.53052 29.44376 146.50088 36.08594 145 24.5 C 137.57993 11.77598 123.84273 6.49071 111.25 6.1875 z "
       transform="translate(0,452.36218)"
       id="rect7260" />
    <path
       style="fill:#211a27;fill-opacity:1;stroke:#000000;stroke-width:0.49935061;stroke-opacity:1"
       d="M 12.5625 111.78125 C -3.0212658 140.54609 10.389251 175.87464 52.1875 162.5625 C 55.281771 182.53638 72.989131 193.08967 88.75 195.4375 L 92.6875 112.5 L 12.5625 111.78125 z M 232.15625 111.8125 L 169 111.90625 L 169.125 180.9375 C 178.9837 177.446 187.91948 170.77883 194.125 160.90625 C 199.79803 151.70063 204.29056 142.56695 198.28125 133.375 C 211.24393 131.88544 221.93129 127.66848 230.6875 115.71875 C 231.34346 114.41978 231.83371 113.12519 232.15625 111.8125 z M 163.75 142.28125 L 104.21875 143.125 L 104.9375 193.21875 L 113.65625 193.09375 C 120.68369 190.52308 127.13393 186.15311 132.125 179.59375 C 142.15783 184.04935 153.60475 184.99282 164.3125 182.375 L 163.75 142.28125 z "
       transform="translate(0,452.36218)"
       id="rect6410" />
    <g
       id="g4676"
       transform="matrix(0.32278598,0.32710929,-0.3273116,0.3225864,-16.549077,167.00513)">
      <rect
         style="fill:#cbffff;fill-opacity:1;stroke:none;filter:url(#filter4650)"
         id="rect4632"
         width="70.710678"
         height="70.710678"
         x="768.83997"
         y="204.97035" />
      <rect
         y="217.34471"
         x="780.70923"
         height="9.5964489"
         width="9.5964489"
         id="rect4654"
         style="opacity:0.4557522;fill:#000000;fill-opacity:1;stroke:none" />
      <rect
         style="opacity:0.21681417;fill:#000000;fill-opacity:1;stroke:none"
         id="rect4656"
         width="9.5964489"
         height="9.5964489"
         x="816.56964"
         y="218.60741" />
      <rect
         y="251.6899"
         x="774.90088"
         height="8.0812197"
         width="51.51778"
         id="rect4658"
         style="opacity:0.37168142;fill:#000000;fill-opacity:1;stroke:none" />
      <rect
         y="196.88913"
         x="760.75873"
         height="86.873116"
         width="86.873116"
         id="rect4630"
         style="opacity:0.51769912;fill:#ffffff;fill-opacity:1;stroke:none;filter:url(#filter4642)" />
    </g>
    <path
       style="fill:#291b35;fill-opacity:1;stroke:#000000;stroke-width:0.49935055;stroke-opacity:1"
       d="M 69.53125 52.875 L 64.34375 184.46875 C 71.821606 191.00745 81.546055 194.68311 90.4375 195.6875 C 101.73512 196.94139 114.04084 194.81295 123.8125 187.75 L 129.03125 55.25 L 69.53125 52.875 z M 20.3125 100.78125 C -6.108374 130.28021 4.8237265 177.64718 52.1875 162.5625 C 53.065052 168.2272 55.116847 173.13332 57.96875 177.3125 L 58.6875 100.90625 L 20.3125 100.78125 z M 191.34375 123.71875 L 131.8125 123.875 L 131.9375 179.8125 C 131.99645 179.73616 132.06645 179.67069 132.125 179.59375 C 151.87111 188.36303 177.0372 183.51621 191.4375 164.75 L 191.34375 123.71875 z M 209.6875 131.0625 L 196.34375 131.1875 L 196.5625 156.71875 C 200.88809 148.92641 203.37705 141.16962 198.28125 133.375 C 202.29693 132.91355 206.09665 132.19585 209.6875 131.0625 z "
       transform="translate(0,452.36218)"
       id="rect4027-9" />
    <path
       style="opacity:0.85840676;fill:#f4a3ff;fill-opacity:1;stroke:#000000;stroke-width:0.72127157;stroke-opacity:1"
       d="M 115.8125 67.9375 L 115.25 81.375 L 123.53125 81.71875 L 124.09375 68.28125 L 115.8125 67.9375 z M 72.75 84.3125 L 72.1875 97.71875 L 80.5 98.0625 L 81.0625 84.65625 L 72.75 84.3125 z M 84.875 84.8125 L 84.34375 98.21875 L 92.625 98.5625 L 93.1875 85.15625 L 84.875 84.8125 z M 16.40625 105.59375 C 16.036535 106.10702 15.693252 106.63595 15.34375 107.15625 L 15.3125 119.03125 L 23.65625 119.03125 L 23.625 105.59375 L 16.40625 105.59375 z M 11.875 113.09375 C 10.881206 115.05054 10.010408 117.03905 9.28125 119.03125 L 11.875 119.03125 L 11.875 113.09375 z M 113.625 121.34375 L 113.0625 134.78125 L 121.375 135.15625 L 121.90625 121.6875 L 113.625 121.34375 z M 145.0625 132.6875 L 136.75 132.71875 L 136.8125 146.15625 L 145.09375 146.125 L 145.0625 132.6875 z M 28.34375 134.25 L 28.3125 147.6875 L 36.65625 147.6875 L 36.65625 134.25 L 28.34375 134.25 z M 100.8125 137.34375 L 100.25 150.78125 L 108.5625 151.125 L 109.125 137.6875 L 100.8125 137.34375 z M 187.9375 152.375 L 179.65625 152.40625 L 179.6875 165.84375 L 188 165.8125 L 187.9375 152.375 z M 136.3125 171.15625 L 136 181.125 C 138.69445 182.05398 141.43965 182.73658 144.25 183.1875 L 144.59375 171.375 L 136.3125 171.15625 z M 147.59375 171.5 L 147.25 183.5625 C 150.00766 183.83741 152.78998 183.89833 155.5625 183.71875 L 155.875 171.71875 L 147.59375 171.5 z "
       transform="translate(0,452.36218)"
       id="rect4211-6" />
    <path
       style="opacity:0.37168142;fill:#211a27;fill-opacity:0.99468085;stroke:#000000;stroke-width:0.49935061;stroke-opacity:1"
       d="M 69.53125 52.875 L 67.1875 112.25 L 58.3125 112.1875 L 58.65625 101.78125 L 20.53125 100.53125 C -6.168309 130.01202 4.693425 177.68868 52.1875 162.5625 C 55.392219 183.24934 74.280734 193.86241 90.4375 195.6875 C 105.27567 197.33435 121.82889 193.12511 132.125 179.59375 C 153.15455 188.93301 180.35174 182.81862 194.125 160.90625 C 199.79803 151.70063 204.29056 142.56695 198.28125 133.375 C 211.24393 131.88544 221.93129 127.66848 230.6875 115.71875 C 231.34844 114.40991 231.83363 113.10397 232.15625 111.78125 L 169 111.90625 L 169 123.78125 L 131.8125 123.875 L 131.84375 142.71875 L 125.5625 142.8125 L 129.03125 55.25 L 69.53125 52.875 z "
       transform="translate(0,452.36218)"
       id="rect8222" />
    <path
       style="opacity:0.63716866999999999;fill:url(#linearGradient3938);fill-opacity:1;stroke:#000000;stroke-width:0.49935060999999997;stroke-opacity:1"
       d="M 69.53125 52.875 L 67.1875 112.25 L 58.3125 112.1875 L 58.65625 101.78125 L 20.53125 100.53125 C -6.168309 130.01202 4.693425 177.68868 52.1875 162.5625 C 55.392219 183.24934 74.280734 193.86241 90.4375 195.6875 C 105.27567 197.33435 121.82889 193.12511 132.125 179.59375 C 153.15455 188.93301 180.35174 182.81862 194.125 160.90625 C 199.79803 151.70063 204.29056 142.56695 198.28125 133.375 C 211.24393 131.88544 221.93129 127.66848 230.6875 115.71875 C 231.34844 114.40991 231.83363 113.10397 232.15625 111.78125 L 169 111.90625 L 169 123.78125 L 131.8125 123.875 L 131.84375 142.71875 L 125.5625 142.8125 L 129.03125 55.25 L 69.53125 52.875 z "
       transform="translate(0,452.36218)"
       id="path3039" />
    <path
       style="color:#000000;fill:none;fill-opacity:1;fill-rule:nonzero;stroke:#686868;stroke-width:5.00000047999999970;stroke-linecap:butt;stroke-linejoin:miter;stroke-miterlimit:4;stroke-opacity:1;stroke-dasharray:none;stroke-dashoffset:0;marker:none;visibility:visible;display:inline;overflow:visible;enable-background:accumulate"
       d="m 111.23497,458.55502 c -15.186047,-0.27474 -33.335551,7.25346 -38.319432,25.87581 -0.719999,5.94389 0.522188,11.11192 -6.15334,8.24718 -16.069942,-0.86618 -35.5131,6.86094 -41.428268,26.15376 -4.785809,9.19889 5.027009,20.62396 4.261002,25.89595 -37.5470188,27.55544 -29.62366648,86.83677 22.582458,70.20987 3.204719,20.68684 22.097097,31.28899 38.253863,33.11408 14.838167,1.64685 31.407207,-2.55253 41.703317,-16.08389 21.02955,9.33926 48.20455,3.21944 61.97781,-18.69293 5.67303,-9.20562 10.17456,-18.34899 4.16525,-27.54094 12.96268,-1.48956 23.66257,-5.70354 32.41878,-17.65327 5.873,-11.63008 -2.55743,-24.04777 -8.46422,-32.99998 -4.73002,-10.95522 -21.599,-7.8879 -19.77374,-21.3713 -4.7322,-20.53875 -24.10697,-30.51529 -40.83779,-30.99158 -7.09448,-0.89999 -15.12141,5.72421 -16.62229,-5.86173 -7.42007,-12.72402 -21.17067,-17.99782 -33.7634,-18.30103 z"
       id="path3953"
       inkscape:connector-curvature="0"
       sodipodi:nodetypes="cccccccccccccccc" />
    <path
       transform="matrix(0.28470553,-0.14932946,0.17554297,0.33468316,-47.741038,578.71821)"
       d="m 517.14287,493.57144 c 0,13.01814 -11.83248,23.57143 -26.42858,23.57143 -14.59609,0 -26.42857,-10.55329 -26.42857,-23.57143 0,-13.01814 11.83248,-23.57143 26.42857,-23.57143 14.5961,0 26.42858,10.55329 26.42858,23.57143 z"
       sodipodi:ry="23.571428"
       sodipodi:rx="26.428572"
       sodipodi:cy="493.57144"
       sodipodi:cx="490.71429"
       id="path3988"
       style="color:#000000;fill:#ffffff;fill-opacity:1;fill-rule:nonzero;stroke:#686868;stroke-width:14.34439087;stroke-linecap:butt;stroke-linejoin:miter;stroke-miterlimit:4;stroke-opacity:1;stroke-dasharray:none;stroke-dashoffset:0;marker:none;visibility:visible;display:inline;overflow:visible;enable-background:accumulate"
       sodipodi:type="arc" />
    <path
       sodipodi:type="arc"
       style="color:#000000;fill:#ffffff;fill-opacity:1;fill-rule:nonzero;stroke:#686868;stroke-width:21.02732086;stroke-linecap:butt;stroke-linejoin:miter;stroke-miterlimit:4;stroke-opacity:1;stroke-dasharray:none;stroke-dashoffset:0;marker:none;visibility:visible;display:inline;overflow:visible;enable-background:accumulate"
       id="path3990"
       sodipodi:cx="490.71429"
       sodipodi:cy="493.57144"
       sodipodi:rx="26.428572"
       sodipodi:ry="23.571428"
       d="m 517.14287,493.57144 c 0,13.01814 -11.83248,23.57143 -26.42858,23.57143 -14.59609,0 -26.42857,-10.55329 -26.42857,-23.57143 0,-13.01814 11.83248,-23.57143 26.42857,-23.57143 14.5961,0 26.42858,10.55329 26.42858,23.57143 z"
       transform="matrix(0.19484231,-0.10219575,0.11936922,0.22758454,54.121089,622.2921)" />
    <path
       sodipodi:type="arc"
       style="color:#000000;fill:#ffffff;fill-opacity:1;fill-rule:nonzero;stroke:#686868;stroke-width:10.88497162;stroke-linecap:butt;stroke-linejoin:miter;stroke-miterlimit:4;stroke-opacity:1;stroke-dasharray:none;stroke-dashoffset:0;marker:none;visibility:visible;display:inline;overflow:visible;enable-background:accumulate"
       id="path3986"
       sodipodi:cx="490.71429"
       sodipodi:cy="493.57144"
       sodipodi:rx="26.428572"
       sodipodi:ry="23.571428"
       d="m 517.14287,493.57144 c 0,13.01814 -11.83248,23.57143 -26.42858,23.57143 -14.59609,0 -26.42857,-10.55329 -26.42857,-23.57143 0,-13.01814 11.83248,-23.57143 26.42857,-23.57143 14.5961,0 26.42858,10.55329 26.42858,23.57143 z"
       transform="matrix(0.42296516,0,0,0.49886247,-45.675776,389.87928)" />
    <text
       xml:space="preserve"
       style="font-size:32px;font-style:normal;font-variant:normal;font-weight:normal;font-stretch:normal;line-height:125%;letter-spacing:0px;word-spacing:0px;fill:#000000;fill-opacity:1;stroke:none;font-family:Calibri;-inkscape-font-specification:Calibri"
       x="81.317284"
       y="104.52018"
       id="text3923"
       sodipodi:linespacing="125%"
       transform="translate(0,452.36218)"><tspan
         sodipodi:role="line"
         id="tspan3925"
         x="81.317284"
         y="104.52018" /></text>
  </g>
</svg>
