<?xml version="1.0" encoding="UTF-8" standalone="no"?>
<!-- Created with Inkscape (http://www.inkscape.org/) -->

<svg
   xmlns:dc="http://purl.org/dc/elements/1.1/"
   xmlns:cc="http://creativecommons.org/ns#"
   xmlns:rdf="http://www.w3.org/1999/02/22-rdf-syntax-ns#"
   xmlns:svg="http://www.w3.org/2000/svg"
   xmlns="http://www.w3.org/2000/svg"
   xmlns:xlink="http://www.w3.org/1999/xlink"
   xmlns:sodipodi="http://sodipodi.sourceforge.net/DTD/sodipodi-0.dtd"
   xmlns:inkscape="http://www.inkscape.org/namespaces/inkscape"
   width="600"
   height="600"
   id="svg2987"
   version="1.1"
   inkscape:version="0.48.0 r9654"
   sodipodi:docname="spinky-home.svg"
   inkscape:export-filename="C:\Users\Jake\Documents\FlashDevelop\HumphreyRemastered\lib\art\thoughts\spinky-home.png"
   inkscape:export-xdpi="90"
   inkscape:export-ydpi="90">
  <defs
     id="defs2989">
    <linearGradient
       inkscape:collect="always"
       id="linearGradient5061">
      <stop
         style="stop-color:#424242;stop-opacity:1"
         offset="0"
         id="stop5063" />
      <stop
         style="stop-color:#333333;stop-opacity:1"
         offset="1"
         id="stop5065" />
    </linearGradient>
    <linearGradient
       inkscape:collect="always"
       id="linearGradient5077">
      <stop
         style="stop-color:#424242;stop-opacity:1"
         offset="0"
         id="stop5079" />
      <stop
         style="stop-color:#333333;stop-opacity:1"
         offset="1"
         id="stop5081" />
    </linearGradient>
    <linearGradient
       inkscape:collect="always"
       id="linearGradient5177">
      <stop
         style="stop-color:#f70000;stop-opacity:1;"
         offset="0"
         id="stop5179" />
      <stop
         style="stop-color:#f70000;stop-opacity:0;"
         offset="1"
         id="stop5181" />
    </linearGradient>
    <linearGradient
       inkscape:collect="always"
       id="linearGradient5061-7">
      <stop
         style="stop-color:#0000d1;stop-opacity:1"
         offset="0"
         id="stop5063-4" />
      <stop
         style="stop-color:#0000ff;stop-opacity:1"
         offset="1"
         id="stop5065-0" />
    </linearGradient>
    <linearGradient
       inkscape:collect="always"
       id="linearGradient5077-4">
      <stop
         style="stop-color:#000094;stop-opacity:1"
         offset="0"
         id="stop5079-8" />
      <stop
         style="stop-color:#0000ff;stop-opacity:1"
         offset="1"
         id="stop5081-8" />
    </linearGradient>
    <radialGradient
       inkscape:collect="always"
       xlink:href="#linearGradient7335-9"
       id="radialGradient5487-3"
       gradientUnits="userSpaceOnUse"
       gradientTransform="matrix(1,0,0,1.0648865,0,-60.243856)"
       cx="1515.9395"
       cy="928.45038"
       fx="1515.9395"
       fy="928.45038"
       r="11.256586" />
    <linearGradient
       inkscape:collect="always"
       id="linearGradient7335-9">
      <stop
         style="stop-color:#000000;stop-opacity:1;"
         offset="0"
         id="stop7337-9" />
      <stop
         style="stop-color:#000000;stop-opacity:0;"
         offset="1"
         id="stop7339-2" />
    </linearGradient>
    <radialGradient
       inkscape:collect="always"
       xlink:href="#linearGradient7335-9"
       id="radialGradient5489-3"
       gradientUnits="userSpaceOnUse"
       gradientTransform="matrix(1,0,0,1.01455,0,-6.7643882)"
       cx="1503.2343"
       cy="464.90625"
       fx="1503.2343"
       fy="464.90625"
       r="24.697586" />
    <radialGradient
       inkscape:collect="always"
       xlink:href="#linearGradient7335-9"
       id="radialGradient5491-9"
       gradientUnits="userSpaceOnUse"
       gradientTransform="matrix(1,0,0,1.0648865,0,-60.243856)"
       cx="1485.9395"
       cy="928.45038"
       fx="1485.9395"
       fy="928.45038"
       r="11.256586" />
    <radialGradient
       inkscape:collect="always"
       xlink:href="#linearGradient7335-9"
       id="radialGradient5493-7"
       gradientUnits="userSpaceOnUse"
       gradientTransform="matrix(1,0,0,0.88451417,0,106.09604)"
       cx="1500.2111"
       cy="918.69312"
       fx="1500.2111"
       fy="918.69312"
       r="25.231537" />
    <radialGradient
       inkscape:collect="always"
       xlink:href="#linearGradient7335-9"
       id="radialGradient5495-3"
       gradientUnits="userSpaceOnUse"
       gradientTransform="matrix(1,0,0,1.0649049,0,-59.591775)"
       cx="1512.9069"
       cy="918.13934"
       fx="1512.9069"
       fy="918.13934"
       r="15.222186" />
    <linearGradient
       inkscape:collect="always"
       xlink:href="#linearGradient6175"
       id="linearGradient6181"
       x1="1498.7086"
       y1="921.3526"
       x2="1506.9784"
       y2="923.69153"
       gradientUnits="userSpaceOnUse" />
    <linearGradient
       inkscape:collect="always"
       id="linearGradient6175">
      <stop
         style="stop-color:#024600;stop-opacity:1;"
         offset="0"
         id="stop6177" />
      <stop
         style="stop-color:#024600;stop-opacity:0;"
         offset="1"
         id="stop6179" />
    </linearGradient>
    <radialGradient
       inkscape:collect="always"
       xlink:href="#linearGradient7335-9"
       id="radialGradient5497-7"
       gradientUnits="userSpaceOnUse"
       gradientTransform="matrix(1,0,0,1.0648865,0,-59.935065)"
       cx="1495.7218"
       cy="923.69147"
       fx="1495.7218"
       fy="923.69147"
       r="11.256586" />
    <radialGradient
       r="10.994615"
       fy="941.3064"
       fx="1503.8212"
       cy="941.3064"
       cx="1503.8212"
       gradientTransform="matrix(1,0,0,1.2651371,0,-249.57522)"
       gradientUnits="userSpaceOnUse"
       id="radialGradient6078"
       xlink:href="#linearGradient7380-6"
       inkscape:collect="always" />
    <linearGradient
       inkscape:collect="always"
       id="linearGradient7380-6">
      <stop
         style="stop-color:#000000;stop-opacity:1;"
         offset="0"
         id="stop7382-1" />
      <stop
         style="stop-color:#000000;stop-opacity:0;"
         offset="1"
         id="stop7384-2" />
    </linearGradient>
    <radialGradient
       inkscape:collect="always"
       xlink:href="#linearGradient7380-6"
       id="radialGradient3989"
       gradientUnits="userSpaceOnUse"
       gradientTransform="matrix(-7.3719583,0,0,9.3237512,11594.45,-7873.724)"
       cx="1503.8212"
       cy="941.3064"
       fx="1503.8212"
       fy="941.3064"
       r="10.994615" />
    <linearGradient
       inkscape:collect="always"
       xlink:href="#linearGradient6175"
       id="linearGradient3992"
       gradientUnits="userSpaceOnUse"
       x1="1498.7086"
       y1="921.3526"
       x2="1506.9784"
       y2="923.69153"
       gradientTransform="matrix(-7.3719583,0,0,7.3697556,11594.45,-6034.4156)" />
    <radialGradient
       inkscape:collect="always"
       xlink:href="#linearGradient7335-9"
       id="radialGradient3994"
       gradientUnits="userSpaceOnUse"
       gradientTransform="matrix(-7.3719583,0,0,7.8479532,11594.45,-6476.1224)"
       cx="1495.7218"
       cy="923.69147"
       fx="1495.7218"
       fy="923.69147"
       r="11.256586" />
    <radialGradient
       inkscape:collect="always"
       xlink:href="#linearGradient7335-9"
       id="radialGradient3997"
       gradientUnits="userSpaceOnUse"
       gradientTransform="matrix(-7.3719583,0,0,7.8480889,11459.09,-6493.7955)"
       cx="1512.9069"
       cy="918.13934"
       fx="1512.9069"
       fy="918.13934"
       r="15.222186" />
    <radialGradient
       inkscape:collect="always"
       xlink:href="#linearGradient7335-9"
       id="radialGradient4000"
       gradientUnits="userSpaceOnUse"
       gradientTransform="matrix(-7.3719583,0,0,6.5186533,11594.45,-5252.5137)"
       cx="1500.2111"
       cy="918.69312"
       fx="1500.2111"
       fy="918.69312"
       r="25.231537" />
    <radialGradient
       inkscape:collect="always"
       xlink:href="#linearGradient7335-9"
       id="radialGradient4003"
       gradientUnits="userSpaceOnUse"
       gradientTransform="matrix(-7.3719583,0,0,7.8479532,11594.45,-6478.3981)"
       cx="1485.9395"
       cy="928.45038"
       fx="1485.9395"
       fy="928.45038"
       r="11.256586" />
    <radialGradient
       inkscape:collect="always"
       xlink:href="#linearGradient7335-9"
       id="radialGradient4006"
       gradientUnits="userSpaceOnUse"
       gradientTransform="matrix(-7.3719583,0,0,7.4769855,11594.45,-2750.4688)"
       cx="1503.2343"
       cy="464.90625"
       fx="1503.2343"
       fy="464.90625"
       r="24.697586" />
    <radialGradient
       inkscape:collect="always"
       xlink:href="#linearGradient7335-9"
       id="radialGradient4009"
       gradientUnits="userSpaceOnUse"
       gradientTransform="matrix(-7.3719583,0,0,7.8479532,11594.45,-6478.3981)"
       cx="1515.9395"
       cy="928.45038"
       fx="1515.9395"
       fy="928.45038"
       r="11.256586" />
    <radialGradient
       inkscape:collect="always"
       xlink:href="#linearGradient7335-9"
       id="radialGradient4011"
       gradientUnits="userSpaceOnUse"
       gradientTransform="matrix(-7.3719583,0,0,7.4769855,11459.09,-3223.0341)"
       cx="1503.2343"
       cy="464.90625"
       fx="1503.2343"
       fy="464.90625"
       r="24.697586" />
    <radialGradient
       inkscape:collect="always"
       xlink:href="#linearGradient7335-9"
       id="radialGradient4019"
       gradientUnits="userSpaceOnUse"
       gradientTransform="matrix(-7.3719583,0,0,7.8480889,11459.09,-6946.1577)"
       cx="1512.9069"
       cy="918.13934"
       fx="1512.9069"
       fy="918.13934"
       r="15.222186" />
    <linearGradient
       inkscape:collect="always"
       xlink:href="#linearGradient5061-7"
       id="linearGradient9927"
       gradientUnits="userSpaceOnUse"
       gradientTransform="translate(-254.67196,26.242096)"
       x1="438.74722"
       y1="489.75677"
       x2="447.83859"
       y2="499.73203" />
    <linearGradient
       inkscape:collect="always"
       xlink:href="#linearGradient5077-4"
       id="linearGradient9929"
       gradientUnits="userSpaceOnUse"
       x1="466.15619"
       y1="504.6297"
       x2="455.64014"
       y2="510.82199" />
    <linearGradient
       inkscape:collect="always"
       xlink:href="#linearGradient5061"
       id="linearGradient9931"
       gradientUnits="userSpaceOnUse"
       gradientTransform="matrix(-1,0,0,1,824.14542,58.566967)"
       x1="438.74722"
       y1="489.75677"
       x2="447.83859"
       y2="499.73203" />
    <linearGradient
       inkscape:collect="always"
       xlink:href="#linearGradient5077"
       id="linearGradient9933"
       gradientUnits="userSpaceOnUse"
       x1="466.15619"
       y1="504.6297"
       x2="455.64014"
       y2="510.82199" />
    <linearGradient
       inkscape:collect="always"
       xlink:href="#linearGradient5177"
       id="linearGradient9935"
       gradientUnits="userSpaceOnUse"
       gradientTransform="translate(-191.14828,-125.59808)"
       x1="571.00714"
       y1="690.68079"
       x2="572.01733"
       y2="698.76196" />
    <linearGradient
       inkscape:collect="always"
       xlink:href="#linearGradient3941"
       id="linearGradient3947"
       x1="536.52942"
       y1="772.32343"
       x2="524.42657"
       y2="775.51654"
       gradientUnits="userSpaceOnUse"
       gradientTransform="matrix(0.34023498,0,0,0.34036197,29.76968,475.61876)" />
    <linearGradient
       inkscape:collect="always"
       id="linearGradient3941">
      <stop
         style="stop-color:#86aaaa;stop-opacity:1;"
         offset="0"
         id="stop3943" />
      <stop
         style="stop-color:#86aaaa;stop-opacity:0;"
         offset="1"
         id="stop3945" />
    </linearGradient>
    <linearGradient
       inkscape:collect="always"
       xlink:href="#linearGradient5281-73"
       id="linearGradient3970"
       gradientUnits="userSpaceOnUse"
       gradientTransform="matrix(-0.40715286,0,0,-0.43080429,417.11436,1007.1564)"
       x1="633.36572"
       y1="619.00677"
       x2="514.1676"
       y2="513.95087" />
    <linearGradient
       id="linearGradient5281-73"
       inkscape:collect="always">
      <stop
         id="stop5283-3"
         offset="0"
         style="stop-color:#000000;stop-opacity:1" />
      <stop
         id="stop5285-5"
         offset="1"
         style="stop-color:#1b1b1b;stop-opacity:0.80088496" />
    </linearGradient>
    <linearGradient
       inkscape:collect="always"
       xlink:href="#linearGradient4001"
       id="linearGradient4007"
       x1="413.78436"
       y1="860.06073"
       x2="685.5011"
       y2="635.80688"
       gradientUnits="userSpaceOnUse"
       gradientTransform="matrix(0.3198096,0,0,0.3198096,43.37242,496.75335)" />
    <linearGradient
       inkscape:collect="always"
       id="linearGradient4001">
      <stop
         style="stop-color:#86aaaa;stop-opacity:1;"
         offset="0"
         id="stop4003" />
      <stop
         style="stop-color:#86aaaa;stop-opacity:0;"
         offset="1"
         id="stop4005" />
    </linearGradient>
    <filter
       inkscape:collect="always"
       id="filter4096"
       x="-0.054624408"
       width="1.1092488"
       y="-0.10558611"
       height="1.2111722"
       color-interpolation-filters="sRGB">
      <feGaussianBlur
         inkscape:collect="always"
         stdDeviation="15.480838"
         id="feGaussianBlur4098" />
    </filter>
  </defs>
  <sodipodi:namedview
     id="base"
     pagecolor="#ffffff"
     bordercolor="#666666"
     borderopacity="1.0"
     inkscape:pageopacity="0.0"
     inkscape:pageshadow="2"
     inkscape:zoom="0.9899495"
     inkscape:cx="445.87391"
     inkscape:cy="204.04981"
     inkscape:document-units="px"
     inkscape:current-layer="layer1"
     showgrid="false"
     inkscape:window-width="1440"
     inkscape:window-height="838"
     inkscape:window-x="-8"
     inkscape:window-y="-8"
     inkscape:window-maximized="1" />
  <metadata
     id="metadata2992">
    <rdf:RDF>
      <cc:Work
         rdf:about="">
        <dc:format>image/svg+xml</dc:format>
        <dc:type
           rdf:resource="http://purl.org/dc/dcmitype/StillImage" />
        <dc:title></dc:title>
      </cc:Work>
    </rdf:RDF>
  </metadata>
  <g
     inkscape:label="Layer 1"
     inkscape:groupmode="layer"
     id="layer1"
     transform="translate(0,-452.36218)">
    <path
       inkscape:connector-curvature="0"
       style="fill:#ffffff;fill-opacity:1;stroke:none"
       d="m 139.8171,605.44807 c -19.38058,0.27281 -41.77222,10.21502 -48.0625,33.71875 -0.93805,7.74394 0.69714,14.48229 -8,10.75 -20.93655,-1.1285 -46.26224,8.92705 -53.96875,34.0625 -6.23514,11.98466 6.52923,26.88145 5.53125,33.75 -48.91773,35.9003 -38.57868,113.13092 29.4375,91.46875 4.17523,26.95163 28.79408,40.77845 49.84375,43.15625 19.33174,2.14558 40.89832,-3.33956 54.3125,-20.96875 27.39812,12.16756 62.80565,4.20454 80.75,-24.34375 7.39104,-11.99345 13.26666,-23.93061 5.4375,-35.90625 16.88827,-1.94066 30.81082,-7.43143 42.21875,-23 7.65157,-15.15213 -3.33565,-31.30546 -11.03125,-42.96875 -6.16246,-14.2729 -28.12802,-10.27704 -25.75,-27.84375 -6.16531,-26.75868 -31.42119,-39.75447 -53.21875,-40.375 -9.24297,-1.17253 -19.70084,7.43836 -21.65625,-7.65625 -9.66716,-16.57735 -27.56244,-23.44873 -43.96875,-23.84375 -0.61828,-0.0112 -1.24982,-0.009 -1.875,0 z"
       id="path3872" />
    <path
       inkscape:connector-curvature="0"
       style="opacity:0.34070794;fill:#b0ffff;fill-opacity:1;stroke:#272727;stroke-width:0.53779995;stroke-miterlimit:4;stroke-opacity:1"
       d="m 139.8171,605.44807 c -19.38058,0.27281 -41.77222,10.21502 -48.0625,33.71875 -0.11726,0.96799 -0.18795,1.92567 -0.25,2.84375 -0.12502,1.83588 -0.19854,3.52343 -0.40625,4.9375 -0.20574,1.41468 -0.55932,2.55258 -1.25,3.25 -0.0866,0.0871 -0.18356,0.1767 -0.28125,0.25 -0.0911,0.067 -0.17993,0.13285 -0.28125,0.1875 -0.1096,0.0589 -0.25273,0.11229 -0.375,0.15625 -0.61161,0.21332 -1.39002,0.26267 -2.375,0.0625 -0.085,-0.017 -0.19301,-0.0421 -0.28125,-0.0625 -0.72541,-0.16957 -1.54032,-0.46316 -2.5,-0.875 -1.9628,-0.1058 -3.97818,-0.12526 -6,-0.0312 -0.67397,0.0314 -1.3534,0.0709 -2.03125,0.125 -1.34556,0.10789 -2.70967,0.27009 -4.0625,0.46875 -0.68158,0.10019 -1.38108,0.22016 -2.0625,0.34375 -4.75953,0.86486 -9.51089,2.32233 -14,4.375 -1.28546,0.58806 -2.57335,1.21654 -3.8125,1.90625 -2.46942,1.37561 -4.84134,2.95904 -7.0625,4.75 -1.11429,0.89868 -2.21427,1.869 -3.25,2.875 -0.5123,0.49799 -1.00893,1.00662 -1.5,1.53125 -0.99228,1.06007 -1.94614,2.17347 -2.84375,3.34375 -0.89761,1.17028 -1.73905,2.40512 -2.53125,3.6875 -0.7922,1.28238 -1.51146,2.60361 -2.1875,4 -0.006,0.0127 -0.0251,0.0186 -0.0312,0.0312 -1.00657,2.08388 -1.87548,4.31353 -2.59375,6.65625 -0.58455,1.12356 -1.00369,2.27176 -1.28125,3.4375 -0.18504,0.77716 -0.3064,1.55453 -0.375,2.34375 -0.0686,0.78923 -0.0943,1.57905 -0.0625,2.375 4e-4,0.0102 -4.2e-4,0.021 0,0.0312 0.0161,0.38786 0.0567,0.79901 0.0937,1.1875 0.0761,0.79731 0.19124,1.57898 0.34375,2.375 1.06756,5.57215 3.82193,11.03798 5.5,15.5 0.60049,1.59289 1.04719,3.08192 1.25,4.375 0.12136,0.77603 0.15606,1.48107 0.0625,2.125 -4.58604,3.36565 -8.64179,7.08588 -12.1875,11.0625 -0.591,0.66278 -1.15661,1.32399 -1.71875,2 -0.57182,0.6869 -1.11423,1.36303 -1.65625,2.0625 -0.53331,0.68817 -1.05802,1.36325 -1.5625,2.0625 -1.51894,2.10412 -2.89825,4.25228 -4.15625,6.4375 -1.25423,2.1783 -2.37967,4.39504 -3.375,6.625 -1.32675,2.9732 -2.41418,5.96365 -3.28125,8.96875 -0.38541,1.33512 -0.7052,2.66834 -1,4 -0.037,0.16704 -0.0894,0.33307 -0.125,0.5 -0.9607,4.50316 -1.41883,8.94527 -1.34375,13.25 0.0124,0.7159 0.0528,1.41834 0.0937,2.125 0.24463,4.25089 1.00348,8.31224 2.28125,12.09375 0.21232,0.62876 0.44666,1.23172 0.6875,1.84375 0.24408,0.62126 0.47656,1.20956 0.75,1.8125 0.26935,0.59424 0.5459,1.17463 0.84375,1.75 0.006,0.0121 0.025,0.0191 0.0312,0.0312 0.59593,1.15069 1.22766,2.2437 1.9375,3.3125 2.12952,3.20639 4.78458,6.02842 7.9375,8.34375 0.52538,0.38591 1.03998,0.76759 1.59375,1.125 2.22121,1.43573 4.66589,2.62863 7.34375,3.5625 0.66721,0.23273 1.33571,0.42612 2.03125,0.625 0.01,0.003 0.0216,-0.003 0.0312,0 0.68635,0.19568 1.37984,0.40079 2.09375,0.5625 0.01,0.002 0.0213,-0.002 0.0312,0 0.71442,0.16127 1.44553,0.31125 2.1875,0.4375 3.01759,0.51559 6.24574,0.73204 9.71875,0.625 3.46107,-0.10664 7.14975,-0.55008 11.0625,-1.34375 2.93463,-0.59527 5.99924,-1.39084 9.1875,-2.40625 0.11364,0.7336 0.23157,1.47335 0.375,2.1875 0.0207,0.10291 0.0412,0.20999 0.0625,0.3125 0.12161,0.58546 0.26515,1.14642 0.40625,1.71875 0.16898,0.68545 0.36642,1.36456 0.5625,2.03125 0.19606,0.66669 0.40277,1.32076 0.625,1.96875 0.19013,0.5538 0.38512,1.11606 0.59375,1.65625 0.10513,0.27246 0.20278,0.5435 0.3125,0.8125 0.1815,0.44499 0.3687,0.87694 0.5625,1.3125 0.26896,0.60434 0.55186,1.19501 0.84375,1.78125 0.299,0.60095 0.61538,1.19926 0.9375,1.78125 0.16257,0.29329 0.33174,0.58651 0.5,0.875 0.25396,0.4358 0.51466,0.85639 0.78125,1.28125 0.0725,0.11558 0.14534,0.22898 0.21875,0.34375 0.29237,0.45695 0.59972,0.89958 0.90625,1.34375 0.0856,0.12411 0.16329,0.25189 0.25,0.375 0.27941,0.39667 0.55341,0.80115 0.84375,1.1875 0.12547,0.16691 0.24754,0.33501 0.375,0.5 0.13903,0.18007 0.29613,0.35346 0.4375,0.53125 0.39819,0.5008 0.80271,0.98605 1.21875,1.46875 0.78842,0.91478 1.6211,1.80613 2.46875,2.65625 0.0677,0.0679 0.11945,0.15127 0.1875,0.21875 0.24787,0.2457 0.49749,0.47849 0.75,0.71875 0.22935,0.2184 0.45444,0.44234 0.6875,0.65625 0.21265,0.19498 0.44061,0.37124 0.65625,0.5625 0.21089,0.18722 0.41133,0.37884 0.625,0.5625 0.2232,0.19178 0.46136,0.3746 0.6875,0.5625 0.52713,0.43791 1.05155,0.86433 1.59375,1.28125 0.0943,0.0725 0.18655,0.14685 0.28125,0.21875 0.28856,0.21896 0.58253,0.44316 0.875,0.65625 0.30251,0.22045 0.59974,0.44206 0.90625,0.65625 0.2707,0.18923 0.53881,0.37815 0.8125,0.5625 0.26909,0.18122 0.54065,0.35474 0.8125,0.53125 0.0195,0.0126 0.043,0.0186 0.0625,0.0312 0.22641,0.14663 0.45927,0.29412 0.6875,0.4375 0.30021,0.18861 0.60304,0.37951 0.90625,0.5625 0.0712,0.043 0.14736,0.0823 0.21875,0.125 0.46407,0.27742 0.93579,0.54814 1.40625,0.8125 0.15943,0.0896 0.30862,0.19316 0.46875,0.28125 0.1558,0.0857 0.31231,0.1657 0.46875,0.25 0.48286,0.26024 0.98032,0.50322 1.46875,0.75 0.64402,0.32513 1.28509,0.63567 1.9375,0.9375 0.14451,0.0669 0.29262,0.12174 0.4375,0.1875 0.20634,0.0936 0.41795,0.18995 0.625,0.28125 0.38473,0.16969 0.76931,0.33827 1.15625,0.5 0.0423,0.0177 0.0827,0.0449 0.125,0.0625 0.53764,0.22337 1.08383,0.44818 1.625,0.65625 0.59419,0.22826 1.21503,0.44635 1.8125,0.65625 0.0623,0.0219 0.12515,0.0408 0.1875,0.0625 0.59531,0.20713 1.18382,0.40475 1.78125,0.59375 0.0837,0.0265 0.16623,0.0676 0.25,0.0937 0.98829,0.30827 1.97877,0.58477 2.96875,0.84375 l 34.03125,0 c 0.01,-0.003 0.0216,0.003 0.0312,0 0.53328,-0.14093 1.06399,-0.31325 1.59375,-0.46875 0.15361,-0.0451 0.31546,-0.0787 0.46875,-0.125 0.18971,-0.0573 0.3733,-0.12826 0.5625,-0.1875 0.50359,-0.15756 1.00024,-0.29764 1.5,-0.46875 0.0938,-0.0321 0.18759,-0.0611 0.28125,-0.0937 0.58396,-0.20326 1.17195,-0.43414 1.75,-0.65625 0.39528,-0.15214 0.79524,-0.30768 1.1875,-0.46875 0.28125,-0.11531 0.56413,-0.22382 0.84375,-0.34375 0.57463,-0.2468 1.15149,-0.5147 1.71875,-0.78125 0.0918,-0.0431 0.18961,-0.0813 0.28125,-0.125 0.4008,-0.19105 0.79071,-0.39266 1.1875,-0.59375 0.25722,-0.13019 0.49453,-0.27182 0.75,-0.40625 0.56105,-0.29553 1.1354,-0.59001 1.6875,-0.90625 0.0848,-0.0486 0.16544,-0.1072 0.25,-0.15625 0.21176,-0.12284 0.41464,-0.24906 0.625,-0.375 0.41787,-0.25005 0.83787,-0.48765 1.25,-0.75 0.12591,-0.0802 0.24964,-0.16861 0.375,-0.25 0.4937,-0.32028 0.98394,-0.66165 1.46875,-1 0.0425,-0.0297 0.0826,-0.0639 0.125,-0.0937 0.26326,-0.18491 0.52075,-0.37219 0.78125,-0.5625 0.25858,-0.189 0.52546,-0.36814 0.78125,-0.5625 0.0411,-0.0312 0.0839,-0.0624 0.125,-0.0937 0.47611,-0.36404 0.94028,-0.74215 1.40625,-1.125 0.11334,-0.0931 0.23103,-0.18707 0.34375,-0.28125 0.3871,-0.32373 0.77664,-0.66297 1.15625,-1 0.18762,-0.16645 0.37676,-0.33028 0.5625,-0.5 0.0218,-0.0199 0.0408,-0.0426 0.0625,-0.0625 0.46763,-0.42906 0.91975,-0.86247 1.375,-1.3125 0.29222,-0.28887 0.58807,-0.5774 0.875,-0.875 0.31627,-0.32765 0.62785,-0.66167 0.9375,-1 0.14325,-0.15669 0.2957,-0.30976 0.4375,-0.46875 0.38029,-0.42605 0.7554,-0.83854 1.125,-1.28125 0.0662,-0.0793 0.12167,-0.17018 0.1875,-0.25 0.43484,-0.5273 0.86206,-1.07409 1.28125,-1.625 1.71238,0.76047 3.45001,1.42816 5.21875,2.03125 1.76872,0.60302 3.56239,1.1484 5.375,1.59375 4.53163,1.11372 9.17367,1.71748 13.84375,1.84375 0.0104,2.8e-4 0.0209,-2.8e-4 0.0312,0 0.92366,0.0245 1.85675,0.0454 2.78125,0.0312 3.7394,-0.0579 7.49633,-0.43266 11.1875,-1.125 4.61418,-0.86465 9.13606,-2.23472 13.5,-4.09375 1.74549,-0.74392 3.47256,-1.56536 5.15625,-2.46875 5.89973,-3.16436 11.35917,-7.30891 16.15625,-12.4375 0.6097,-0.65144 1.22545,-1.31678 1.8125,-2 0.0725,-0.0845 0.1466,-0.16503 0.21875,-0.25 0.65082,-0.76552 1.28516,-1.53875 1.90625,-2.34375 0.005,-0.007 -0.005,-0.0247 0,-0.0312 0.62079,-0.80524 1.25421,-1.62401 1.84375,-2.46875 0.005,-0.007 -0.005,-0.0241 0,-0.0312 0.59409,-0.85196 1.15799,-1.70162 1.71875,-2.59375 2.31522,-3.75691 4.48184,-7.50122 6.125,-11.25 0.32805,-0.7473 0.6228,-1.47169 0.90625,-2.21875 1.69874,-4.47645 2.5499,-8.9619 1.90625,-13.4375 -10e-4,-0.01 10e-4,-0.0213 0,-0.0312 -0.10856,-0.73707 -0.27625,-1.48144 -0.46875,-2.21875 -0.003,-0.01 0.003,-0.0216 0,-0.0312 -0.5847,-2.24335 -1.56328,-4.47332 -3.03125,-6.71875 4.22207,-0.48516 8.2666,-1.18783 12.125,-2.21875 2.8938,-0.77319 5.67882,-1.72567 8.375,-2.90625 0.89873,-0.39353 1.77904,-0.80483 2.65625,-1.25 2.63162,-1.3355 5.18307,-2.92361 7.625,-4.78125 1.62795,-1.23843 3.20415,-2.59139 4.75,-4.09375 1.54585,-1.50236 3.06575,-3.14571 4.53125,-4.9375 0.73275,-0.8959 1.44325,-1.83946 2.15625,-2.8125 0.47822,-0.94701 0.88079,-1.89026 1.21875,-2.84375 0.16898,-0.47674 0.33283,-0.95964 0.46875,-1.4375 0.27185,-0.95572 0.47735,-1.91682 0.625,-2.875 0.22147,-1.43728 0.30911,-2.87723 0.28125,-4.3125 -0.009,-0.46804 -0.0294,-0.93906 -0.0625,-1.40625 -7.4e-4,-0.0103 7.5e-4,-0.0209 0,-0.0312 -0.003,-0.041 0.003,-0.084 0,-0.125 -0.0697,-0.91384 -0.18995,-1.81008 -0.34375,-2.71875 -0.24105,-1.42421 -0.5819,-2.84589 -1,-4.25 -0.27873,-0.93607 -0.59346,-1.85747 -0.9375,-2.78125 -0.34404,-0.92378 -0.72637,-1.84119 -1.125,-2.75 -1.59454,-3.63525 -3.58526,-7.149 -5.625,-10.4375 -1.52981,-2.46638 -3.08832,-4.81313 -4.53125,-7 -0.19258,-0.44603 -0.40278,-0.86969 -0.625,-1.28125 -0.66665,-1.23469 -1.45444,-2.31299 -2.34375,-3.28125 -0.005,-0.005 0.005,-0.0259 0,-0.0312 -0.30179,-0.32848 -0.61517,-0.60337 -0.9375,-0.90625 -0.31066,-0.29272 -0.61005,-0.60383 -0.9375,-0.875 -0.006,-0.005 -0.0248,0.005 -0.0312,0 -0.32724,-0.27039 -0.65837,-0.53 -1,-0.78125 -0.007,-0.005 -0.0244,0.005 -0.0312,0 -0.34176,-0.2508 -0.67747,-0.51599 -1.03125,-0.75 -0.007,-0.005 -0.0238,0.005 -0.0312,0 -0.35369,-0.23349 -0.69915,-0.46844 -1.0625,-0.6875 -0.008,-0.005 -0.0237,0.005 -0.0312,0 -0.37113,-0.22336 -0.74629,-0.44548 -1.125,-0.65625 -2.27228,-1.26463 -4.63833,-2.31963 -6.875,-3.4375 -1.11833,-0.55893 -2.20856,-1.1293 -3.21875,-1.75 -0.66616,-0.40932 -1.31099,-0.85264 -1.90625,-1.3125 -0.006,-0.005 -0.0251,0.005 -0.0312,0 -0.60089,-0.46557 -1.14753,-0.96322 -1.65625,-1.5 -0.25436,-0.26839 -0.49111,-0.55391 -0.71875,-0.84375 -0.45529,-0.57968 -0.85379,-1.19493 -1.1875,-1.875 -0.004,-0.008 0.004,-0.0229 0,-0.0312 -0.49405,-1.01375 -0.86077,-2.1475 -1.03125,-3.4375 -0.0585,-0.44278 -0.0785,-0.89461 -0.0937,-1.375 -0.0156,-0.4596 -0.0264,-0.94107 0,-1.4375 5.4e-4,-0.01 -5.6e-4,-0.0214 0,-0.0312 0.028,-0.50806 0.0819,-1.01354 0.15625,-1.5625 -0.38763,-1.68239 -0.84205,-3.30107 -1.375,-4.875 -0.26128,-0.77329 -0.54944,-1.53399 -0.84375,-2.28125 -0.004,-0.009 0.004,-0.0223 0,-0.0312 -0.29826,-0.75596 -0.60679,-1.48937 -0.9375,-2.21875 -0.33461,-0.73777 -0.66483,-1.44559 -1.03125,-2.15625 -0.35761,-0.69478 -0.76961,-1.36228 -1.15625,-2.03125 -0.004,-0.008 0.004,-0.0236 0,-0.0312 -0.38702,-0.66876 -0.80404,-1.32572 -1.21875,-1.96875 -0.005,-0.007 0.005,-0.0239 0,-0.0312 -0.41506,-0.6428 -0.83983,-1.25785 -1.28125,-1.875 -0.005,-0.007 0.005,-0.0245 0,-0.0312 -0.44675,-0.6239 -0.90267,-1.21476 -1.375,-1.8125 -1.41288,-1.78728 -2.94539,-3.47637 -4.5625,-5.03125 -0.006,-0.005 -0.0257,0.005 -0.0312,0 -0.53551,-0.51445 -1.06981,-1.0421 -1.625,-1.53125 -0.006,-0.005 -0.0252,0.005 -0.0312,0 -0.56109,-0.49392 -1.1077,-0.96932 -1.6875,-1.4375 -1.1596,-0.93636 -2.36758,-1.82233 -3.59375,-2.65625 -1.22617,-0.83392 -2.46828,-1.61159 -3.75,-2.34375 -0.64086,-0.36608 -1.28481,-0.72174 -1.9375,-1.0625 -1.9495,-1.01782 -3.96948,-1.92526 -6,-2.71875 -0.009,-0.004 -0.0222,0.003 -0.0312,0 -2.03972,-0.79599 -4.10329,-1.49052 -6.1875,-2.0625 -0.68499,-0.18799 -1.37537,-0.3673 -2.0625,-0.53125 -0.01,-0.002 -0.0214,0.002 -0.0312,0 -0.68702,-0.16358 -1.37468,-0.32911 -2.0625,-0.46875 -0.0101,-0.002 -0.0212,0.002 -0.0312,0 -0.68765,-0.13926 -1.37538,-0.25959 -2.0625,-0.375 -0.0102,-0.002 -0.0211,0.002 -0.0312,0 -2.78873,-0.467 -5.55656,-0.73493 -8.28125,-0.8125 -0.27864,-0.0354 -0.56316,-0.0753 -0.84375,-0.0937 -0.0104,-6.6e-4 -0.0209,6.4e-4 -0.0312,0 -0.31164,-0.0199 -0.62418,-0.0297 -0.9375,-0.0312 -1.14911,-0.006 -2.28871,0.11932 -3.4375,0.28125 -2.33923,0.32973 -4.63849,0.88051 -6.75,1.125 -1.04454,0.12095 -2.06672,0.15381 -3,0.0625 -0.0105,-10e-4 -0.0208,10e-4 -0.0312,0 -0.22496,-0.0228 -0.43912,-0.054 -0.65625,-0.0937 -0.01,-0.002 -0.0215,0.002 -0.0312,0 -0.44402,-0.0832 -0.87353,-0.20854 -1.28125,-0.375 -0.008,-0.003 -0.023,0.003 -0.0312,0 -0.40797,-0.1689 -0.78935,-0.41916 -1.15625,-0.6875 -0.007,-0.005 -0.0247,0.005 -0.0312,0 -0.18,-0.13296 -0.33075,-0.27764 -0.5,-0.4375 -0.18154,-0.17147 -0.36272,-0.35788 -0.53125,-0.5625 -0.16282,-0.19769 -0.31868,-0.3943 -0.46875,-0.625 -0.30014,-0.4614 -0.56693,-0.98803 -0.8125,-1.59375 -0.49115,-1.21144 -0.88057,-2.73817 -1.125,-4.625 -9.66791,-16.5776 -27.56319,-23.44898 -43.9695,-23.844 -0.61828,-0.0112 -1.24982,-0.009 -1.875,0 z"
       id="rect4588" />
    <path
       inkscape:connector-curvature="0"
       style="fill:#f3ffff;fill-opacity:1;stroke:none"
       d="m 13.50459,742.32307 c -20.89574,37.5976 -3.54141,84.32527 51.25,66.875 3.61518,23.33639 22.53871,36.82085 41.21876,41.5625 l 33.0625,0 c 11.36764,-2.89665 22.01895,-9.05042 29.875,-19.375 27.39812,12.16756 62.80565,4.20454 80.75,-24.34375 7.39104,-11.99345 13.26666,-23.93061 5.4375,-35.90625 16.88827,-1.94066 30.81082,-7.43143 42.21875,-23 0.97246,-1.92573 1.67829,-3.865 2.09375,-5.8125 l -285.90626,0 z"
       id="path4803" />
    <path
       inkscape:connector-curvature="0"
       style="opacity:0.96460176;fill:#d9e7e7;fill-opacity:1"
       d="m 257.3171,667.76057 c -6.63881,0.53294 -13.3916,1.29381 -20.28125,2.1875 l -23.8125,4.84375 -15.0625,8.8125 -30.96875,21.9375 -17.75,14.1875 -0.25,56.15625 109.25,3.4375 c -0.50708,-2.71888 -1.56309,-5.46377 -3.34375,-8.1875 16.88827,-1.94066 30.81082,-7.43143 42.21875,-23 7.65157,-15.15213 -3.33565,-31.30546 -11.03125,-42.96875 -6.16246,-14.2729 -28.12802,-10.27704 -25.75,-27.84375 -0.7842,-3.40358 -1.86362,-6.60133 -3.21875,-9.5625 z"
       id="rect3909" />
    <path
       inkscape:connector-curvature="0"
       style="opacity:0.13716814;fill:#000000;fill-opacity:1;stroke:none;filter:url(#filter4096)"
       d="m 238.03585,669.22932 c -3.95779,-0.2063 -2.03146,4.70508 -2.46875,7.5 0.94162,5.11327 -0.55521,7.80286 -6.25,6.03125 -9.2922,-0.27173 -18.74326,-1.75165 -27.9375,-1.3125 -9.61917,4.03707 4.33232,3.168 8.59375,3.96875 3.55245,0.0866 1.02528,6.07498 1.78125,8.875 0.52842,4.69153 0.34893,8.66582 -5.75,6.6875 -10.74874,0.0815 -21.74507,-0.84826 -32.34375,-0.28125 -3.44534,2.50485 -8.42756,4.34891 -5.625,9.71875 2.19549,6.60995 0.76511,10.5306 -6.125,8.9375 l -11.65625,0 c -1.1839,-0.21218 -0.4107,5.35929 -0.65625,7.34375 -0.0811,16.26746 -0.1689,32.51378 -0.25,48.78125 l 13.21875,0.4375 c -5.21904,-1.53147 -14.63784,1.44037 -12.3125,-6.65625 l 0,-9.03125 29.4375,0 0,16.21875 c 3.80753,0.87762 5.7439,-0.1722 4.75,-4.25 l 0,-11.96875 c 9.24419,1.0641 22.66982,-1.35446 29.4375,2.125 l 0,15.1875 c 4.38417,1.463 4.03934,-1.95309 3.78125,-5.28125 l 0,-11.375 c 9.24419,1.0641 22.66979,-1.38571 29.4375,2.09375 l 0,15.59375 c 7.05433,2.21973 3.43187,-6.58253 4.28125,-10.78125 -2.61259,-10.85693 11.84405,-4.16724 18.4375,-6 4.07334,-0.0202 9.195,-0.83002 10.875,1.65625 2.55968,-1.47986 5.0015,-3.22758 7.375,-5.25 -6.46615,0.14116 -14.24808,1.60325 -17.125,-1.78125 0.94753,-3.95729 -2.30938,-12.87989 0.65625,-15.125 8.86523,0.72106 20.2948,-1.05647 27.8125,1 0.26686,-1.259 0.40351,-2.52103 0.46875,-3.78125 -5.46556,0.25355 -10.91918,0.4825 -16.0625,-0.0625 0.0558,-5.42784 -0.47204,-10.95697 -0.0312,-16.3125 l 0.375,-0.25 0.0312,0 c 3.81345,0.27861 7.92222,0.18389 12,0.15625 -0.31488,-0.69862 -0.62836,-1.40579 -0.96875,-2.09375 -2.99317,0.10417 -6.53272,-0.34748 -9.21875,-0.0937 -4.68978,-1.06824 -13.1761,2.25523 -15.6875,-1.5 0.20391,-4.90908 0.1611,-9.85317 0.53125,-14.75 4.85704,-0.0296 9.73654,-0.0409 14.59375,-0.0625 -0.41932,-0.73074 -0.84015,-1.43204 -1.34375,-2.0625 -2.25634,-0.22302 -4.07284,-0.8558 -5.03125,-2.40625 0.004,-0.65491 -0.004,-1.31384 0,-1.96875 -0.6374,-0.41052 -1.30522,-0.81838 -1.96875,-1.1875 -0.0839,4.17488 -1.42597,7.11943 -7.65625,5.15625 -6.53576,-1.48876 -18.85849,2.84615 -22.0625,-1.96875 l 0,-13.5 14.28125,-0.12505 c -0.46531,-0.87291 -0.81057,-1.82575 -1.03125,-2.90625 l -21.71875,0.375 0,-13.59375 c -0.31873,-0.0615 -0.61115,-0.11125 -0.875,-0.125 z m -22.9375,16.3125 29.4375,0.125 0,15.40625 c -9.24019,-1.06964 -22.67452,2.04435 -29.4375,-1.5 l 0,-14.03125 z m -44.28125,17.5 c 10.0582,0.35513 21.45067,-4e-4 30.71875,1.125 l 0,15.1875 -29.4375,0 c -0.0189,-5.46817 -1.26238,-10.84451 -1.28125,-16.3125 z m 94.1875,0.59375 c 2.7809,1.90527 2.74076,12.957 1.03125,16.21875 l -28.90625,-0.5 0,-15.625 c 9.29114,-0.0318 18.58389,-0.0536 27.875,-0.0937 z m -60.15625,0.0625 29.4375,0.0625 0,15.59375 -29.4375,0 0,-15.65625 z m 50.5625,17.90625 c 0.98072,-0.025 2.16156,0.16808 3.59375,0.59375 7.15987,-0.15509 14.34061,-0.21031 21.5,-0.375 1.00529,3.74419 2.80656,14.58729 -0.625,17.125 -9.54433,-0.30732 -19.14633,-0.2003 -28.65625,-0.75 0.52648,-6.18334 -2.67752,-16.4186 4.1875,-16.59375 z m -9.125,0.84375 c 0.57227,2.91438 3.18907,14.77243 -1.15625,15.78125 l -27.46875,-0.0312 0,-15.6875 c 9.53752,-0.0305 19.08796,3.9e-4 28.625,-0.0625 z m -96.03125,0.0625 29.4375,0 0,15.6875 -29.4375,0 0,-15.6875 z m 34.1875,0 29.4375,0 0,15.6875 -29.4375,0 0,-15.6875 z m 81.90625,18.6875 c 0.7078,4.11369 2.14769,14.9458 -1.4375,16.78125 -8.45202,-1.63995 -22.65256,2.82245 -27.78125,-2.1875 0.0397,-4.75784 -0.0723,-9.52958 0.0625,-14.28125 9.69995,-0.2617 19.44159,-0.16331 29.15625,-0.3125 z m -116.09375,0.21875 18.5,0 0,15.6875 -18.5,0 0,-15.6875 z m 21.84375,0 29.4375,0 0,15.6875 -29.4375,0 0,-15.6875 z m 32.75,0 29.4375,0 0,16.3125 c -9.24749,-1.0641 -22.66646,1.38575 -29.4375,-2.09375 l 0,-14.21875 z"
       id="rect3909-2" />
    <path
       inkscape:connector-curvature="0"
       style="fill:#e4f4f4;fill-opacity:1;stroke:#bbcfcf;stroke-width:1.59904802;stroke-miterlimit:4;stroke-opacity:1;stroke-dasharray:none"
       d="m 256.28585,665.66682 c -5.83897,0.80274 -11.6587,1.76969 -17.5625,1.84375 l 0,15.8125 22,-0.34375 c -0.3854,-1.59979 -0.48475,-3.46041 -0.1875,-5.65625 -0.97248,-4.22077 -2.41663,-8.11479 -4.25,-11.65625 z m -20.90625,1.875 c -6.51411,2.19156 -13.49281,2.86154 -19.8125,5.65625 -4.21522,2.12056 -12.97239,6.57243 -13.625,8.375 11.16673,0.24634 22.26786,1.60763 33.4375,1.78125 l 0,-15.8125 z m -39,17.03125 c -2.99772,0.0341 -5.92432,0.62197 -8.6875,2.375 -7.41546,3.25545 -13.32856,8.88447 -19.625,13.8125 14.5041,0.006 28.9959,0.61869 43.5,0.625 l 0,-15.53125 c -5.00302,0.10452 -10.1913,-1.33809 -15.1875,-1.28125 z m 65.5,1.28125 -14.6875,0.125 0,15.4375 c 9.42728,-0.84522 22.10594,1.77517 29.5,-1.21875 -0.26629,-1.28052 -0.2111,-2.89818 -0.0937,-4.5625 -5.67382,-3.0635 -11.91016,-4.99467 -14.71875,-9.78125 z m -46.96875,0.0625 0,15.5 c 9.2312,-1.06819 22.72546,2.12116 29.4375,-1.46875 l 0,-13.90625 c -9.81083,-0.04 -19.62667,-0.0851 -29.4375,-0.125 z m 63.96875,11.03125 -0.0312,4.4375 c 1.64527,-0.0596 3.39035,-0.0393 5.15625,0 -1.45807,-1.79631 -3.21388,-3.22827 -5.125,-4.4375 z m -98.3125,6.3125 c -4.03009,-0.0574 -7.56072,0.40492 -9.875,2.15625 0.25124,4.79101 1.19931,9.50633 1.21875,14.3125 l 29.4375,0 0,-15.65625 c -5.98339,0.80028 -14.06443,-0.71678 -20.78125,-0.8125 z m 65.625,0.5625 c -3.64585,0.0355 -6.92655,0.42534 -9.25,1.78125 l 0,14.125 c 9.89296,0.0197 19.95353,0.62058 29.75,0.28125 -0.70665,-4.49438 1.77736,-14.20677 -1.875,-16 -5.44639,0.69585 -12.54859,-0.24662 -18.625,-0.1875 z m -80.21875,0.0312 c -6.64846,2.33403 -11.52416,7.73228 -15.90625,13 -1.36188,4.48239 3.77291,2.45032 6.46875,2.875 l 12.03125,0 c -0.7623,-4.93214 0.10613,-13.89516 -2.59375,-15.875 z m 119.6875,0.0313 c -5.00554,0.0574 -10.0265,0.14654 -15,0.0937 -0.20858,5.32915 -0.69033,10.88105 -0.34375,16.125 8.25491,0.38369 16.6283,0.11411 24.96875,0 -2.67082,-5.43142 -6.07591,-10.50581 -9,-14.9375 -0.19258,-0.44603 -0.40276,-0.86969 -0.625,-1.28125 z m -81,0.1875 0,15.65625 29.4375,0 0,-15.59375 -29.4375,-0.0625 z m 75.5,18.125 c -9.65083,0.17912 -19.31904,0.29215 -28.96875,0.53125 1.05793,5.42318 -4.10324,17.93796 4.875,16.09375 8.30161,0.0309 16.76838,0.66163 24.96875,0.3125 -0.35998,-5.0748 1.80127,-13.16626 -0.875,-16.9375 z m 3.8125,0.0625 c -1.27067,2.85578 -0.15198,6.71297 -0.4375,9.96875 0.18175,3.53794 -1.33483,9.3633 4.75,6.9375 3.12502,-0.73639 7.46098,-0.29427 11.5625,-0.0937 0.41935,-5.64139 -1.11056,-11.24663 -3.46875,-16.59375 -4.13893,-0.0608 -8.2802,-0.11309 -12.40625,-0.21875 z m -57.28125,0.34375 c -3.62956,0.0296 -6.91141,0.42903 -9.21875,1.78125 l 0,14.1875 29.4375,0.0625 c -0.99294,-4.09867 2.25758,-14.71345 -1.6875,-15.78125 -5.41949,0.68238 -12.48198,-0.29938 -18.53125,-0.25 z m -76.625,0.28125 0,15.6875 29.4375,0 0,-15.6875 -29.4375,0 z m 34.1875,0 0,15.6875 29.4375,0 0,-15.6875 -29.4375,0 z m 111.5,17.15625 c -0.80161,0.0343 -1.72425,0.21478 -2.8125,0.53125 -7.40353,-0.0563 -14.81516,-0.17041 -22.21875,-0.1875 0.19889,5.41111 -1.78512,15.6096 1.90625,18.3125 4.44556,-0.39496 9.60602,0.0599 14.53125,0.25 3.58932,-2.91771 6.97086,-6.46535 10.15625,-10.8125 1.06087,-2.10079 1.78465,-4.21827 2.1875,-6.34375 -0.6699,-1.1513 -1.82724,-1.83219 -3.75,-1.75 z m -29.90625,0.28125 c -9.26245,0.85154 -21.15432,0.0625 -28.90625,2.5 l 0,15.3125 c 9.53659,-0.40558 21.81279,1.36496 29.65625,-0.78125 -0.64276,-5.26413 1.76876,-13.1815 -0.75,-17.03125 z m -115.78125,1.46875 0,15.6875 18.5,0 0,-15.6875 -18.5,0 z m 21.84375,0 0,15.6875 29.4375,0 0,-15.6875 -29.4375,0 z m 32.75,0 0,15.6875 c 9.2385,-1.07366 22.71741,2.81218 29.4375,-0.84375 l 0,-14.84375 -29.4375,0 z m -12.46875,18.71875 c -3.08407,0.0524 -5.83851,0.45128 -7.9375,1.59375 l 0,16.125 c 9.24704,-1.06938 22.70657,3.496 29.4375,-0.21875 l 0,-16.75 c -6.34918,0.73815 -14.71505,-0.86525 -21.5,-0.75 z m -42.125,0.0937 0,14.40625 c 9.2967,-0.65932 22.64327,5.19508 29.4375,1.71875 l 0,-16.125 -29.4375,0 z m 75.34375,0.5313 c -3.08407,0.0524 -5.83851,0.48253 -7.9375,1.625 l 0,16.75 c 9.23517,-1.07367 22.72073,2.7809 29.4375,-0.875 l 0,-16.75 c -6.34918,0.73814 -14.71505,-0.86526 -21.5,-0.75 z m 50.625,0.5625 c -0.7796,0.0378 -1.6787,0.17817 -2.71875,0.46875 -6.68789,1.37688 -18.84752,-2.65959 -22.09375,1.84375 -0.006,5.37804 -0.0246,10.74695 -0.0312,16.125 2.22632,-0.26556 4.75068,-0.26891 7.375,-0.1875 -0.45374,-2.92639 -1.55202,-5.88064 -3.46875,-8.8125 9.18756,-1.05576 17.49049,-3.16704 25,-7.375 -0.66793,-1.35838 -1.88389,-2.16826 -4.0625,-2.0625 z"
       id="path4010" />
    <path
       sodipodi:nodetypes="cccccccc"
       inkscape:connector-curvature="0"
       id="path3162"
       d="m 168.03986,718.88092 -11.30066,7.30867 -12.238,14.71867 -1.34275,48.48895 c 23.98799,1.15829 55.26185,5.19074 79.45724,0.26228 6.52296,-3.50419 12.82513,-7.09674 14.8549,-12.39889 0,0 4.74169,-39.1658 -8.58049,-53.15121 -10.0157,-4.45219 -31.0191,-9.36082 -60.85024,-5.22847 z"
       style="fill:#e4f4f4;fill-opacity:1;stroke:url(#linearGradient4007);stroke-width:2.10338235;stroke-miterlimit:4;stroke-opacity:0.56382979;stroke-dasharray:none" />
    <path
       style="fill:url(#linearGradient3970);fill-opacity:1;stroke:none"
       d="m 209.0445,789.26906 c -8.92902,2.68644 -29.86097,2.52947 -48.20285,0 l 0,-52.46016 48.20285,0 z"
       id="rect5279-9"
       inkscape:connector-curvature="0"
       sodipodi:nodetypes="ccccc" />
    <path
       style="fill:#e4f4f4;fill-opacity:1;stroke:none"
       d="m 158.54398,727.10515 -10.31066,13.67138 -3.80641,48.22505 18.51093,0 0,-44.06625 c 18.55235,-4.91223 29.70926,-2.11864 40.72187,0 l 0,44.48107 8.72444,0 9.69509,-6.78418 0.0807,-41.44087 -3.66815,0 0,-14.77384 c -18.43837,-4.36013 -24.07466,-10.21341 -59.94786,0.68764 z"
       id="rect5273-9"
       inkscape:connector-curvature="0"
       sodipodi:nodetypes="ccccccccccccc" />
    <path
       sodipodi:nodetypes="cccccccccc"
       inkscape:connector-curvature="0"
       id="path3937"
       d="m 147.47207,741.34963 -3.80637,47.55815 18.5109,0.68071 0,-44.08006 c 18.55238,-4.91224 29.70926,-2.11866 40.72187,0 l -0.01,45.43174 c 0.57131,-0.003 11.16996,1.07667 19.12849,-2.50942 1.84392,-5.04167 5.83924,-48.37219 -13.738,-62.4716 -18.4384,-4.36013 -60.80709,15.39048 -60.80709,15.39048 z"
       style="opacity:0.66371681;fill:#e4f4f4;fill-opacity:1;stroke:url(#linearGradient3947);stroke-width:2.10338235;stroke-miterlimit:4;stroke-opacity:0.56382979;stroke-dasharray:none" />
    <path
       sodipodi:nodetypes="cccccc"
       inkscape:connector-curvature="0"
       id="path3974"
       d="m 160.9847,781.29532 5.54959,3.50047 6.00986,7.04953 0.65942,2.63741 c -11.87766,0.59504 -68.42496,5.68001 -42.10149,-10.68324 4.91857,-2.13236 15.23297,-4.48335 29.88262,-2.50417 z"
       style="fill:#e4f4f4;fill-opacity:1;stroke:#86aaaa;stroke-width:2.10338235;stroke-miterlimit:4;stroke-opacity:0.56382979;stroke-dasharray:none" />
    <path
       style="fill:#e4f4f4;fill-opacity:1;stroke:#86aaaa;stroke-width:2.10338235;stroke-miterlimit:4;stroke-opacity:0.56382979;stroke-dasharray:none"
       d="m 180.18828,784.15576 c -10.87503,5.81896 -14.5295,6.6836 -16.46083,11.22493 l -0.92057,3.77526 c 16.44582,0.79405 87.24585,2.7484 53.76904,-8.42737 -6.86663,-3.05236 -15.93582,-9.40592 -36.38764,-6.57282 z"
       id="path3972"
       inkscape:connector-curvature="0"
       sodipodi:nodetypes="ccccc" />
    <path
       sodipodi:nodetypes="cccccccccccccccc"
       inkscape:connector-curvature="0"
       id="path4024-6"
       d="m 141.68712,605.45559 c -19.78497,-0.35795 -43.43086,9.45008 -49.92406,33.712 -0.93804,7.74394 0.68033,14.47705 -8.01681,10.74476 -20.93654,-1.1285 -46.26785,8.9387 -53.97437,34.07415 -6.23514,11.98466 6.54938,26.86969 5.55141,33.73824 -48.91772,35.9003 -38.59487,113.13433 29.42131,91.47216 4.17523,26.95163 28.78895,40.76452 49.83863,43.14232 19.33174,2.14558 40.91853,-3.32553 54.33271,-20.95472 27.39812,12.16756 62.80277,4.19442 80.74712,-24.35387 7.39104,-11.99345 13.25581,-23.90578 5.42665,-35.88142 16.88827,-1.94066 30.82852,-7.4308 42.23645,-22.99937 7.65157,-15.15213 -3.33192,-31.33036 -11.02752,-42.99365 -6.16246,-14.2729 -28.14001,-10.27667 -25.76199,-27.84338 -6.16531,-26.75868 -31.40751,-39.75651 -53.20507,-40.37704 -9.24297,-1.17253 -19.70077,7.45772 -21.65618,-7.63689 -9.66716,-16.57735 -27.58197,-23.44827 -43.98828,-23.84329 z"
       style="color:#000000;fill:none;stroke:#686868;stroke-width:5.00000048;stroke-linecap:butt;stroke-linejoin:miter;stroke-miterlimit:4;stroke-opacity:1;stroke-dasharray:none;stroke-dashoffset:0;marker:none;visibility:visible;display:inline;overflow:visible;enable-background:accumulate" />
    <rect
       style="color:#000000;fill:#552200;fill-opacity:1;fill-rule:nonzero;stroke:#2b1100;stroke-width:0.28098404;stroke-linecap:butt;stroke-linejoin:miter;stroke-miterlimit:4;stroke-opacity:1;stroke-dasharray:none;stroke-dashoffset:0;marker:none;visibility:visible;display:inline;overflow:visible;enable-background:accumulate"
       id="rect5565"
       width="19.725187"
       height="0.96395504"
       x="-223.3913"
       y="783.17688"
       transform="matrix(-0.99914798,-0.0412713,-0.14486115,0.98945199,0,0)" />
    <path
       style="fill:#ffff00;fill-opacity:1;stroke:none"
       d="m 104.77187,799.84073 -3.5818,-2.55882 -0.98092,3.17126 3.33638,0.48325 z"
       id="path5545"
       inkscape:connector-curvature="0"
       sodipodi:nodetypes="ccccc" />
    <path
       style="fill:#000000;fill-opacity:1;stroke:#1a1a1a;stroke-width:0.14011131;stroke-miterlimit:4;stroke-opacity:1;stroke-dasharray:none"
       d="m 110.42611,782.68367 c 0.39157,0.34232 1.32926,1.22455 1.92788,4.57112 l -3.7654,-0.61505 z"
       id="path5547"
       inkscape:connector-curvature="0"
       sodipodi:nodetypes="cccc" />
    <path
       sodipodi:nodetypes="ccccc"
       inkscape:connector-curvature="0"
       id="path5549"
       d="m 110.713,799.04299 -3.58181,-2.55881 -0.98091,3.17125 3.33637,0.48324 z"
       style="fill:#ffff00;fill-opacity:1;stroke:none" />
    <path
       sodipodi:nodetypes="sccsss"
       inkscape:connector-curvature="0"
       id="path5551"
       d="m 106.09925,776.19919 c 2.36621,1.09014 4.11874,3.00175 4.27048,5.68598 l 0.98424,15.95309 c -5.95101,2.09312 -9.8126,2.01085 -14.71873,-0.26494 -0.69669,-0.32317 -0.20591,-15.56061 -0.20591,-15.56061 0.2789,-6.56361 4.4643,-8.21185 9.66992,-5.81352 z"
       style="fill:#000000;fill-opacity:1;stroke:#1a1a1a;stroke-width:0.14011131;stroke-miterlimit:4;stroke-opacity:1;stroke-dasharray:none" />
    <path
       style="fill:#ffff00;fill-opacity:1;stroke:none"
       d="m 107.72501,785.95724 -0.36551,-2.65001 c -2.213,-0.31694 -1.77372,1.81546 -2.5272,2.46825 z"
       id="path5553"
       inkscape:connector-curvature="0"
       sodipodi:nodetypes="cccc" />
    <path
       sodipodi:nodetypes="ccccc"
       inkscape:connector-curvature="0"
       id="path5555"
       d="m 106.6558,782.3088 c 0.89337,0.43359 1.93717,0.11381 2.40042,0.12523 l 0.0119,-1.10648 -2.61323,0.2315 z"
       style="fill:#ffffff;fill-opacity:1;stroke:none" />
    <path
       style="fill:#ffffff;fill-opacity:1;stroke:none"
       d="m 103.79263,783.13239 c -0.44051,0.94153 -1.36543,1.22457 -2.17657,1.66229 l -0.0641,-1.17194 2.07363,-1.13886 z"
       id="path5557"
       inkscape:connector-curvature="0"
       sodipodi:nodetypes="ccccc" />
    <path
       style="fill:#ffffff;fill-opacity:1;stroke:#1a1a1a;stroke-width:0.1401113;stroke-miterlimit:4;stroke-opacity:1;stroke-dasharray:none"
       d="m 110.47357,792.62715 c -0.3555,-6.31419 -10.14056,-6.96779 -10.56729,0.0893 l -0.33645,5.56388 c 4.93015,1.24596 6.36288,0.80071 11.19173,-0.53809 z"
       id="path5561"
       inkscape:connector-curvature="0"
       sodipodi:nodetypes="ssccs" />
    <path
       style="fill:#000000;fill-opacity:1;stroke:#1a1a1a;stroke-width:0.14011131;stroke-miterlimit:4;stroke-opacity:1;stroke-dasharray:none"
       d="m 98.26271,790.02301 -2.73763,1.98978 c 0.0617,-2.18563 -0.43349,-4.55723 0.61627,-5.75222 z"
       id="path5563"
       inkscape:connector-curvature="0"
       sodipodi:nodetypes="cccc" />
    <path
       style="fill:#0000ff;fill-opacity:1;stroke:#00009f;stroke-width:0.28022262;stroke-opacity:1;display:inline"
       d="m 92.7847,781.97907 c 0,0 -0.40419,0.30489 -0.98078,0.80564 0,0 0.71595,0.58839 0.71807,0.99829 0.002,0.38548 -0.66554,0.94575 -0.66554,0.94575 1.6235,1.54916 2.53644,3.79746 2.18753,5.07904 -0.25699,0.94395 -2.66915,1.68133 -2.66915,1.68133 0,0 -2.40341,-0.73738 -2.6604,-1.68133 -0.3572,-1.31204 0.65996,-3.63777 2.30136,-5.18412 0,0 -0.56271,-0.50389 -0.56044,-0.84067 0.002,-0.3611 0.61298,-0.89321 0.61298,-0.89321 -0.63714,-0.55964 -1.09463,-0.91072 -1.09463,-0.91072 z"
       id="rect6170"
       inkscape:connector-curvature="0"
       sodipodi:nodetypes="ccscscscsccc" />
    <path
       transform="matrix(0.39019485,0.15226387,-0.1789925,0.45869023,113.53722,556.29762)"
       d="m 517.14287,493.57144 a 26.428572,23.571428 0 1 1 -52.85715,0 26.428572,23.571428 0 1 1 52.85715,0 z"
       sodipodi:ry="23.571428"
       sodipodi:rx="26.428572"
       sodipodi:cy="493.57144"
       sodipodi:cx="490.71429"
       id="path3988"
       style="color:#000000;fill:#ffffff;fill-opacity:1;fill-rule:nonzero;stroke:#686868;stroke-width:11.01010132;stroke-linecap:butt;stroke-linejoin:miter;stroke-miterlimit:4;stroke-opacity:1;stroke-dasharray:none;stroke-dashoffset:0;marker:none;visibility:visible;display:inline;overflow:visible;enable-background:accumulate"
       sodipodi:type="arc" />
    <path
       sodipodi:type="arc"
       style="color:#000000;fill:#ffffff;fill-opacity:1;fill-rule:nonzero;stroke:#686868;stroke-width:16.13961411;stroke-linecap:butt;stroke-linejoin:miter;stroke-miterlimit:4;stroke-opacity:1;stroke-dasharray:none;stroke-dashoffset:0;marker:none;visibility:visible;display:inline;overflow:visible;enable-background:accumulate"
       id="path3990"
       sodipodi:cx="490.71429"
       sodipodi:cy="493.57144"
       sodipodi:rx="26.428572"
       sodipodi:ry="23.571428"
       d="m 517.14287,493.57144 a 26.428572,23.571428 0 1 1 -52.85715,0 26.428572,23.571428 0 1 1 52.85715,0 z"
       transform="matrix(0.26703544,0.10420397,-0.12171489,0.31190934,187.06131,650.52062)" />
    <path
       sodipodi:type="arc"
       style="color:#000000;fill:#ffffff;fill-opacity:1;fill-rule:nonzero;stroke:#686868;stroke-width:8.35480881;stroke-linecap:butt;stroke-linejoin:miter;stroke-miterlimit:4;stroke-opacity:1;stroke-dasharray:none;stroke-dashoffset:0;marker:none;visibility:visible;display:inline;overflow:visible;enable-background:accumulate"
       id="path3986"
       sodipodi:cx="490.71429"
       sodipodi:cy="493.57144"
       sodipodi:rx="26.428572"
       sodipodi:ry="23.571428"
       d="m 517.14287,493.57144 a 26.428572,23.571428 0 1 1 -52.85715,0 26.428572,23.571428 0 1 1 52.85715,0 z"
       transform="matrix(0.55105555,0,0,0.64993754,-89.592577,512.01416)" />
  </g>
</svg>
