<?xml version="1.0" encoding="UTF-8" standalone="no"?>
<!-- Created with Inkscape (http://www.inkscape.org/) -->

<svg
   xmlns:dc="http://purl.org/dc/elements/1.1/"
   xmlns:cc="http://creativecommons.org/ns#"
   xmlns:rdf="http://www.w3.org/1999/02/22-rdf-syntax-ns#"
   xmlns:svg="http://www.w3.org/2000/svg"
   xmlns="http://www.w3.org/2000/svg"
   xmlns:sodipodi="http://sodipodi.sourceforge.net/DTD/sodipodi-0.dtd"
   xmlns:inkscape="http://www.inkscape.org/namespaces/inkscape"
   width="744.09448819"
   height="1052.3622047"
   id="svg5370"
   version="1.1"
   inkscape:version="0.48.0 r9654"
   sodipodi:docname="New document 10">
  <defs
     id="defs5372" />
  <sodipodi:namedview
     id="base"
     pagecolor="#ffffff"
     bordercolor="#666666"
     borderopacity="1.0"
     inkscape:pageopacity="0.0"
     inkscape:pageshadow="2"
     inkscape:zoom="0.35"
     inkscape:cx="375"
     inkscape:cy="520"
     inkscape:document-units="px"
     inkscape:current-layer="layer1"
     showgrid="false"
     inkscape:window-width="469"
     inkscape:window-height="433"
     inkscape:window-x="175"
     inkscape:window-y="175"
     inkscape:window-maximized="0" />
  <metadata
     id="metadata5375">
    <rdf:RDF>
      <cc:Work
         rdf:about="">
        <dc:format>image/svg+xml</dc:format>
        <dc:type
           rdf:resource="http://purl.org/dc/dcmitype/StillImage" />
        <dc:title></dc:title>
      </cc:Work>
    </rdf:RDF>
  </metadata>
  <g
     inkscape:label="Layer 1"
     inkscape:groupmode="layer"
     id="layer1">
    <g
       id="g5003"
       transform="translate(-142.54887,-359.55004)">
      <path
         style="fill:#ffff00;fill-opacity:1;stroke:none"
         d="m 506.93529,636.21611 -1.51699,-15.63521 11.55097,2.62693 -4.45958,11.1733 z"
         id="path4094"
         inkscape:connector-curvature="0"
         sodipodi:nodetypes="ccccc" />
      <path
         style="fill:#000000;fill-opacity:1;stroke:#1a1a1a;stroke-width:0.5;stroke-miterlimit:4;stroke-opacity:1;stroke-dasharray:none"
         d="m 446.96303,593.42879 11.24137,-12.56729 4.09235,15.24729 z"
         id="path4096"
         inkscape:connector-curvature="0"
         sodipodi:nodetypes="cccc" />
      <path
         sodipodi:nodetypes="ccccc"
         inkscape:connector-curvature="0"
         id="path4098"
         d="m 493.86915,653.15371 -1.51697,-15.63523 11.55097,2.62693 -4.45961,11.1733 z"
         style="fill:#ffff00;fill-opacity:1;stroke:none" />
      <path
         sodipodi:nodetypes="sccsss"
         inkscape:connector-curvature="0"
         id="path4100"
         d="m 420.30675,604.63486 c -0.85296,9.25789 1.92783,18.08495 9.95266,23.34335 l 61.24287,26.00682 c 17.08712,-14.6568 15.22308,-18.23779 16.94377,-37.46082 0.24435,-2.72975 -52.91866,-31.4011 -52.91866,-31.4011 -20.78245,-10.84949 -33.34429,-0.85548 -35.22064,19.51175 z"
         style="fill:#000000;fill-opacity:1;stroke:#1a1a1a;stroke-width:0.5;stroke-miterlimit:4;stroke-opacity:1;stroke-dasharray:none" />
      <path
         style="fill:#ffff00;fill-opacity:1;stroke:none"
         d="m 437.04608,625.21292 -3.59883,-8.84203 c 6.27374,-4.92813 11.20441,-1.95454 12.24235,-0.62355 -0.75472,2.29906 -1.13504,4.44742 -8.64352,9.46558 z"
         id="path4102"
         inkscape:connector-curvature="0"
         sodipodi:nodetypes="cccc" />
      <path
         sodipodi:nodetypes="ccccc"
         inkscape:connector-curvature="0"
         id="path4104"
         d="m 444.59041,609.03687 c 3.50129,0.53116 5.2906,0.91424 6.88088,0.46199 l 0.34489,-5.16048 c -3.96759,-2.54912 -6.34661,-0.16652 -8.80602,1.96643 z"
         style="fill:#ffffff;fill-opacity:1;stroke:none" />
      <g
         style="fill:#ffffff"
         id="g4106"
         transform="matrix(0.27355724,-3.4653074,3.6402375,-0.97521085,-3123.5097,1783.1703)">
        <path
           sodipodi:nodetypes="scccccs"
           inkscape:connector-curvature="0"
           id="path4108"
           transform="matrix(-0.07897873,0.28064246,-0.2948094,0.02215439,279.00455,837.08439)"
           d="m 479.375,616.0625 c -11.83476,0.36595 -21.07893,13.88861 -21,23.875 l 27.375,11.625 5.125,2.28125 c 10.74832,-12.53471 8.68324,-9.54026 14.53125,-27 l -17.8125,-8.875 c -2.82139,-1.40913 -5.58082,-1.98782 -8.21875,-1.90625 z"
           style="fill:#ffffff;fill-opacity:1;stroke:#1a1a1a;stroke-width:0.49999997;stroke-miterlimit:4;stroke-opacity:1;stroke-dasharray:none" />
      </g>
      <path
         style="fill:#000000;fill-opacity:1;stroke:#1a1a1a;stroke-width:0.5;stroke-miterlimit:4;stroke-opacity:1;stroke-dasharray:none"
         d="m 485.21564,602.06343 1.7968,-17.06276 -16.59255,10.05436 z"
         id="path4110"
         inkscape:connector-curvature="0"
         sodipodi:nodetypes="cccc" />
      <path
         style="fill:#ffffff;fill-opacity:1;stroke:none"
         d="m 433.46932,611.69162 c -2.1631,2.8047 -3.72279,4.11642 -5.18449,4.88909 l -3.59416,-3.0767 c 1.27251,-2.88426 3.28451,-5.55238 8.08839,-4.83221 z"
         id="path4112"
         inkscape:connector-curvature="0"
         sodipodi:nodetypes="ccccc" />
    </g>
    <g
       id="g5015"
       transform="translate(-157.77689,-358.26565)">
      <path
         sodipodi:nodetypes="cccc"
         inkscape:connector-curvature="0"
         id="path4119"
         d="m 555.08353,614.36032 c -1.72124,0.69439 -5.91644,2.56784 -11.85957,13.14454 l 13.41197,2.34401 z"
         style="fill:#000000;fill-opacity:1;stroke:#1a1a1a;stroke-width:0.5;stroke-miterlimit:4;stroke-opacity:1;stroke-dasharray:none" />
      <path
         style="fill:#000000;fill-opacity:1;stroke:#1a1a1a;stroke-width:0.5;stroke-miterlimit:4;stroke-opacity:1;stroke-dasharray:none"
         d="m 559.14779,581.25655 c -7.00865,5.4656 -11.0673,13.37815 -8.83594,22.87815 l 1.45662,5.74297 -2.18948,33.20526 c 21.93671,7.46949 35.68961,7.1759 52.43652,-0.94545 2.37814,-1.15327 -3.69585,-47.27946 -3.69585,-47.27946 -7.68849,-22.77661 -23.75302,-25.62584 -39.17187,-13.60147 z"
         id="path4123"
         inkscape:connector-curvature="0"
         sodipodi:nodetypes="scccsss" />
      <path
         sodipodi:nodetypes="cccc"
         inkscape:connector-curvature="0"
         id="path4125"
         d="m 572.74997,616.06074 -3.32568,-8.94834 c 6.42208,-4.73321 8.64181,2.71239 12.1129,3.49234 z"
         style="fill:#ffff00;fill-opacity:1;stroke:none" />
      <path
         style="fill:#ffffff;fill-opacity:1;stroke:none"
         d="m 569.95067,602.78527 c -2.07644,2.87166 -5.89791,3.62888 -7.33503,4.44701 l -1.90561,-3.45856 8.60639,-3.68483 z"
         id="path4127"
         inkscape:connector-curvature="0"
         sodipodi:nodetypes="ccccc" />
      <path
         sodipodi:nodetypes="ccccc"
         inkscape:connector-curvature="0"
         id="path4129"
         d="m 580.34261,600.53979 c 2.97475,2.21618 6.36045,1.54418 9.64963,1.55061 l -1.77724,-3.79269 -8.44213,-0.0789 z"
         style="fill:#ffffff;fill-opacity:1;stroke:none" />
      <g
         transform="matrix(3.1378229,-1.4957462,2.6646761,2.6649327,-2223.6909,-1905.6554)"
         id="g4131"
         style="fill:#ffffff">
        <path
           style="fill:#ffffff;fill-opacity:1;stroke:#1a1a1a;stroke-width:0.14229046;stroke-miterlimit:4;stroke-opacity:1;stroke-dasharray:none"
           d="m 50.242001,982.96714 c 5.92844,-4.87526 12.253415,-2.26031 8.07003,4.64899 l -0.950493,1.56984 c -4.75665,-1.00131 -5.517232,-2.02442 -8.205313,-5.32594 z"
           id="path4133"
           inkscape:connector-curvature="0"
           sodipodi:nodetypes="ssccs" />
      </g>
      <path
         sodipodi:nodetypes="cccc"
         inkscape:connector-curvature="0"
         id="path4135"
         d="m 596.95376,631.45346 11.97815,1.5449 c -3.93406,-6.73837 -6.44282,-15.01217 -11.7753,-16.95728 z"
         style="fill:#000000;fill-opacity:1;stroke:#1a1a1a;stroke-width:0.5;stroke-miterlimit:4;stroke-opacity:1;stroke-dasharray:none" />
      <path
         sodipodi:nodetypes="ccccc"
         inkscape:connector-curvature="0"
         id="path4117"
         d="m 597.74757,643.9857 -14.98558,-4.71097 1.84966,11.80664 5.29165,-0.11796 z"
         style="fill:#ffff00;fill-opacity:1;stroke:none" />
      <path
         style="fill:#ffff00;fill-opacity:1;stroke:none"
         d="m 545.68075,642.5993 15.37932,-3.19957 -2.97466,9.74414 -5.29165,-0.11796 z"
         id="path4137"
         inkscape:connector-curvature="0"
         sodipodi:nodetypes="ccccc" />
      <path
         style="fill:#000000;fill-rule:evenodd;stroke:none"
         d="m 617.20179,632.82361 -3.4314,-2.31347 c -0.60176,1.51846 -1.70021,2.95613 -3.15116,4.06673 -1.49777,1.15001 -3.35546,2.00291 -5.21303,2.82067 2.02457,-0.14314 4.07102,-0.31379 6.14793,-0.95718 2.07001,-0.65582 4.04733,-1.86904 5.64766,-3.61675 z"
         id="path4962"
         inkscape:connector-curvature="0" />
      <path
         sodipodi:type="star"
         style="color:#000000;fill:#800080;fill-opacity:1;fill-rule:nonzero;stroke:#000000;stroke-width:1.70000005;stroke-opacity:1;marker:none;visibility:visible;display:inline;overflow:visible;enable-background:accumulate"
         id="path4964"
         sodipodi:sides="5"
         sodipodi:cx="406.23285"
         sodipodi:cy="505.4151"
         sodipodi:r1="7.9451241"
         sodipodi:r2="3.9725621"
         sodipodi:arg1="0.56331626"
         sodipodi:arg2="1.1916348"
         inkscape:flatsided="false"
         inkscape:rounded="0"
         inkscape:randomized="0"
         d="m 412.95036,509.65774 -5.2471,-0.55223 -3.42958,4.00937 -1.09624,-5.16094 -4.87294,-2.02275 4.56959,-2.63741 0.41794,-5.2595 3.9204,3.53093 5.13124,-1.2278 -2.14665,4.81965 z"
         inkscape:transform-center-x="0.7463518"
         inkscape:transform-center-y="0.012933817"
         transform="matrix(0.25169741,0.96780597,-0.96780597,0.25169741,1008.5818,103.74911)" />
    </g>
  </g>
</svg>
