<?xml version="1.0" encoding="UTF-8" standalone="no"?>
<!-- Created with Inkscape (http://www.inkscape.org/) -->

<svg
   xmlns:dc="http://purl.org/dc/elements/1.1/"
   xmlns:cc="http://creativecommons.org/ns#"
   xmlns:rdf="http://www.w3.org/1999/02/22-rdf-syntax-ns#"
   xmlns:svg="http://www.w3.org/2000/svg"
   xmlns="http://www.w3.org/2000/svg"
   xmlns:xlink="http://www.w3.org/1999/xlink"
   xmlns:sodipodi="http://sodipodi.sourceforge.net/DTD/sodipodi-0.dtd"
   xmlns:inkscape="http://www.inkscape.org/namespaces/inkscape"
   width="119.89845"
   height="107.67712"
   id="svg3318"
   version="1.1"
   inkscape:version="0.48.4 r9939"
   sodipodi:docname="backpack.svg"
   inkscape:export-filename="C:\Users\Jake\Documents\FlashDevelop\HumphreyRemastered\lib\art\decals\backpack.png"
   inkscape:export-xdpi="90"
   inkscape:export-ydpi="90">
  <defs
     id="defs3320">
    <filter
       inkscape:collect="always"
       id="filter4142"
       x="-0.14153111"
       width="1.2830622"
       y="-0.043271441"
       height="1.0865428"
       color-interpolation-filters="sRGB">
      <feGaussianBlur
         inkscape:collect="always"
         stdDeviation="1.1721103"
         id="feGaussianBlur4144" />
    </filter>
    <filter
       inkscape:collect="always"
       id="filter4154"
       x="-0.20390914"
       width="1.4078183"
       y="-0.085015781"
       height="1.1700315"
       color-interpolation-filters="sRGB">
      <feGaussianBlur
         inkscape:collect="always"
         stdDeviation="2.1828528"
         id="feGaussianBlur4156" />
    </filter>
    <linearGradient
       gradientTransform="translate(-37.208242,-13.607184)"
       y2="922.39972"
       x2="752.05859"
       y1="924.10437"
       x1="790.38123"
       gradientUnits="userSpaceOnUse"
       id="linearGradient3926"
       xlink:href="#linearGradient3784"
       inkscape:collect="always" />
    <linearGradient
       id="linearGradient3784"
       inkscape:collect="always">
      <stop
         id="stop3786"
         offset="0"
         style="stop-color:#2c2c2c;stop-opacity:1;" />
      <stop
         id="stop3788"
         offset="1"
         style="stop-color:#2c2c2c;stop-opacity:0;" />
    </linearGradient>
    <linearGradient
       inkscape:collect="always"
       xlink:href="#linearGradient3784"
       id="linearGradient4288"
       gradientUnits="userSpaceOnUse"
       gradientTransform="translate(-235.44819,-553.00088)"
       x1="790.38123"
       y1="924.10437"
       x2="752.05859"
       y2="922.39972" />
    <filter
       inkscape:collect="always"
       id="filter4350"
       x="-0.15146056"
       width="1.3029211"
       y="-0.72268325"
       height="2.4453664"
       color-interpolation-filters="sRGB">
      <feGaussianBlur
         inkscape:collect="always"
         stdDeviation="5.3230649"
         id="feGaussianBlur4352" />
    </filter>
  </defs>
  <sodipodi:namedview
     id="base"
     pagecolor="#ffffff"
     bordercolor="#666666"
     borderopacity="1.0"
     inkscape:pageopacity="0.0"
     inkscape:pageshadow="2"
     inkscape:zoom="3.959798"
     inkscape:cx="46.25653"
     inkscape:cy="54.486673"
     inkscape:document-units="px"
     inkscape:current-layer="layer1"
     showgrid="false"
     fit-margin-top="5"
     fit-margin-left="5"
     fit-margin-right="5"
     fit-margin-bottom="5"
     inkscape:window-width="1440"
     inkscape:window-height="838"
     inkscape:window-x="-8"
     inkscape:window-y="-8"
     inkscape:window-maximized="1">
    <inkscape:grid
       type="xygrid"
       id="grid3358"
       empspacing="5"
       visible="true"
       enabled="true"
       snapvisiblegridlinesonly="true"
       originx="-363.55724px"
       originy="-546.39482px" />
  </sodipodi:namedview>
  <metadata
     id="metadata3323">
    <rdf:RDF>
      <cc:Work
         rdf:about="">
        <dc:format>image/svg+xml</dc:format>
        <dc:type
           rdf:resource="http://purl.org/dc/dcmitype/StillImage" />
        <dc:title></dc:title>
      </cc:Work>
    </rdf:RDF>
  </metadata>
  <g
     inkscape:label="Layer 1"
     inkscape:groupmode="layer"
     id="layer1"
     transform="translate(-363.55724,-398.29023)">
    <path
       transform="matrix(1,0,0,0.63779896,-9.0913731,174.36388)"
       style="opacity:0.62044253;fill:#000000;fill-opacity:1;stroke:none;filter:url(#filter4350)"
       d="m 474.77171,490.46484 c 0,4.88156 -18.88189,8.83884 -42.17387,8.83884 -23.29199,0 -40.7453,-11.79674 -40.7453,-16.6783 0,-2.49728 3.51297,3.0868 11.45853,1.47937 7.58603,-1.53469 17.91036,-2.47874 29.28677,-2.47874 23.29198,0 42.17387,3.95728 42.17387,8.83883 z"
       id="path4344"
       inkscape:connector-curvature="0"
       sodipodi:nodetypes="ssssss" />
    <path
       transform="matrix(1,0,0.15644818,0.98768617,0,0)"
       style="fill:#1a1a1a;fill-opacity:1;stroke:#000000;stroke-width:1.00621438;stroke-linejoin:miter;stroke-miterlimit:4;stroke-opacity:1"
       d="m 317.96316,454.85298 3.0714,-6.32792 5.02604,6.59912 -1.47543,23.82734 -8.5863,0 z"
       id="rect3759"
       inkscape:connector-curvature="0"
       sodipodi:nodetypes="cccccc" />
    <path
       style="font-size:medium;font-style:normal;font-variant:normal;font-weight:normal;font-stretch:normal;text-indent:0;text-align:start;text-decoration:none;line-height:normal;letter-spacing:normal;word-spacing:normal;text-transform:none;direction:ltr;block-progression:tb;writing-mode:lr-tb;text-anchor:start;baseline-shift:baseline;color:#000000;fill:#957800;fill-opacity:1;stroke:#968938;stroke-width:0.5;stroke-miterlimit:4;stroke-opacity:1;stroke-dasharray:none;marker:none;visibility:visible;display:inline;overflow:visible;enable-background:accumulate;font-family:Sans;-inkscape-font-specification:Sans"
       d="m 385.26865,452.53566 c 0.58575,3.69792 1.17149,7.39583 1.75724,11.09375 5.63542,0 10.77975,0 16.41517,0 -0.5841,-3.6875 -1.16819,-7.375 -1.75229,-11.0625 -1.01709,-0.0456 -2.02519,-0.0282 -3.03619,-0.0312 0.1056,0.66667 0.2112,1.33333 0.3168,2 0.34375,0 0.6875,0 1.03125,0 0.37454,2.36458 0.74909,4.72917 1.12364,7.09375 -4.30208,0 -8.11309,0 -12.41517,0 -0.37455,-2.36458 -0.7491,-4.72917 -1.12364,-7.09375 0.42708,0 0.85417,0 1.28125,0 -0.1056,-0.66667 -0.2112,-1.33333 -0.3168,-2 -1.09374,-3e-5 -2.18759,7e-5 -3.28126,-5e-5 z"
       id="path3768"
       inkscape:connector-curvature="0"
       sodipodi:nodetypes="ccccccccccccc" />
    <path
       style="fill:#1a1a1a;fill-opacity:1;stroke:#000000;stroke-width:1.38851237;stroke-miterlimit:4;stroke-opacity:1"
       d="m 400.93002,421.15708 c 13.84548,-14.54384 36.57155,-17.17259 36.57155,-17.17259 8.44805,28.56841 30.12121,68.89745 20.32932,85.50524 -14.88316,3.3887 -31.89184,2.94782 -48.70146,-0.26523 -21.44662,-4.09938 -23.68265,-51.80322 -8.19941,-68.06742 z"
       id="rect3341"
       inkscape:connector-curvature="0"
       sodipodi:nodetypes="sccss" />
    <path
       style="fill:#000000;fill-opacity:1;stroke:none;filter:url(#filter4142)"
       d="m 443.40464,422.47759 c 10.42501,15.78665 19.48134,53.11359 8.98924,64.94813 l 6.52029,-0.67185 c 15.10246,-18.35639 -13.67285,-66.29071 -15.50953,-64.27628 z"
       id="path3370"
       inkscape:connector-curvature="0"
       sodipodi:nodetypes="cccc" />
    <path
       sodipodi:nodetypes="cccc"
       inkscape:connector-curvature="0"
       id="path3360"
       d="m 443.90972,422.47759 c 10.42501,15.78665 19.48134,53.11359 8.98924,64.94813 l 6.52029,-0.67185 c 15.10246,-18.35639 -13.67285,-66.29071 -15.50953,-64.27628 z"
       style="fill:#1a1a1a;fill-opacity:1;stroke:#000000;stroke-width:1.38851237;stroke-miterlimit:4;stroke-opacity:1" />
    <path
       sodipodi:nodetypes="scsssss"
       inkscape:connector-curvature="0"
       id="path3362"
       d="m 400.93002,421.15708 c 13.84548,-14.54384 36.57155,-17.17259 36.57155,-17.17259 1.74055,2.64379 3.68265,5.67318 2.09139,6.87532 -5.99702,4.53057 -11.14731,7.71358 -19.98622,12.42545 -9.04556,4.82203 -16.88466,0.38336 -27.34284,25.61299 -1.87861,4.53201 -1.59596,-7.84413 1.75644,-17.69019 1.4382,-4.22402 5.77267,-8.85662 6.90968,-10.05098 z"
       style="fill:#1a1a1a;fill-opacity:1;stroke:#000000;stroke-width:1.38851237;stroke-miterlimit:4;stroke-opacity:1" />
    <path
       sodipodi:nodetypes="ccccc"
       inkscape:connector-curvature="0"
       id="path3372"
       d="m 420.51218,429.37534 c 11.68535,17.34004 21.16954,51.65344 8.96704,58.86401 l 10.4819,-0.59658 c 9.45266,-7.64228 9.49502,-31.30649 -9.15579,-61.02547 z"
       style="opacity:0.6017699;fill:#000000;fill-opacity:1;stroke:none;filter:url(#filter4154)" />
    <path
       style="fill:#1a1a1a;fill-opacity:1;stroke:#000000;stroke-width:1.38851237;stroke-miterlimit:4;stroke-opacity:1"
       d="m 421.77488,429.37534 c 11.68535,17.34004 21.16954,51.65344 8.96704,58.86401 l 10.4819,-0.59658 c 9.45266,-7.64228 9.49502,-31.30649 -9.15579,-61.02547 z"
       id="rect3347"
       inkscape:connector-curvature="0"
       sodipodi:nodetypes="ccccc" />
    <path
       sodipodi:nodetypes="sccss"
       inkscape:connector-curvature="0"
       id="path3364"
       d="m 433.88285,483.06915 c -3.00593,0.61927 -4.86954,6.10989 -4.86406,7.49666 l 14.36583,-0.0162 c 1.73269,-1.40085 5.51673,-6.32536 2.987,-7.05079 -4.61911,-1.32456 -8.83665,-1.18204 -12.48877,-0.42965 z"
       style="fill:#1a1a1a;fill-opacity:1;stroke:#000000;stroke-width:1.38851237;stroke-miterlimit:4;stroke-opacity:1" />
    <path
       style="fill:#1a1a1a;fill-opacity:1;stroke:#000000;stroke-width:1.38851237;stroke-miterlimit:4;stroke-opacity:1"
       d="m 455.06823,484.14059 c -3.38978,0.61927 -3.51501,4.10096 -4.3691,5.48773 l 6.29551,-0.0162 c 2.60099,-1.40085 4.58264,-4.82789 4.26925,-5.30972 -0.58725,-0.90287 -6.19566,-0.16181 -6.19566,-0.16181 z"
       id="path3366"
       inkscape:connector-curvature="0"
       sodipodi:nodetypes="cccsc" />
    <path
       style="fill:#1a1a1a;fill-opacity:1;stroke:#000000;stroke-width:1.38851237;stroke-miterlimit:4;stroke-opacity:1"
       d="m 418.74435,426.2092 c -2.04848,1.37107 2.47749,5.6251 4.25059,6.47494 l 12.38171,-4.47705 c -0.15024,-1.4314 -4.82778,-5.70288 -6.16863,-5.31459 -5.85065,1.69426 -10.46367,3.3167 -10.46367,3.3167 z"
       id="path4158"
       inkscape:connector-curvature="0"
       sodipodi:nodetypes="cccsc" />
  </g>
</svg>
