<?xml version="1.0" encoding="UTF-8" standalone="no"?>
<!-- Created with Inkscape (http://www.inkscape.org/) -->

<svg
   xmlns:dc="http://purl.org/dc/elements/1.1/"
   xmlns:cc="http://creativecommons.org/ns#"
   xmlns:rdf="http://www.w3.org/1999/02/22-rdf-syntax-ns#"
   xmlns:svg="http://www.w3.org/2000/svg"
   xmlns="http://www.w3.org/2000/svg"
   xmlns:xlink="http://www.w3.org/1999/xlink"
   xmlns:sodipodi="http://sodipodi.sourceforge.net/DTD/sodipodi-0.dtd"
   xmlns:inkscape="http://www.inkscape.org/namespaces/inkscape"
   width="800"
   height="600"
   id="svg6005"
   version="1.1"
   inkscape:version="0.48.0 r9654"
   sodipodi:docname="desert-hub.svg"
   inkscape:export-filename="C:\Users\Jake\Documents\FlashDevelop\HumphreyRemastered\lib\art\decals\desert-hub.png"
   inkscape:export-xdpi="90"
   inkscape:export-ydpi="90">
  <defs
     id="defs6007">
    <linearGradient
       inkscape:collect="always"
       id="linearGradient6640">
      <stop
         style="stop-color:#656e71;stop-opacity:1"
         offset="0"
         id="stop6642" />
      <stop
         style="stop-color:#656e71;stop-opacity:0"
         offset="1"
         id="stop6644" />
    </linearGradient>
    <filter
       inkscape:collect="always"
       id="filter6636">
      <feGaussianBlur
         inkscape:collect="always"
         stdDeviation="1.3557225"
         id="feGaussianBlur6638" />
    </filter>
    <linearGradient
       inkscape:collect="always"
       xlink:href="#linearGradient6640"
       id="linearGradient6646"
       x1="424.28571"
       y1="782.72931"
       x2="590.35712"
       y2="726.64789"
       gradientUnits="userSpaceOnUse" />
    <linearGradient
       inkscape:collect="always"
       xlink:href="#linearGradient6640"
       id="linearGradient6649"
       gradientUnits="userSpaceOnUse"
       x1="424.28571"
       y1="782.72931"
       x2="590.35712"
       y2="726.64789" />
    <filter
       inkscape:collect="always"
       id="filter6665"
       x="-0.066310897"
       width="1.1326218"
       y="-0.16087986"
       height="1.3217597">
      <feGaussianBlur
         inkscape:collect="always"
         stdDeviation="7.5079797"
         id="feGaussianBlur6667" />
    </filter>
    <linearGradient
       inkscape:collect="always"
       xlink:href="#linearGradient6640"
       id="linearGradient6683"
       gradientUnits="userSpaceOnUse"
       x1="424.28571"
       y1="782.72931"
       x2="590.35712"
       y2="726.64789" />
  </defs>
  <sodipodi:namedview
     id="base"
     pagecolor="#ffffff"
     bordercolor="#666666"
     borderopacity="1.0"
     inkscape:pageopacity="0.0"
     inkscape:pageshadow="2"
     inkscape:zoom="0.35"
     inkscape:cx="298.92696"
     inkscape:cy="183.06492"
     inkscape:document-units="px"
     inkscape:current-layer="layer1"
     showgrid="false"
     inkscape:window-width="1440"
     inkscape:window-height="838"
     inkscape:window-x="-8"
     inkscape:window-y="-8"
     inkscape:window-maximized="1" />
  <metadata
     id="metadata6010">
    <rdf:RDF>
      <cc:Work
         rdf:about="">
        <dc:format>image/svg+xml</dc:format>
        <dc:type
           rdf:resource="http://purl.org/dc/dcmitype/StillImage" />
        <dc:title></dc:title>
      </cc:Work>
    </rdf:RDF>
  </metadata>
  <g
     inkscape:label="Layer 1"
     inkscape:groupmode="layer"
     id="layer1"
     transform="translate(0,-452.36218)">
    <path
       sodipodi:nodetypes="ccccc"
       inkscape:connector-curvature="0"
       id="path6043"
       d="m 754.64225,617.22836 c -3.06102,-10.94097 -15.70797,-6.18398 -15.48587,0 l 0,30.27147 15.48587,-4e-5 z"
       style="fill:#247124;fill-opacity:1;stroke:#000000;stroke-width:0.70647436;stroke-opacity:1" />
    <path
       sodipodi:nodetypes="cscssc"
       inkscape:connector-curvature="0"
       id="path6045"
       d="m 172.16722,792.99053 c 0,0 329.95179,-168.07363 501.96066,-167.8406 170.21889,0.23049 496.56202,167.12725 496.56202,167.12725 0,0 -496.72469,485.57142 -497.20737,485.57162 -0.25415,10e-5 -139.49843,-134.6864 -271.1518,-262.0855 C 284.19279,901.44292 172.16722,792.99053 172.16722,792.99053 z"
       style="fill:#f8cd81;fill-opacity:1;stroke:#efc67e;stroke-opacity:1" />
    <path
       sodipodi:nodetypes="ccsscccccc"
       transform="matrix(1,0,0,0.72166297,419.18418,167.51125)"
       inkscape:connector-curvature="0"
       id="path6681"
       d="m 545.5821,736.9785 c -1.035,0.30349 -0.99518,0.41816 -1.88644,0.69087 -1.30703,-0.71045 -1.70542,-4.05646 -2.61312,-3.41085 -3.62816,2.58057 -6.7533,-5.03538 -9.51911,-4.39078 -1.89037,0.44057 -3.61795,1.72078 -5.04265,2.15671 1.96771,4.448 2.95559,5.76132 7.0979,8.4047 -12.13423,3.71951 -22.72849,8.16703 -34.86272,11.88654 3.89483,4.11027 7.78967,8.22055 11.6845,12.33082 4.09309,-1.25657 30.58212,-9.33366 54.36251,-16.62609 -15.4012,-8.43965 -10.40226,-5.49861 -19.22087,-11.04192 z"
       style="opacity:0.50442478;fill:url(#linearGradient6683);fill-opacity:1;stroke:none;filter:url(#filter6636)" />
    <path
       sodipodi:nodetypes="ccccccsccc"
       inkscape:connector-curvature="0"
       id="path6047"
       d="m 499.88391,697.02751 -5.2e-4,17.23811 c -4.43834,4.07451 -7.2762,0.14426 -10.87203,10e-5 l 0,13.89019 c 5.44135,0.73864 11.21835,0.0898 17.31162,-3.25383 l -0.25183,-8.29348 c 0,0 3.41701,-0.19908 3.98549,-1.59331 2.3128,-5.67724 0.52985,-17.98778 0.52985,-17.98778 -3.02466,-2.55228 -5.90754,-5.43982 -10.70444,0 z"
       style="fill:#005a00;fill-opacity:1;stroke:#000000;stroke-width:0.44893363;stroke-opacity:1" />
    <path
       style="fill:url(#linearGradient6649);fill-opacity:1;stroke:none;filter:url(#filter6636);opacity:0.74778761"
       d="m 602.58706,727.7818 c -5.63153,-4.75006 -13.58068,-3.44409 -19.98152,-1.14233 -9.78997,2.99551 -11.11991,2.49164 -20.90988,5.48715 -3.08089,-1.67464 -4.27462,-6.9959 0.20426,-6.93429 6.91655,-2.11631 13.8331,-4.23262 20.74965,-6.34893 4.69367,-5.06275 0.38455,-6.67227 -4.65654,-6.41801 -4.8988,-0.62945 -9.71837,1.41773 -14.51404,2.2812 -5.16222,1.48808 -10.84589,2.49033 -15.0865,5.95411 0.66052,2.69592 6.22629,3.88396 1.25168,4.57691 -4.37446,1.33849 -8.74893,2.67697 -13.12339,4.01546 1.96771,4.448 2.95559,5.76132 7.0979,8.4047 -12.13423,3.71951 -32.72849,10.93841 -44.86272,14.65792 3.89483,4.11027 7.78967,8.22055 11.6845,12.33082 6.57134,-2.01739 21.60272,-7.53416 28.17406,-9.55155 3.06351,2.50475 6.79525,5.66624 10.72091,5.82948 2.24004,-0.74263 4.48009,-1.48527 6.72013,-2.2279 3.21538,3.5051 8.13564,1.19384 11.98367,0.31944 3.70224,-1.22268 12.70309,-2.84092 7.62377,-7.99894 -2.54842,-1.58448 -5.51844,-1.83409 -8.20447,-0.56695 -4.24283,1.29821 -8.48566,2.59643 -12.72849,3.89464 -3.65397,-0.34909 -5.99262,-3.52313 -1.36702,-3.76247 18.17391,-5.60559 27.94639,-7.55064 46.0837,-13.25687 4.02041,-1.21623 7.05037,-6.34893 3.14034,-9.54359 z"
       id="path6621"
       inkscape:connector-curvature="0"
       transform="matrix(1,0,0,0.72166297,-20.714286,217.20179)"
       sodipodi:nodetypes="ccccccccccccccccccccccc" />
    <path
       sodipodi:nodetypes="ccccc"
       inkscape:connector-curvature="0"
       id="path6049"
       d="m 494.44259,654.10463 c -1.48531,-13.65091 -19.23796,-15.35825 -20.68152,0 l 0,110.84469 c 3.03451,4.40598 13.45106,6.01972 20.68152,4 z"
       style="fill:#005a00;fill-opacity:1;stroke:#000000;stroke-width:0.66600513;stroke-opacity:1" />
    <path
       sodipodi:nodetypes="csccccccc"
       inkscape:connector-curvature="0"
       id="path6051"
       d="m 448.91263,662.71006 c 0,0 -3.89232,21.32202 -5.4e-4,29.28713 0.98013,2.00448 6.69119,0 6.69119,0 l -5.8e-4,17.07029 c 15.40555,4.23772 17.55513,0.37098 25.42434,0 l 0,-20.75203 c -4.96819,1.64992 -9.47066,5.0483 -16.22442,3e-5 l 0,-25.60539 c -4.36335,-5.13883 -8.76148,-10.08288 -15.88999,-3e-5 z"
       style="fill:#005a00;fill-opacity:1;stroke:#000000;stroke-width:0.66600513;stroke-opacity:1" />
    <path
       sodipodi:nodetypes="ccccccccc"
       inkscape:connector-curvature="0"
       id="path6053"
       d="m 898.77421,670.45657 0,12.47606 3.17822,2.75338 3e-5,3.36472 c 6.4674,4.49033 12.93543,3.49276 19.40267,6e-5 l 0,-9.89156 c -4.5692,1.80534 -9.1621,3.42368 -14.38523,0 l 3e-5,-8.70263 c -2.52218,-6.48266 -7.30405,-3.00471 -8.19579,3e-5 z"
       style="fill:#005a00;fill-opacity:1;stroke:#000000;stroke-width:0.51226985;stroke-opacity:1" />
    <path
       sodipodi:nodetypes="ccccc"
       inkscape:connector-curvature="0"
       id="path6055"
       d="m 934.68401,652.65151 c -3.85855,-10.49745 -14.75465,-6.8208 -15.90744,0 l 0.27101,61.80402 c 5.42746,4.26221 10.42422,4.45243 15.36542,4.1171 z"
       style="fill:#005a00;fill-opacity:1;stroke:#000000;stroke-width:0.51226985;stroke-opacity:1" />
    <path
       sodipodi:nodetypes="ccccc"
       inkscape:connector-curvature="0"
       id="path6057"
       d="m 931.35444,640.65209 c 1.13549,-5.58703 7.35313,-5.31608 8.17752,0 l 0,15.15365 -8.17752,3.37915 z"
       style="fill:#005a00;fill-opacity:1;stroke:#000000;stroke-width:0.34530544;stroke-opacity:1" />
    <path
       sodipodi:nodetypes="ccccccc"
       inkscape:connector-curvature="0"
       id="path6059"
       d="m 733.60914,607.36113 c 1.28672,-3.63413 6.25962,-3.80295 8.17755,0 l -3e-5,10.94681 1.32686,1.41599 0,7.57 -9.50438,-4.77879 z"
       style="fill:#247124;fill-opacity:1;stroke:#000000;stroke-width:0.34530544;stroke-opacity:1" />
    <path
       style="fill:#f8cd81;fill-opacity:1;stroke:#efc67e;stroke-opacity:1"
       d="m -524.83804,881.88395 c 0,0 329.95179,-168.07363 501.960664,-167.8406 170.218886,0.23049 506.562016,172.84154 506.562016,172.84154 l -33.50177,171.95241 -473.705596,307.9049 c -0.2131,0.1385 -139.498434,-134.6864 -271.151804,-262.0855 C -412.81247,990.33634 -524.83804,881.88395 -524.83804,881.88395 z"
       id="path6081"
       inkscape:connector-curvature="0"
       sodipodi:nodetypes="csccssc" />
  </g>
</svg>
