<?xml version="1.0" encoding="UTF-8" standalone="no"?>
<!-- Created with Inkscape (http://www.inkscape.org/) -->

<svg
   xmlns:dc="http://purl.org/dc/elements/1.1/"
   xmlns:cc="http://creativecommons.org/ns#"
   xmlns:rdf="http://www.w3.org/1999/02/22-rdf-syntax-ns#"
   xmlns:svg="http://www.w3.org/2000/svg"
   xmlns="http://www.w3.org/2000/svg"
   xmlns:xlink="http://www.w3.org/1999/xlink"
   xmlns:sodipodi="http://sodipodi.sourceforge.net/DTD/sodipodi-0.dtd"
   xmlns:inkscape="http://www.inkscape.org/namespaces/inkscape"
   width="1200"
   height="600"
   id="svg6005"
   version="1.1"
   inkscape:version="0.48.0 r9654"
   sodipodi:docname="desert-hub.svg"
   inkscape:export-filename="C:\Users\Jake\Documents\FlashDevelop\HumphreyRemastered\lib\art\decals\desert-hub.png"
   inkscape:export-xdpi="90"
   inkscape:export-ydpi="90">
  <defs
     id="defs6007">
    <linearGradient
       inkscape:collect="always"
       id="linearGradient6640">
      <stop
         style="stop-color:#656e71;stop-opacity:1"
         offset="0"
         id="stop6642" />
      <stop
         style="stop-color:#656e71;stop-opacity:0"
         offset="1"
         id="stop6644" />
    </linearGradient>
    <filter
       inkscape:collect="always"
       id="filter6636"
       color-interpolation-filters="sRGB">
      <feGaussianBlur
         inkscape:collect="always"
         stdDeviation="1.3557225"
         id="feGaussianBlur6638" />
    </filter>
    <linearGradient
       inkscape:collect="always"
       xlink:href="#linearGradient6640"
       id="linearGradient6646"
       x1="424.28571"
       y1="782.72931"
       x2="590.35712"
       y2="726.64789"
       gradientUnits="userSpaceOnUse" />
    <linearGradient
       inkscape:collect="always"
       xlink:href="#linearGradient6640"
       id="linearGradient6649"
       gradientUnits="userSpaceOnUse"
       x1="424.28571"
       y1="782.72931"
       x2="590.35712"
       y2="726.64789" />
    <linearGradient
       inkscape:collect="always"
       xlink:href="#linearGradient6640"
       id="linearGradient6683"
       gradientUnits="userSpaceOnUse"
       x1="424.28571"
       y1="782.72931"
       x2="590.35712"
       y2="726.64789" />
    <linearGradient
       inkscape:collect="always"
       xlink:href="#linearGradient6640"
       id="linearGradient9356"
       gradientUnits="userSpaceOnUse"
       x1="424.28571"
       y1="782.72931"
       x2="590.35712"
       y2="726.64789" />
  </defs>
  <sodipodi:namedview
     id="base"
     pagecolor="#ffffff"
     bordercolor="#666666"
     borderopacity="1.0"
     inkscape:pageopacity="0.0"
     inkscape:pageshadow="2"
     inkscape:zoom="0.24748737"
     inkscape:cx="635.50372"
     inkscape:cy="293.47471"
     inkscape:document-units="px"
     inkscape:current-layer="layer1"
     showgrid="false"
     inkscape:window-width="1440"
     inkscape:window-height="838"
     inkscape:window-x="-8"
     inkscape:window-y="-8"
     inkscape:window-maximized="1" />
  <metadata
     id="metadata6010">
    <rdf:RDF>
      <cc:Work
         rdf:about="">
        <dc:format>image/svg+xml</dc:format>
        <dc:type
           rdf:resource="http://purl.org/dc/dcmitype/StillImage" />
        <dc:title></dc:title>
      </cc:Work>
    </rdf:RDF>
  </metadata>
  <g
     inkscape:label="Layer 1"
     inkscape:groupmode="layer"
     id="layer1"
     transform="translate(0,-452.36218)">
    <path
       sodipodi:nodetypes="cccccccccc"
       inkscape:connector-curvature="0"
       id="path6053-9"
       d="m 1180.0118,691.42767 0,7.53056 -1.9184,1.66194 0,2.03095 c -3.9037,2.71037 -7.8078,2.10823 -11.7114,4e-5 l 0,-5.97056 c 2.7579,1.0897 5.5302,2.06654 8.6829,0 l 0,-5.25292 c 1.5224,-3.91294 4.4087,-1.81364 4.947,2e-5 z"
       style="fill:#005a00;fill-opacity:1;stroke:#000000;stroke-width:0.51226985;stroke-opacity:1" />
    <path
       sodipodi:nodetypes="ccccc"
       inkscape:connector-curvature="0"
       id="path6055-9"
       d="m 1158.3366,680.68051 c 2.3291,-6.33627 8.906,-4.11704 9.6018,0 l -0.1636,37.30497 c -3.276,2.57268 -6.2921,2.68749 -9.2746,2.48509 z"
       style="fill:#005a00;fill-opacity:1;stroke:#000000;stroke-width:0.51226985;stroke-opacity:1" />
    <path
       sodipodi:nodetypes="ccccc"
       inkscape:connector-curvature="0"
       id="path6057-7"
       d="m 1160.3464,673.43765 c -0.6854,-3.37234 -4.4384,-3.20879 -4.936,0 l 0,9.14676 4.936,2.03966 z"
       style="fill:#005a00;fill-opacity:1;stroke:#000000;stroke-width:0.34530544;stroke-opacity:1" />
    <path
       style="fill:#f8cd81;fill-opacity:1;stroke:#efc67e;stroke-opacity:1"
       d="m 580.87625,871.34149 c 0,0 329.95179,-168.07363 501.96065,-167.8406 170.2189,0.23049 506.562,172.84154 506.562,172.84154 l -33.5017,171.95237 -744.85744,45.8194 C 692.83558,979.86238 580.87625,871.34149 580.87625,871.34149 z"
       id="path6081"
       inkscape:connector-curvature="0"
       sodipodi:nodetypes="csccsc" />
    <path
       sodipodi:nodetypes="ccccc"
       inkscape:connector-curvature="0"
       id="path6043"
       d="m 236.7863,606.6859 c 3.06102,-10.94097 15.70797,-6.18398 15.48587,0 l 0,30.27147 -15.48587,-4e-5 z"
       style="fill:#247124;fill-opacity:1;stroke:#000000;stroke-width:0.70647436;stroke-opacity:1" />
    <path
       sodipodi:nodetypes="cscccc"
       inkscape:connector-curvature="0"
       id="path6045"
       d="m 819.26129,782.44807 c 0,0 -329.95175,-168.07363 -501.96062,-167.8406 -170.21889,0.23049 -496.56202,167.12725 -496.56202,167.12725 l 168.878783,272.49448 796.623257,-0.437 z"
       style="fill:#f8cd81;fill-opacity:1;stroke:#efc67e;stroke-opacity:1" />
    <path
       sodipodi:nodetypes="ccsscccccc"
       transform="matrix(-1,0,0,0.72166297,572.24439,156.96878)"
       inkscape:connector-curvature="0"
       id="path6681"
       d="m 545.5821,736.9785 c -1.035,0.30349 -0.99518,0.41816 -1.88644,0.69087 -1.30703,-0.71045 -1.70542,-4.05646 -2.61312,-3.41085 -3.62816,2.58057 -6.7533,-5.03538 -9.51911,-4.39078 -1.89037,0.44057 -3.61795,1.72078 -5.04265,2.15671 1.96771,4.448 2.95559,5.76132 7.0979,8.4047 -12.13423,3.71951 -22.72849,8.16703 -34.86272,11.88654 3.89483,4.11027 7.78967,8.22055 11.6845,12.33082 4.09309,-1.25657 30.58212,-9.33366 54.36251,-16.62609 -15.4012,-8.43965 -10.40226,-5.49861 -19.22087,-11.04192 z"
       style="opacity:0.50442475;fill:url(#linearGradient6683);fill-opacity:1;stroke:none;filter:url(#filter6636)" />
    <path
       sodipodi:nodetypes="ccccccsccc"
       inkscape:connector-curvature="0"
       id="path6047"
       d="m 491.54464,684.96982 5.2e-4,17.23811 c 4.43834,4.07451 7.2762,0.14426 10.87203,10e-5 l 0,13.89019 c -5.44135,0.73864 -11.21835,0.0898 -17.31162,-3.25383 l 0.25183,-8.29348 c 0,0 -3.41701,-0.19908 -3.98549,-1.59331 -2.3128,-5.67724 -0.52985,-17.98778 -0.52985,-17.98778 3.02466,-2.55228 5.90754,-5.43982 10.70444,0 z"
       style="fill:#005a00;fill-opacity:1;stroke:#000000;stroke-width:0.44893363;stroke-opacity:1" />
    <path
       style="opacity:0.7477876;fill:url(#linearGradient6649);fill-opacity:1;stroke:none;filter:url(#filter6636)"
       d="m 594.79929,713.27869 c -6.04232,-3.65444 -13.79178,-0.87512 -19.91018,2.60163 -9.40908,4.79738 -10.7759,4.5466 -20.18497,9.34399 -3.21571,-1.08369 -4.91635,-6.13331 -0.47192,-6.90919 6.64744,-3.38932 13.2949,-6.77864 19.94234,-10.16796 4.15814,-5.89352 -0.26824,-6.68318 -5.23855,-5.48934 -4.91531,0.29163 -9.49166,3.22064 -14.15951,4.97228 -4.97026,2.43904 -10.50449,4.49412 -14.36932,8.71861 0.91683,2.54788 6.54737,2.68513 1.68563,4.30123 -4.20427,2.14362 -8.40854,4.28724 -12.6128,6.43087 2.38258,4.03971 3.48923,5.15645 7.85094,7.00171 -11.66148,5.95279 -26.4403,14.51369 -38.57453,18.2332 3.89483,4.11027 7.78967,8.22055 11.6845,12.33082 6.57134,-2.01739 17.31336,-9.12426 23.62837,-12.35107 3.27927,1.90947 7.28458,4.34483 11.19027,3.77307 2.14731,-1.15439 4.29464,-2.30879 6.44195,-3.46318 3.5271,2.8723 8.17752,-0.33719 11.90532,-1.9226 3.54944,-1.90327 12.31063,-5.18851 6.77577,-9.35037 -2.67933,-1.09384 -5.64651,-0.78624 -8.18471,0.97123 -4.07776,2.07911 -8.15551,4.15824 -12.23326,6.23736 -3.65457,0.33683 -6.28073,-2.37126 -1.72066,-3.47269 17.46245,-8.95014 26.95642,-12.70339 44.37281,-21.74642 3.86534,-1.95632 6.36817,-7.60829 2.18297,-10.04319 z"
       id="path6621"
       inkscape:connector-curvature="0"
       transform="matrix(-1,0,0,0.72166297,1012.1428,206.65933)"
       sodipodi:nodetypes="cccccccccccccccccccccccc" />
    <path
       sodipodi:nodetypes="ccccc"
       inkscape:connector-curvature="0"
       id="path6049"
       d="m 496.98596,642.04694 c 1.48531,-13.65091 19.23796,-15.35825 20.68152,0 l 0,110.84469 c -3.03451,4.40598 -13.45106,6.01972 -20.68152,4 z"
       style="fill:#005a00;fill-opacity:1;stroke:#000000;stroke-width:0.66600513;stroke-opacity:1" />
    <path
       sodipodi:nodetypes="csccccccc"
       inkscape:connector-curvature="0"
       id="path6051"
       d="m 542.51592,650.65237 c 0,0 3.89232,21.32202 5.4e-4,29.28713 -0.98013,2.00448 -6.69119,0 -6.69119,0 l 5.8e-4,17.07029 c -15.40555,4.23772 -17.55513,0.37098 -25.42434,0 l 0,-20.75203 c 4.96819,1.64992 9.47066,5.0483 16.22442,3e-5 l 0,-25.60539 c 4.36335,-5.13883 8.76148,-10.08288 15.88999,-3e-5 z"
       style="fill:#005a00;fill-opacity:1;stroke:#000000;stroke-width:0.66600513;stroke-opacity:1" />
    <path
       sodipodi:nodetypes="cccccccccc"
       inkscape:connector-curvature="0"
       id="path6053"
       d="m 92.654336,659.91411 0,12.47606 -3.17822,2.75338 -3e-5,3.36472 c -6.4674,4.49033 -12.93543,3.49276 -19.40267,6e-5 l 0,-9.89156 c 4.5692,1.80534 9.1621,3.42368 14.38523,0 l -3e-5,-8.70263 c 2.52218,-6.48266 7.30405,-3.00471 8.19579,3e-5 z"
       style="fill:#005a00;fill-opacity:1;stroke:#000000;stroke-width:0.51226985;stroke-opacity:1" />
    <path
       sodipodi:nodetypes="ccccc"
       inkscape:connector-curvature="0"
       id="path6055"
       d="m 56.744536,642.10905 c 3.85855,-10.49745 14.75465,-6.8208 15.90744,0 l -0.27101,61.80402 c -5.42746,4.26221 -10.42422,4.45243 -15.36542,4.1171 z"
       style="fill:#005a00;fill-opacity:1;stroke:#000000;stroke-width:0.51226985;stroke-opacity:1" />
    <path
       sodipodi:nodetypes="ccccc"
       inkscape:connector-curvature="0"
       id="path6057"
       d="m 60.074106,630.10963 c -1.13549,-5.58703 -7.35313,-5.31608 -8.17752,0 l 0,15.15365 8.17752,3.37915 z"
       style="fill:#005a00;fill-opacity:1;stroke:#000000;stroke-width:0.34530544;stroke-opacity:1" />
    <path
       sodipodi:nodetypes="ccccccc"
       inkscape:connector-curvature="0"
       id="path6059"
       d="m 257.81941,596.81867 c -1.28672,-3.63413 -6.25962,-3.80295 -8.17755,0 l 3e-5,10.94681 -1.32686,1.41599 0,7.57 9.50438,-4.77879 z"
       style="fill:#247124;fill-opacity:1;stroke:#000000;stroke-width:0.34530544;stroke-opacity:1" />
  </g>
</svg>
