<?xml version="1.0" encoding="UTF-8" standalone="no"?>
<!-- Created with Inkscape (http://www.inkscape.org/) -->

<svg
   xmlns:dc="http://purl.org/dc/elements/1.1/"
   xmlns:cc="http://creativecommons.org/ns#"
   xmlns:rdf="http://www.w3.org/1999/02/22-rdf-syntax-ns#"
   xmlns:svg="http://www.w3.org/2000/svg"
   xmlns="http://www.w3.org/2000/svg"
   xmlns:xlink="http://www.w3.org/1999/xlink"
   xmlns:sodipodi="http://sodipodi.sourceforge.net/DTD/sodipodi-0.dtd"
   xmlns:inkscape="http://www.inkscape.org/namespaces/inkscape"
   width="600"
   height="600"
   id="svg2987"
   version="1.1"
   inkscape:version="0.48.0 r9654"
   sodipodi:docname="journal-frozen.svg"
   inkscape:export-filename="C:\Users\Jake\Documents\FlashDevelop\HumphreyRemastered\lib\art\thoughts\journal-thawed.png"
   inkscape:export-xdpi="90"
   inkscape:export-ydpi="90">
  <defs
     id="defs2989">
    <linearGradient
       inkscape:collect="always"
       id="linearGradient3833">
      <stop
         style="stop-color:#ffffff;stop-opacity:1;"
         offset="0"
         id="stop3835" />
      <stop
         style="stop-color:#ffffff;stop-opacity:0;"
         offset="1"
         id="stop3837" />
    </linearGradient>
    <linearGradient
       inkscape:collect="always"
       id="linearGradient4334">
      <stop
         style="stop-color:#ffffff;stop-opacity:0"
         offset="0"
         id="stop4336" />
      <stop
         style="stop-color:#ffffff;stop-opacity:1"
         offset="1"
         id="stop4338" />
    </linearGradient>
    <linearGradient
       id="linearGradient4966"
       inkscape:collect="always">
      <stop
         id="stop4968"
         offset="0"
         style="stop-color:#aa0000;stop-opacity:1" />
      <stop
         id="stop4970"
         offset="1"
         style="stop-color:#2b0000;stop-opacity:1" />
    </linearGradient>
    <linearGradient
       inkscape:collect="always"
       id="linearGradient4665">
      <stop
         style="stop-color:#552200;stop-opacity:1;"
         offset="0"
         id="stop4667" />
      <stop
         style="stop-color:#311400;stop-opacity:1"
         offset="1"
         id="stop4669" />
    </linearGradient>
    <radialGradient
       inkscape:collect="always"
       xlink:href="#linearGradient4665"
       id="radialGradient3494"
       gradientUnits="userSpaceOnUse"
       gradientTransform="matrix(2.1843627,0.73505324,-1.2384588,3.6944266,1597.2961,-3029.5153)"
       cx="30.974825"
       cy="985.17175"
       fx="30.974825"
       fy="985.17175"
       r="30.678307" />
    <radialGradient
       inkscape:collect="always"
       xlink:href="#linearGradient4966"
       id="radialGradient3496"
       gradientUnits="userSpaceOnUse"
       gradientTransform="matrix(2.459147,2.3789983,-5.5583302,5.7639998,5874.2777,-5157.0259)"
       cx="31.495646"
       cy="994.84924"
       fx="31.495646"
       fy="994.84924"
       r="30.678307" />
    <radialGradient
       inkscape:collect="always"
       xlink:href="#linearGradient4966"
       id="radialGradient3518"
       gradientUnits="userSpaceOnUse"
       gradientTransform="matrix(3.9081128,3.7807393,-8.8333806,9.1602338,9185.9832,-8570.7651)"
       cx="31.495646"
       cy="994.84924"
       fx="31.495646"
       fy="994.84924"
       r="30.678307" />
    <radialGradient
       inkscape:collect="always"
       xlink:href="#linearGradient4665"
       id="radialGradient3523"
       gradientUnits="userSpaceOnUse"
       gradientTransform="matrix(3.4714215,1.1681575,-1.9681771,5.8712374,2388.9408,-5642.056)"
       cx="30.974825"
       cy="985.17175"
       fx="30.974825"
       fy="985.17175"
       r="30.678307" />
    <radialGradient
       inkscape:collect="always"
       xlink:href="#linearGradient4966"
       id="radialGradient3553"
       gradientUnits="userSpaceOnUse"
       gradientTransform="matrix(3.9081128,3.7807393,-8.8333806,9.1602338,9185.9832,-9023.1273)"
       cx="31.495646"
       cy="994.84924"
       fx="31.495646"
       fy="994.84924"
       r="30.678307" />
    <radialGradient
       inkscape:collect="always"
       xlink:href="#linearGradient4966"
       id="radialGradient3562"
       gradientUnits="userSpaceOnUse"
       gradientTransform="matrix(3.9081128,3.7807393,-8.8333806,9.1602338,8636.4602,-8623.2931)"
       cx="31.495646"
       cy="994.84924"
       fx="31.495646"
       fy="994.84924"
       r="30.678307" />
    <radialGradient
       inkscape:collect="always"
       xlink:href="#linearGradient4665"
       id="radialGradient3564"
       gradientUnits="userSpaceOnUse"
       gradientTransform="matrix(3.4714215,1.1681575,-1.9681771,5.8712374,1839.4178,-5242.2218)"
       cx="30.974825"
       cy="985.17175"
       fx="30.974825"
       fy="985.17175"
       r="30.678307" />
    <radialGradient
       inkscape:collect="always"
       xlink:href="#linearGradient4334"
       id="radialGradient4340"
       cx="118.79797"
       cy="553.29579"
       fx="118.79797"
       fy="553.29579"
       r="115.71429"
       gradientTransform="matrix(1,0,0,0.84191267,0,87.469055)"
       gradientUnits="userSpaceOnUse" />
    <linearGradient
       inkscape:collect="always"
       xlink:href="#linearGradient3833"
       id="linearGradient3839"
       x1="69.815964"
       y1="111.90629"
       x2="76.31356"
       y2="116.37057"
       gradientUnits="userSpaceOnUse" />
    <linearGradient
       inkscape:collect="always"
       xlink:href="#linearGradient3833"
       id="linearGradient3843"
       gradientUnits="userSpaceOnUse"
       x1="69.815964"
       y1="111.90629"
       x2="76.31356"
       y2="116.37057"
       gradientTransform="translate(25,475.39789)" />
    <linearGradient
       inkscape:collect="always"
       xlink:href="#linearGradient3833"
       id="linearGradient3845"
       gradientUnits="userSpaceOnUse"
       gradientTransform="matrix(0.65178867,-0.26010088,0.26010088,0.65178867,20.646998,535.08449)"
       x1="69.815964"
       y1="111.90629"
       x2="76.31356"
       y2="116.37057" />
  </defs>
  <sodipodi:namedview
     id="base"
     pagecolor="#ffffff"
     bordercolor="#666666"
     borderopacity="1.0"
     inkscape:pageopacity="0.0"
     inkscape:pageshadow="2"
     inkscape:zoom="1.979899"
     inkscape:cx="194.09339"
     inkscape:cy="435.39003"
     inkscape:document-units="px"
     inkscape:current-layer="layer1"
     showgrid="false"
     inkscape:window-width="1440"
     inkscape:window-height="838"
     inkscape:window-x="-8"
     inkscape:window-y="-8"
     inkscape:window-maximized="1" />
  <metadata
     id="metadata2992">
    <rdf:RDF>
      <cc:Work
         rdf:about="">
        <dc:format>image/svg+xml</dc:format>
        <dc:type
           rdf:resource="http://purl.org/dc/dcmitype/StillImage" />
        <dc:title></dc:title>
      </cc:Work>
    </rdf:RDF>
  </metadata>
  <g
     inkscape:label="Layer 1"
     inkscape:groupmode="layer"
     id="layer1"
     transform="translate(0,-452.36218)">
    <path
       style="color:#000000;fill:#454545;fill-opacity:1;fill-rule:nonzero;stroke:#686868;stroke-width:5.00000047999999970;stroke-linecap:butt;stroke-linejoin:miter;stroke-miterlimit:4;stroke-opacity:1;stroke-dasharray:none;stroke-dashoffset:0;marker:none;visibility:visible;display:inline;overflow:visible;enable-background:accumulate"
       d="m 111.23497,458.55502 c -15.186047,-0.27474 -33.335551,7.25346 -38.319432,25.87581 -0.719999,5.94389 0.522188,11.11192 -6.15334,8.24718 -16.069942,-0.86618 -35.5131,6.86094 -41.428268,26.15376 -4.785809,9.19889 5.027009,20.62396 4.261002,25.89595 -37.5470188,27.55544 -29.62366648,86.83677 22.582458,70.20987 3.204719,20.68684 22.097097,31.28899 38.253863,33.11408 14.838167,1.64685 31.407207,-2.55253 41.703317,-16.08389 21.02955,9.33926 48.20455,3.21944 61.97781,-18.69293 5.67303,-9.20562 10.17456,-18.34899 4.16525,-27.54094 12.96268,-1.48956 23.66257,-5.70354 32.41878,-17.65327 5.873,-11.63008 -2.55743,-24.04777 -8.46422,-32.99998 -4.73002,-10.95522 -21.599,-7.8879 -19.77374,-21.3713 -4.7322,-20.53875 -24.10697,-30.51529 -40.83779,-30.99158 -7.09448,-0.89999 -15.12141,5.72421 -16.62229,-5.86173 -7.42007,-12.72402 -21.17067,-17.99782 -33.7634,-18.30103 z"
       id="path3953"
       inkscape:connector-curvature="0"
       sodipodi:nodetypes="cccccccccccccccc" />
    <path
       transform="matrix(0.28470553,-0.14932946,0.17554297,0.33468316,-47.741038,578.71821)"
       d="m 517.14287,493.57144 c 0,13.01814 -11.83248,23.57143 -26.42858,23.57143 -14.59609,0 -26.42857,-10.55329 -26.42857,-23.57143 0,-13.01814 11.83248,-23.57143 26.42857,-23.57143 14.5961,0 26.42858,10.55329 26.42858,23.57143 z"
       sodipodi:ry="23.571428"
       sodipodi:rx="26.428572"
       sodipodi:cy="493.57144"
       sodipodi:cx="490.71429"
       id="path3988"
       style="color:#000000;fill:#ffffff;fill-opacity:1;fill-rule:nonzero;stroke:#686868;stroke-width:14.34439087;stroke-linecap:butt;stroke-linejoin:miter;stroke-miterlimit:4;stroke-opacity:1;stroke-dasharray:none;stroke-dashoffset:0;marker:none;visibility:visible;display:inline;overflow:visible;enable-background:accumulate"
       sodipodi:type="arc" />
    <path
       sodipodi:type="arc"
       style="color:#000000;fill:#ffffff;fill-opacity:1;fill-rule:nonzero;stroke:#686868;stroke-width:21.02732086;stroke-linecap:butt;stroke-linejoin:miter;stroke-miterlimit:4;stroke-opacity:1;stroke-dasharray:none;stroke-dashoffset:0;marker:none;visibility:visible;display:inline;overflow:visible;enable-background:accumulate"
       id="path3990"
       sodipodi:cx="490.71429"
       sodipodi:cy="493.57144"
       sodipodi:rx="26.428572"
       sodipodi:ry="23.571428"
       d="m 517.14287,493.57144 c 0,13.01814 -11.83248,23.57143 -26.42858,23.57143 -14.59609,0 -26.42857,-10.55329 -26.42857,-23.57143 0,-13.01814 11.83248,-23.57143 26.42857,-23.57143 14.5961,0 26.42858,10.55329 26.42858,23.57143 z"
       transform="matrix(0.19484231,-0.10219575,0.11936922,0.22758454,54.121089,622.2921)" />
    <path
       style="fill:url(#radialGradient3564);fill-opacity:1;stroke:#000000;stroke-width:0.49999997;stroke-miterlimit:4;stroke-opacity:1;stroke-dasharray:none"
       d="m 110.57076,458.39675 c -15.186036,-0.27474 -33.359866,7.25265 -38.343746,25.875 -0.72,5.94389 0.55053,11.08349 -6.125,8.21875 -16.06994,-0.86618 -35.52233,6.86343 -41.4375,26.15625 -4.7858,9.19889 5.016,20.63426 4.25,25.90625 -37.5470203,27.55544 -29.61237027,86.84565 22.59375,70.21875 3.20472,20.68684 22.09323,31.26866 38.25,33.09375 6.079,0.67469 12.452836,0.37125 18.562496,-1.15625 l 95.4375,-125.3125 c -1.59864,-1.82375 -2.45728,-4.26621 -1.96875,-7.875 -4.7322,-20.53875 -24.11293,-30.49246 -40.84375,-30.96875 -7.09448,-0.89999 -15.12412,5.71094 -16.625,-5.875 -7.42007,-12.72402 -21.15727,-17.97804 -33.75,-18.28125 z"
       id="path4744"
       inkscape:connector-curvature="0" />
    <path
       style="fill:#ececec;fill-opacity:1;stroke:none"
       d="m 131.97701,464.303 -60.187496,25.4375 c -0.34816,3.0225 -1.28058,4.64118 -5.6875,2.75 -0.26656,-0.0144 -0.54416,-0.0216 -0.8125,-0.0312 l -34.5,14.59375 c -2.62224,3.27073 -4.75091,7.11205 -6.125,11.59375 -4.7858,9.19889 5.016,20.63426 4.25,25.90625 -37.5470203,27.55544 -29.61237027,86.84565 22.59375,70.21875 3.20472,20.68684 22.09323,31.26866 38.25,33.09375 3.06738,0.34044 6.19914,0.44002 9.34375,0.25 L 201.66451,516.02175 c -0.0365,-0.76474 0.003,-1.59554 0.125,-2.5 -4.7322,-20.53875 -24.11293,-30.49246 -40.84375,-30.96875 -7.09448,-0.89999 -15.12412,5.71094 -16.625,-5.875 -3.15771,-5.41488 -7.47021,-9.46755 -12.34375,-12.375 z"
       id="path4748"
       inkscape:connector-curvature="0" />
    <path
       style="fill:#b3b3b3;fill-opacity:1;stroke:none"
       d="M 201.22701,511.45925 94.914514,648.178 c 0.53182,0.009 1.06027,0.0376 1.59375,0.0312 L 201.72701,513.2405 c -0.14514,-0.60949 -0.32943,-1.1905 -0.5,-1.78125 z"
       id="path4994"
       inkscape:connector-curvature="0" />
    <path
       style="fill:url(#radialGradient3562);fill-opacity:1;stroke:#000000;stroke-width:0.49999997;stroke-miterlimit:4;stroke-opacity:1;stroke-dasharray:none"
       d="m 110.57076,458.39675 c -15.186036,-0.27474 -33.359866,7.25265 -38.343746,25.875 -0.72,5.94389 0.55053,11.08349 -6.125,8.21875 -16.06994,-0.86618 -35.52233,6.86343 -41.4375,26.15625 -4.7858,9.19889 5.016,20.63426 4.25,25.90625 -37.5470203,27.55544 -29.61237027,86.84565 22.59375,70.21875 2.44845,15.80503 14.04718,25.69752 26.59375,30.3125 L 191.66451,495.303 c -8.33511,-8.2882 -20.0609,-12.4466 -30.71875,-12.75 -7.09448,-0.89999 -15.12412,5.71094 -16.625,-5.875 -7.42007,-12.72402 -21.15727,-17.97804 -33.75,-18.28125 z"
       id="rect7218"
       inkscape:connector-curvature="0" />
    <path
       style="fill:#b3b3b3;fill-opacity:1;stroke:none"
       d="M 198.44576,504.428 85.758264,647.2405 c 0.52666,0.10443 1.03896,0.19493 1.5625,0.28125 l 111.749996,-141.75 c -0.21241,-0.44797 -0.3971,-0.90913 -0.625,-1.34375 z"
       id="path4996"
       inkscape:connector-curvature="0" />
    <path
       style="fill:#b3b3b3;fill-opacity:1;stroke:none"
       d="M 200.07076,507.9905 90.945764,647.95925 c 0.52898,0.0474 1.06131,0.12397 1.59375,0.15625 0.01035,6.3e-4 0.0209,-6.2e-4 0.03125,0 l 108.093746,-138.5 c -0.18754,-0.54567 -0.38469,-1.09634 -0.59375,-1.625 z"
       id="path4998"
       inkscape:connector-curvature="0" />
    <path
       style="fill:#333333;fill-opacity:1;stroke:none"
       d="m 47.212964,558.4731 48.38144,-54.35287 78.632656,13.96195 -3.58474,64.17035 -39.2808,45.2178 -2.99546,-45.58239 z"
       id="rect4972"
       inkscape:connector-curvature="0"
       sodipodi:nodetypes="ccccccc" />
    <path
       style="fill:#000000;fill-opacity:1;stroke:#1a1a1a;stroke-width:0.49999997;stroke-miterlimit:4;stroke-opacity:1;stroke-dasharray:none"
       d="m 41.883264,497.8655 c -7.74565,4.22343 -14.22134,11.00494 -17.21875,20.78125 -4.7858,9.19889 5.016,20.63426 4.25,25.90625 -26.6104803,19.52921 -30.3641303,54.97824 -11.71875,68.0625 l 9.78125,0.46875 -9.5625,-29.15625 23.53125,-30.59375 c 17.48333,-22.75111 14.09533,-42.70741 0.9375,-55.46875 z"
       id="rect4807"
       inkscape:connector-curvature="0" />
    <path
       sodipodi:nodetypes="cccccccc"
       inkscape:connector-curvature="0"
       id="path4975"
       d="m 47.212964,558.4731 2.48423,8.27699 72.749546,19.08692 5.06341,37.86024 -1.29459,2.18535 5.15235,1.71548 -3.00169,-45.70905 z"
       style="fill:#999999;fill-opacity:1;stroke:none" />
    <g
       id="g4987"
       transform="matrix(8.9893012,0,0,8.05325,-581.95394,-7478.587)">
      <path
         sodipodi:nodetypes="ccccc"
         inkscape:connector-curvature="0"
         id="path4977"
         d="m 76.156313,995.04806 -1.979527,2.04282 1.851915,0.48133 0.745609,-2.22293 c 2.864473,-1.32334 -1.002501,-2.6808 -0.617997,-0.30122 z"
         style="fill:#000000;fill-opacity:1;stroke:none" />
      <path
         style="fill:#1a1a1a;fill-opacity:1;stroke:none"
         d="m 76.156313,995.04806 -1.979527,2.04282 0.134697,0.035 1.84223,-1.96079 c 0.008,-0.0217 0.01893,-0.0918 0.0026,-0.11706 z"
         id="path4983"
         inkscape:connector-curvature="0"
         sodipodi:nodetypes="cccccc" />
      <path
         style="fill:#1a1a1a;fill-opacity:1;stroke:none"
         d="m 76.156313,995.04806 c -0.116933,-1.34751 1.262344,-1.36698 1.643778,-0.89758 -0.273525,-0.61458 -1.899594,-0.68559 -1.643778,0.89758 z"
         id="path4985"
         inkscape:connector-curvature="0"
         sodipodi:nodetypes="ccc" />
    </g>
    <path
       sodipodi:nodetypes="cccccccccccccccc"
       inkscape:connector-curvature="0"
       id="path3376"
       d="m 110.56123,458.3817 c -15.186036,-0.27474 -33.335546,7.25346 -38.319426,25.87581 -0.72,5.94389 0.52219,11.11192 -6.15334,8.24718 -16.06994,-0.86618 -35.5131,6.86094 -41.42827,26.15376 -4.7858,9.19889 5.02701,20.62396 4.26101,25.89595 -37.5470203,27.55544 -29.62367027,86.83677 22.58245,70.20987 3.20472,20.68684 22.0971,31.28899 38.25387,33.11408 14.838156,1.64685 31.407196,-2.55253 41.703306,-16.08389 21.02955,9.33926 48.20455,3.21944 61.97781,-18.69293 5.67303,-9.20562 10.17456,-18.34899 4.16525,-27.54094 12.96268,-1.48956 23.66257,-5.70354 32.41878,-17.65327 5.873,-11.63008 -2.55743,-24.04777 -8.46422,-32.99998 -4.73002,-10.95522 -21.599,-7.8879 -19.77374,-21.3713 -4.7322,-20.53875 -24.10697,-30.51529 -40.83779,-30.99158 -7.09448,-0.89999 -15.12141,5.72421 -16.62229,-5.86173 -7.42007,-12.72402 -21.17067,-17.99782 -33.7634,-18.30103 z"
       style="color:#000000;fill:none;stroke:#686868;stroke-width:5.00000047999999970;stroke-linecap:butt;stroke-linejoin:miter;stroke-miterlimit:4;stroke-opacity:1;stroke-dasharray:none;stroke-dashoffset:0;marker:none;visibility:visible;display:inline;overflow:visible;enable-background:accumulate;fill-opacity:1" />
    <path
       sodipodi:type="arc"
       style="color:#000000;fill:#ffffff;fill-opacity:1;fill-rule:nonzero;stroke:#686868;stroke-width:10.88497162;stroke-linecap:butt;stroke-linejoin:miter;stroke-miterlimit:4;stroke-opacity:1;stroke-dasharray:none;stroke-dashoffset:0;marker:none;visibility:visible;display:inline;overflow:visible;enable-background:accumulate"
       id="path3986"
       sodipodi:cx="490.71429"
       sodipodi:cy="493.57144"
       sodipodi:rx="26.428572"
       sodipodi:ry="23.571428"
       d="m 517.14287,493.57144 c 0,13.01814 -11.83248,23.57143 -26.42858,23.57143 -14.59609,0 -26.42857,-10.55329 -26.42857,-23.57143 0,-13.01814 11.83248,-23.57143 26.42857,-23.57143 14.5961,0 26.42858,10.55329 26.42858,23.57143 z"
       transform="matrix(0.42296516,0,0,0.49886247,-45.675776,389.87928)" />
    <path
       style="opacity:0.93805309999999997;color:#000000;fill:#b7c9e0;fill-opacity:1;fill-rule:nonzero;stroke:#b8c8f4;stroke-width:1;stroke-opacity:1;marker:none;visibility:visible;display:inline;overflow:visible;enable-background:accumulate"
       d="m 93.103052,577.4405 c -1.50595,4.3651 -4.987687,6.22037 -18.614063,4.47197 -13.626376,-1.74839 -24.787477,-2.2715 -23.660337,-11.05602 1.127141,-8.78452 25.286159,-19.26755 32.269443,-7.43671 4.535003,7.68305 12.893378,5.64847 10.004957,14.02076 z"
       id="path3023"
       inkscape:connector-curvature="0"
       sodipodi:nodetypes="sssss" />
    <path
       transform="translate(0,452.36218)"
       style="opacity:0.46902654999999999;color:#000000;fill:url(#linearGradient3839);fill-opacity:1;fill-rule:nonzero;stroke:none;stroke-width:1;marker:none;visibility:visible;display:inline;overflow:visible;enable-background:accumulate"
       d="m 79.170702,115.85282 c 0,1.72598 -3.271593,5.29198 -4.766657,3.12516 -2.120371,-3.07309 -4.766657,-1.39918 -4.766657,-3.12516 0,-1.72598 2.134105,-3.12516 4.766657,-3.12516 2.632552,0 4.766657,1.39918 4.766657,3.12516 z"
       id="path3794"
       inkscape:connector-curvature="0"
       sodipodi:nodetypes="sssss" />
    <path
       sodipodi:nodetypes="sssss"
       inkscape:connector-curvature="0"
       id="path3804"
       d="m 108.52641,598.75634 c -0.4048,4.40372 -1.91141,6.3681 -8.43202,5.06837 -6.520609,-1.29974 4.0566,-11.78083 -11.877828,-10.25771 -8.760603,0.83739 10.540384,-20.04602 14.639708,-8.47139 2.66213,7.51666 6.44658,5.21434 5.67014,13.66073 z"
       style="opacity:0.93805309;color:#000000;fill:#b7c9e0;fill-opacity:1;fill-rule:nonzero;stroke:#b8c8f4;stroke-width:1;stroke-opacity:1;marker:none;visibility:visible;display:inline;overflow:visible;enable-background:accumulate" />
    <path
       style="opacity:0.92035403;color:#000000;fill:#c8d6e7;fill-opacity:1;fill-rule:nonzero;stroke:#c9d5f7;stroke-width:1;stroke-opacity:1;marker:none;visibility:visible;display:inline;overflow:visible;enable-background:accumulate"
       d="m 170.15544,581.76424 c 1.34287,-1.61814 -3.0835,8.24425 -5.78775,11.67534 -5.9749,7.58084 -5.6835,28.66745 -6.83679,16.45771 -0.88436,-9.36251 -10.73945,0.02 -9.72734,-1.19959 z"
       id="path3810"
       inkscape:connector-curvature="0"
       sodipodi:nodetypes="sssss" />
    <path
       style="opacity:0.93805309;color:#000000;fill:#b7c9e0;fill-opacity:1;fill-rule:nonzero;stroke:#b8c8f4;stroke-width:1;stroke-opacity:1;marker:none;visibility:visible;display:inline;overflow:visible;enable-background:accumulate"
       d="m 157.94925,620.51699 c 1.43865,-0.58504 0.85092,-0.22758 0.53919,-2.25834 -0.31173,-2.03073 -0.65557,-2.81695 -1.15684,0.029 -0.32551,1.84821 -0.821,2.81435 0.61765,2.2293 z"
       id="path3812"
       inkscape:connector-curvature="0"
       sodipodi:nodetypes="ssss" />
    <path
       sodipodi:nodetypes="sssss"
       inkscape:connector-curvature="0"
       id="path3841"
       d="m 102.38298,590.00367 c 0.44893,1.12498 -0.75594,4.3002 -2.29399,3.27676 -2.181348,-1.4515 -3.470781,0.32784 -3.919711,-0.79713 -0.448929,-1.12497 0.578129,-2.59203 2.293997,-3.27675 1.715874,-0.68474 3.470784,-0.32785 3.919704,0.79712 z"
       style="opacity:0.38495579;color:#000000;fill:url(#linearGradient3845);fill-opacity:1;fill-rule:nonzero;stroke:none;stroke-width:1;marker:none;visibility:visible;display:inline;overflow:visible;enable-background:accumulate" />
  </g>
</svg>
