<?xml version="1.0" encoding="UTF-8" standalone="no"?>
<!-- Created with Inkscape (http://www.inkscape.org/) -->

<svg
   xmlns:dc="http://purl.org/dc/elements/1.1/"
   xmlns:cc="http://creativecommons.org/ns#"
   xmlns:rdf="http://www.w3.org/1999/02/22-rdf-syntax-ns#"
   xmlns:svg="http://www.w3.org/2000/svg"
   xmlns="http://www.w3.org/2000/svg"
   xmlns:xlink="http://www.w3.org/1999/xlink"
   xmlns:sodipodi="http://sodipodi.sourceforge.net/DTD/sodipodi-0.dtd"
   xmlns:inkscape="http://www.inkscape.org/namespaces/inkscape"
   width="399.33154"
   height="470.24359"
   id="svg6444"
   version="1.1"
   inkscape:version="0.48.0 r9654"
   sodipodi:docname="tree.svg"
   inkscape:export-filename="C:\Users\Jake\Documents\FlashDevelop\HumphreyRemastered\lib\art\decals\tree.png"
   inkscape:export-xdpi="90"
   inkscape:export-ydpi="90">
  <defs
     id="defs6446">
    <radialGradient
       inkscape:collect="always"
       xlink:href="#linearGradient7335"
       id="radialGradient6080"
       gradientUnits="userSpaceOnUse"
       gradientTransform="matrix(1,0,0,1.0648865,0,-60.243856)"
       cx="1515.9395"
       cy="928.45038"
       fx="1515.9395"
       fy="928.45038"
       r="11.256586" />
    <linearGradient
       inkscape:collect="always"
       id="linearGradient7335">
      <stop
         style="stop-color:#000000;stop-opacity:1;"
         offset="0"
         id="stop7337" />
      <stop
         style="stop-color:#000000;stop-opacity:0;"
         offset="1"
         id="stop7339" />
    </linearGradient>
    <radialGradient
       inkscape:collect="always"
       xlink:href="#linearGradient7335"
       id="radialGradient6082"
       gradientUnits="userSpaceOnUse"
       gradientTransform="matrix(1,0,0,1.01455,0,-6.7643882)"
       cx="1503.2343"
       cy="464.90625"
       fx="1503.2343"
       fy="464.90625"
       r="24.697586" />
    <radialGradient
       inkscape:collect="always"
       xlink:href="#linearGradient7335"
       id="radialGradient6084"
       gradientUnits="userSpaceOnUse"
       gradientTransform="matrix(1,0,0,1.0648865,0,-60.243856)"
       cx="1485.9395"
       cy="928.45038"
       fx="1485.9395"
       fy="928.45038"
       r="11.256586" />
    <radialGradient
       inkscape:collect="always"
       xlink:href="#linearGradient7335"
       id="radialGradient6086"
       gradientUnits="userSpaceOnUse"
       gradientTransform="matrix(1,0,0,0.88451417,0,106.09604)"
       cx="1500.2111"
       cy="918.69312"
       fx="1500.2111"
       fy="918.69312"
       r="25.231537" />
    <radialGradient
       inkscape:collect="always"
       xlink:href="#linearGradient7335"
       id="radialGradient6088"
       gradientUnits="userSpaceOnUse"
       gradientTransform="matrix(1,0,0,1.0649049,0,-59.591775)"
       cx="1512.9069"
       cy="918.13934"
       fx="1512.9069"
       fy="918.13934"
       r="15.222186" />
    <radialGradient
       inkscape:collect="always"
       xlink:href="#linearGradient7335"
       id="radialGradient6090"
       gradientUnits="userSpaceOnUse"
       gradientTransform="matrix(1,0,0,1.0648865,0,-59.935065)"
       cx="1495.7218"
       cy="923.69147"
       fx="1495.7218"
       fy="923.69147"
       r="11.256586" />
    <radialGradient
       inkscape:collect="always"
       xlink:href="#linearGradient7380"
       id="radialGradient6092"
       gradientUnits="userSpaceOnUse"
       gradientTransform="matrix(1,0,0,1.2651371,0,-249.57522)"
       cx="1503.8212"
       cy="941.3064"
       fx="1503.8212"
       fy="941.3064"
       r="10.994615" />
    <linearGradient
       inkscape:collect="always"
       id="linearGradient7380">
      <stop
         style="stop-color:#000000;stop-opacity:1;"
         offset="0"
         id="stop7382" />
      <stop
         style="stop-color:#000000;stop-opacity:0;"
         offset="1"
         id="stop7384" />
    </linearGradient>
  </defs>
  <sodipodi:namedview
     id="base"
     pagecolor="#ffffff"
     bordercolor="#666666"
     borderopacity="1.0"
     inkscape:pageopacity="0.0"
     inkscape:pageshadow="2"
     inkscape:zoom="0.35"
     inkscape:cx="143.23579"
     inkscape:cy="220.87222"
     inkscape:document-units="px"
     inkscape:current-layer="layer1"
     showgrid="false"
     fit-margin-top="5"
     fit-margin-left="5"
     fit-margin-right="5"
     fit-margin-bottom="5"
     inkscape:window-width="469"
     inkscape:window-height="433"
     inkscape:window-x="150"
     inkscape:window-y="150"
     inkscape:window-maximized="0" />
  <metadata
     id="metadata6449">
    <rdf:RDF>
      <cc:Work
         rdf:about="">
        <dc:format>image/svg+xml</dc:format>
        <dc:type
           rdf:resource="http://purl.org/dc/dcmitype/StillImage" />
        <dc:title></dc:title>
      </cc:Work>
    </rdf:RDF>
  </metadata>
  <g
     inkscape:label="Layer 1"
     inkscape:groupmode="layer"
     id="layer1"
     transform="translate(-517.47849,-188.7051)">
    <g
       id="g8098"
       transform="matrix(7.3719583,0,0,7.3697556,-10351.16,-6383.9376)">
      <path
         inkscape:connector-curvature="0"
         style="fill:#003f00;fill-opacity:1;stroke:url(#radialGradient6080);stroke-width:0.10024243;stroke-miterlimit:4;stroke-opacity:1;stroke-dasharray:none"
         d="m 1519.2646,916.83283 -6.2779,2.33062 -4.7679,-0.21114 -0.092,2.00871 -3.0744,1.14333 1.36,3.67121 1.2359,5.95168 -0.026,0.63769 -0.9324,3.09653 0.7889,0.23764 -0.059,1.40593 1.3703,0.0651 0.5992,2.84599 7.3437,-1.52939 5.249,1.5812 0.5759,-1.91255 0.1364,0.0411 0.1084,-0.41436 2.0926,0.084 0.048,-1.09469 1.0762,-0.22211 -0.2399,-1.18154 1.0471,-0.0157 -0.1695,-10.8124 0.1052,-0.34912 -0.1063,-0.032 -0.021,-0.86703 0.064,-0.21245 -0.06,-0.0181 -0.043,-2.82725 -0.9121,0.007 0.02,-0.50711 -3.2322,-0.14591 -0.059,-0.29915 -1.181,0.24024 -0.9788,-0.0465 -0.9894,-2.64897 z"
         id="path8100" />
      <path
         id="path8102"
         d="m 1502.75,440.21875 -10.5312,7.96875 -9.125,2.3125 0.9687,3.84375 -5.1563,3.90625 4.6563,6.15625 5.7187,10.53125 0.3126,1.21875 0,6.375 1.625,0 0.6874,2.6875 2.625,-0.65625 2.75,5.03125 13,-7.0625 10.8126,0 0,-3.9375 0.2812,0 -0.031,-0.84375 4,-1.03125 -0.5313,-2.09375 1.9063,-1.03125 -1.125,-2.09375 1.9687,-0.625 -6.4687,-20.3125 0,-0.71875 -0.2188,0 -0.5312,-1.625 0,-0.4375 -0.125,0 -1.6876,-5.3125 -1.7187,0.53125 -0.25,-0.96875 -6.1875,1.5625 -0.2812,-0.53125 -2.0938,1.125 -1.875,0.46875 -3.375,-4.4375 z"
         style="fill:#034800;fill-opacity:1;stroke:url(#radialGradient6082);stroke-width:0.10024243;stroke-miterlimit:4;stroke-opacity:1;stroke-dasharray:none"
         inkscape:connector-curvature="0"
         transform="translate(0,452.36218)" />
      <path
         id="path8104"
         d="m 1489.2646,916.83283 -6.2779,2.33062 -4.7679,-0.21114 -0.092,2.00871 -3.0744,1.14333 1.36,3.67121 1.2359,5.95168 -0.026,0.63769 -0.9324,3.09653 0.7889,0.23764 -0.059,1.40593 1.3703,0.0651 0.5992,2.84599 7.3437,-1.52939 5.249,1.5812 0.5759,-1.91255 0.1364,0.0411 0.1084,-0.41436 2.0926,0.084 0.048,-1.09469 1.0762,-0.22211 -0.2399,-1.18154 1.0471,-0.0157 -0.1695,-10.8124 0.1052,-0.34912 -0.1063,-0.032 -0.021,-0.86703 0.064,-0.21245 -0.06,-0.0181 -0.043,-2.82725 -0.9121,0.007 0.02,-0.50711 -3.2322,-0.14591 -0.059,-0.29915 -1.181,0.24024 -0.9788,-0.0465 -0.9894,-2.64897 z"
         style="fill:#003f00;fill-opacity:1;stroke:url(#radialGradient6084);stroke-width:0.10024243;stroke-miterlimit:4;stroke-opacity:1;stroke-dasharray:none"
         inkscape:connector-curvature="0" />
      <path
         sodipodi:nodetypes="ccccccccccccccccccccccccccccccccc"
         inkscape:connector-curvature="0"
         style="fill:#003e01;fill-opacity:1;stroke:url(#radialGradient6086);stroke-width:0.10024243;stroke-miterlimit:4;stroke-opacity:1;stroke-dasharray:none"
         d="m 1486.5895,903.1849 -4.7207,12.33379 -6.5199,6.79 2.8556,2.74925 -2.3089,6.04277 7.2083,2.76066 10.4244,5.91115 0.9101,0.86883 20.9278,-5.53509 9.1754,-5.72049 -2.0832,-3.34131 0.2386,-0.14877 -0.4727,-0.69959 2.8488,-2.99134 -1.5586,-1.49564 1.0721,-1.88364 -2.0624,-1.18154 1.34,-1.57192 -16.2358,-13.81459 -0.3802,-0.60992 -0.1857,0.11576 -1.3105,-1.09792 -0.2314,-0.37125 -0.1061,0.0661 -4.2427,-3.61528 -1.1774,1.36011 -0.7247,-0.68981 -4.424,4.59946 -0.5196,-0.30204 -1.1816,2.0624 -1.3431,1.38976 -5.2117,-1.98003 z"
         id="path8106" />
      <path
         id="path8108"
         d="m 1517.4432,902.29861 -8.5647,3.17784 -6.5047,-0.2879 -0.1253,2.73892 -4.1944,1.55895 1.8554,5.00575 1.6861,8.11522 -0.036,0.8695 -1.272,4.22217 1.0762,0.32403 -0.081,1.91701 1.8695,0.0888 0.8174,3.88056 10.0188,-2.08535 7.161,2.15599 0.7857,-2.60779 0.1862,0.056 0.1478,-0.56498 2.8549,0.11457 0.066,-1.49263 1.4683,-0.30285 -0.3273,-1.61105 1.4285,-0.0214 -0.2312,-14.7429 0.1435,-0.47603 -0.145,-0.0436 -0.028,-1.1822 0.087,-0.28969 -0.082,-0.0247 -0.058,-3.855 -1.2443,0.009 0.028,-0.69146 -4.4096,-0.19895 -0.08,-0.4079 -1.6112,0.32758 -1.3353,-0.0634 -1.3498,-3.61191 z"
         style="fill:#004808;fill-opacity:1;stroke:url(#radialGradient6088);stroke-width:0.10024243;stroke-miterlimit:4;stroke-opacity:1;stroke-dasharray:none"
         inkscape:connector-curvature="0" />
      <path
         inkscape:connector-curvature="0"
         style="fill:#014400;fill-opacity:1;stroke:url(#radialGradient6090);stroke-width:0.10024243;stroke-miterlimit:4;stroke-opacity:1;stroke-dasharray:none"
         d="m 1499.0469,912.07389 -6.2779,2.33062 -4.7679,-0.21114 -0.092,2.00871 -3.0744,1.14333 1.36,3.67121 1.2359,5.95168 -0.026,0.63769 -0.9324,3.09653 0.7889,0.23764 -0.059,1.40593 1.3703,0.0651 0.5992,2.84599 7.3437,-1.52939 5.249,1.5812 0.5759,-1.91255 0.1364,0.0411 0.1084,-0.41436 2.0926,0.084 0.048,-1.09469 1.0762,-0.22211 -0.2399,-1.18154 1.0471,-0.0157 -0.1695,-10.8124 0.1052,-0.34912 -0.1063,-0.032 -0.021,-0.86703 0.064,-0.21245 -0.06,-0.0181 -0.043,-2.82725 -0.9121,0.007 0.02,-0.50711 -3.2322,-0.14591 -0.059,-0.29915 -1.181,0.24024 -0.9788,-0.0465 -0.9894,-2.64897 z"
         id="path8110" />
      <path
         sodipodi:nodetypes="ccccccccccccc"
         inkscape:connector-curvature="0"
         id="path8112"
         d="m 1501.8751,933.38127 4.2864,2.86061 8.3425,-6.58469 -8.7796,12.58068 2.2762,9.99317 2.5204,2.67322 -3.8005,-0.0844 -4.8776,-0.70877 -4.2449,0.79316 4.1198,-6.90833 -1.5254,-8.38017 -7.054,-11.90725 z"
         style="fill:#512800;fill-opacity:1;stroke:url(#radialGradient6092);stroke-width:0.08460744;stroke-opacity:1" />
      <path
         style="fill:#492400;fill-opacity:1;stroke:none"
         d="m 1501.8751,936.39675 2.2238,18.04217 -2.256,-0.32783 -4.2449,0.79316 4.1198,-6.90833 -1.5254,-8.38017 -7.054,-11.90725 z"
         id="path6229"
         inkscape:connector-curvature="0"
         sodipodi:nodetypes="cccccccc" />
    </g>
  </g>
</svg>
