<?xml version="1.0" encoding="UTF-8" standalone="no"?>
<!-- Created with Inkscape (http://www.inkscape.org/) -->

<svg
   xmlns:dc="http://purl.org/dc/elements/1.1/"
   xmlns:cc="http://creativecommons.org/ns#"
   xmlns:rdf="http://www.w3.org/1999/02/22-rdf-syntax-ns#"
   xmlns:svg="http://www.w3.org/2000/svg"
   xmlns="http://www.w3.org/2000/svg"
   xmlns:xlink="http://www.w3.org/1999/xlink"
   xmlns:sodipodi="http://sodipodi.sourceforge.net/DTD/sodipodi-0.dtd"
   xmlns:inkscape="http://www.inkscape.org/namespaces/inkscape"
   width="70.414658"
   height="67.347809"
   id="svg4973"
   version="1.1"
   inkscape:version="0.48.0 r9654"
   sodipodi:docname="robin.svg"
   inkscape:export-filename="C:\Users\Jake\Documents\FlashDevelop\HumphreyRemastered\lib\art\decals\robin.png"
   inkscape:export-xdpi="90.759377"
   inkscape:export-ydpi="90.759377">
  <defs
     id="defs4975">
    <linearGradient
       inkscape:collect="always"
       id="linearGradient5177">
      <stop
         style="stop-color:#f70000;stop-opacity:1;"
         offset="0"
         id="stop5179" />
      <stop
         style="stop-color:#f70000;stop-opacity:0;"
         offset="1"
         id="stop5181" />
    </linearGradient>
    <linearGradient
       gradientTransform="matrix(-1,0,0,1,1015.2937,184.16505)"
       inkscape:collect="always"
       xlink:href="#linearGradient5061"
       id="linearGradient5067"
       x1="438.74722"
       y1="489.75677"
       x2="447.83859"
       y2="499.73203"
       gradientUnits="userSpaceOnUse" />
    <linearGradient
       inkscape:collect="always"
       id="linearGradient5061">
      <stop
         style="stop-color:#424242;stop-opacity:1"
         offset="0"
         id="stop5063" />
      <stop
         style="stop-color:#333333;stop-opacity:1"
         offset="1"
         id="stop5065" />
    </linearGradient>
    <linearGradient
       inkscape:collect="always"
       xlink:href="#linearGradient5077"
       id="linearGradient5083"
       x1="466.15619"
       y1="504.6297"
       x2="455.64014"
       y2="510.82199"
       gradientUnits="userSpaceOnUse" />
    <linearGradient
       inkscape:collect="always"
       id="linearGradient5077">
      <stop
         style="stop-color:#424242;stop-opacity:1"
         offset="0"
         id="stop5079" />
      <stop
         style="stop-color:#333333;stop-opacity:1"
         offset="1"
         id="stop5081" />
    </linearGradient>
    <linearGradient
       inkscape:collect="always"
       xlink:href="#linearGradient5177"
       id="linearGradient5183"
       x1="571.00714"
       y1="690.68079"
       x2="572.01733"
       y2="698.76196"
       gradientUnits="userSpaceOnUse" />
  </defs>
  <sodipodi:namedview
     id="base"
     pagecolor="#ffffff"
     bordercolor="#666666"
     borderopacity="1.0"
     inkscape:pageopacity="0.0"
     inkscape:pageshadow="2"
     inkscape:zoom="3.959798"
     inkscape:cx="118.94228"
     inkscape:cy="-12.85876"
     inkscape:document-units="px"
     inkscape:current-layer="layer1"
     showgrid="false"
     fit-margin-top="10"
     fit-margin-left="10"
     fit-margin-right="10"
     fit-margin-bottom="10"
     inkscape:window-width="1440"
     inkscape:window-height="838"
     inkscape:window-x="-8"
     inkscape:window-y="-8"
     inkscape:window-maximized="1" />
  <metadata
     id="metadata4978">
    <rdf:RDF>
      <cc:Work
         rdf:about="">
        <dc:format>image/svg+xml</dc:format>
        <dc:type
           rdf:resource="http://purl.org/dc/dcmitype/StillImage" />
        <dc:title></dc:title>
      </cc:Work>
    </rdf:RDF>
  </metadata>
  <g
     inkscape:label="Layer 1"
     inkscape:groupmode="layer"
     id="layer1"
     transform="translate(-524.79268,-658.68829)">
    <g
       transform="matrix(0.62071982,-0.78403247,0.78403247,0.62071982,-120.41873,728.94094)"
       id="g5033"
       inkscape:transform-center-x="-3.9469337"
       inkscape:transform-center-y="3.4357612">
      <path
         sodipodi:nodetypes="cccsc"
         inkscape:connector-curvature="0"
         id="path5035"
         d="m 454.05908,510.24089 3.84489,3.8449 c 5.79215,1.75247 13.98936,2.52136 22.17483,-2.69708 0,0 -11.86651,-9.65519 -17.51234,-9.65519 -4.01041,0 -8.50738,8.50737 -8.50738,8.50737 z"
         style="fill:#424242;fill-opacity:1;stroke:none" />
      <path
         inkscape:connector-curvature="0"
         style="fill:#767676;fill-opacity:1;stroke:none"
         d="m 49.4375,27.5 1.5,13.4375 c 0.927589,0.03124 1.873496,0.01102 2.84375,-0.0625 l -1.375,-12.34375 C 51.35641,28.066632 50.35112,27.701456 49.4375,27.5 z"
         transform="translate(414.62983,474.43182)"
         id="path5037" />
      <path
         inkscape:connector-curvature="0"
         style="fill:#767676;fill-opacity:1;stroke:none"
         d="m 47.9375,27.3125 c -0.832218,0 -1.70166,0.356851 -2.53125,0.9375 l 1.375,12.25 c 0.922399,0.168555 1.88313,0.294915 2.875,0.375 l -1.5,-13.5625 c -0.07441,-0.0031 -0.146352,0 -0.21875,0 z"
         transform="translate(414.62983,474.43182)"
         id="path5039" />
    </g>
    <rect
       style="fill:#000000;fill-opacity:1;stroke:none"
       id="rect4498"
       width="10.031223"
       height="2.8284273"
       x="-887.86664"
       y="-188.7072"
       transform="matrix(-0.44340142,-0.89632315,-0.89632315,0.44340142,0,0)"
       inkscape:export-filename="C:\Users\Jake\Desktop\LD\Humphrey's Tiny Adventure\lib\forest\bluejay.png"
       inkscape:export-xdpi="90.759377"
       inkscape:export-ydpi="90.759377" />
    <rect
       y="-183.08861"
       x="-887.35645"
       height="2.8284273"
       width="10.031223"
       id="rect4500"
       style="fill:#000000;fill-opacity:1;stroke:none"
       transform="matrix(-0.44340142,-0.89632315,-0.89632315,0.44340142,0,0)"
       inkscape:export-filename="C:\Users\Jake\Desktop\LD\Humphrey's Tiny Adventure\lib\forest\bluejay.png"
       inkscape:export-xdpi="90.759377"
       inkscape:export-ydpi="90.759377" />
    <path
       style="fill:#333333;fill-opacity:1;stroke:none"
       d="m 578.22639,679.97187 0,13.53125 c -3.81627,7.1274 -9.88343,11.34879 -17.4375,13.625 0,0 -11.54796,0.81627 -16.70939,-3.78807 -3.28681,-2.93205 -5.54329,-9.33983 -5.54329,-9.33983 l -5.94719,-19.45792 9.10722,9.47018 z"
       id="rect4484"
       inkscape:connector-curvature="0"
       sodipodi:nodetypes="cccscccc" />
    <path
       style="fill:#b3b3b3;fill-opacity:1;stroke:none"
       d="m 578.22639,688.06562 0,5.4375 c 0,6.05146 -8.10909,11.67484 -17.58709,13.77285 0,0 1.56363,-15.21814 5.55584,-19.21035 2.83579,-2.83579 12.03125,0 12.03125,0 z"
       id="rect4488"
       inkscape:connector-curvature="0"
       sodipodi:nodetypes="cscsc" />
    <path
       style="fill:url(#linearGradient5067);fill-opacity:1;stroke:none"
       d="m 572.67092,669.19617 c -5.88796,5.88796 -6.69542,14.62595 -6.69542,14.62595 0,0 5.81173,3.86222 12.38075,2.15639 3.20127,-0.8313 6.23108,-2.09746 8.16208,-4.02489 5.47734,-5.46721 -7.95944,-18.64542 -13.84741,-12.75745 z"
       id="rect4482"
       inkscape:connector-curvature="0"
       sodipodi:nodetypes="scsss" />
    <path
       style="fill:#000000;fill-opacity:1;stroke:none"
       d="m 582.82399,672.21592 c 0.39528,1.54988 1.5855,2.30484 2.90334,2.93215 0.51193,-3.88313 -2.03896,-3.43108 -2.90334,-2.93215 z"
       id="rect4504"
       inkscape:connector-curvature="0"
       sodipodi:nodetypes="ccc" />
    <g
       id="g5028"
       transform="matrix(-0.85638006,-0.516346,-0.516346,0.85638006,1209.9267,485.2428)">
      <path
         style="fill:url(#linearGradient5083);fill-opacity:1;stroke:none"
         d="m 454.05908,510.24089 3.84489,3.8449 c 5.79215,1.75247 13.98936,2.52136 22.17483,-2.69708 0,0 -11.86651,-9.65519 -17.51234,-9.65519 -4.01041,0 -8.50738,8.50737 -8.50738,8.50737 z"
         id="path5020"
         inkscape:connector-curvature="0"
         sodipodi:nodetypes="cccsc" />
      <path
         id="rect4492"
         transform="translate(414.62983,474.43182)"
         d="m 49.4375,27.5 1.5,13.4375 c 0.927589,0.03124 1.873496,0.01102 2.84375,-0.0625 l -1.375,-12.34375 C 51.35641,28.066632 50.35112,27.701456 49.4375,27.5 z"
         style="fill:#767676;fill-opacity:1;stroke:none"
         inkscape:connector-curvature="0" />
      <path
         id="rect4494"
         transform="translate(414.62983,474.43182)"
         d="m 47.9375,27.3125 c -0.832218,0 -1.70166,0.356851 -2.53125,0.9375 l 1.375,12.25 c 0.922399,0.168555 1.88313,0.294915 2.875,0.375 l -1.5,-13.5625 c -0.07441,-0.0031 -0.146352,0 -0.21875,0 z"
         style="fill:#767676;fill-opacity:1;stroke:none"
         inkscape:connector-curvature="0" />
    </g>
    <path
       sodipodi:nodetypes="ccc"
       inkscape:connector-curvature="0"
       id="path5059"
       d="m 579.8667,673.61305 c 2.08098,1.23866 2.31074,2.0901 1.84048,3.89828 -4.75197,-0.36332 -2.93562,-2.85722 -1.84048,-3.89828 z"
       style="fill:#000000;fill-opacity:1;stroke:none" />
    <path
       sodipodi:nodetypes="ccccc"
       inkscape:connector-curvature="0"
       id="path5018"
       d="m 582.63574,678.96304 0.9712,2.72653 5.38348,1.61484 -4.77571,-6.24214 z"
       style="fill:#0c0c0c;fill-opacity:1;stroke:none" />
    <path
       style="fill:#000000;fill-opacity:1;stroke:none"
       d="m 584.19278,676.42979 2.80273,0.72251 2.14368,6.2283 -6.67711,-4.545 z"
       id="rect4490"
       inkscape:connector-curvature="0"
       sodipodi:nodetypes="ccccc" />
    <path
       sodipodi:nodetypes="cscsc"
       inkscape:connector-curvature="0"
       id="path5175"
       d="m 578.37742,687.93232 0,4.90626 c 0,5.46022 -3.02368,2.95806 -10.31299,7.12393 0,0 -4.14497,-8.42802 -0.5428,-12.03019 2.55873,-2.55873 10.85579,0 10.85579,0 z"
       style="fill:url(#linearGradient5183);fill-opacity:1;stroke:none" />
  </g>
</svg>
